<svg width="788" height="100" viewBox="0 0 788 100" fill="none" xmlns="http://www.w3.org/2000/svg">
<path d="M274.492 0.128054C337.352 -0.425452 400.327 0.841225 462.846 3.4278C525.45 6.14211 587.741 10.3892 647.556 18.0638C689.178 23.3859 758.33 34.8818 781.362 49.2091C801.775 62.3868 770.572 73.4037 741.163 79.2581C703.64 86.7837 661.876 90.7221 620.367 93.6812C454.39 104.315 281.239 99.1098 121.155 79.6945C82.8636 74.713 -38.6157 59.9493 12.2593 39.3525C94.4506 10.4956 463.244 -1.20249 580.795 3.11911C559.87 2.62947 538.916 2.64012 517.991 2.84236C455.216 3.44909 392.583 5.64182 330.377 8.69675C247.844 12.9013 164.542 18.0106 85.8244 28.293C61.5399 31.8056 22.9638 37.1597 11.3767 46.101C4.17394 53.3711 24.615 58.7358 39.1629 62.3123C47.7607 64.3454 56.9563 66.0804 66.3228 67.709C161.895 83.1114 265.922 90.5837 369.409 93.6493C481.18 96.47 602.375 95.2885 708.48 80.8335C756.423 73.9572 811.056 60.2473 754.06 42.4819C722.174 32.6359 684.11 25.7809 645.221 20.5865C586.318 12.731 524.283 8.23904 462.362 5.01381C400.07 1.95888 337.295 0.277075 274.492 0.128054Z" fill="#C42785"/>
</svg>
