<svg width="37" height="39" viewBox="0 0 37 39" fill="none" xmlns="http://www.w3.org/2000/svg">
<path fill-rule="evenodd" clip-rule="evenodd" d="M3.11678 31.9239C3.84234 31.844 6.97325 30.1836 10.1041 28.2634C13.2057 26.2734 15.8211 24.7206 15.9532 24.7744C16.044 24.8114 16.9452 27.8448 17.8809 31.4313C19.4185 37.2266 19.7708 38.0632 20.9596 38.5475C22.1484 39.0317 22.404 38.9241 23.0656 37.7017C23.9366 36.0832 23.7567 33.1223 22.595 27.8459C22.0619 25.4918 22.0056 24.1887 22.4059 24.2459C22.7153 24.266 25.4552 25.0068 28.4557 25.9114C31.4066 26.7959 34.245 27.4131 34.6779 27.2718C36.0214 26.8565 36.5167 24.9792 35.5085 24.1931C34.6821 23.481 27.6125 21.0343 24.4766 20.344L22.8717 19.9597L29.2714 15.5208C35.5802 11.0449 37.0533 9.50807 35.8636 8.38812C34.4335 7.05476 31.5985 7.98865 25.9681 11.7206C22.9079 13.7274 20.157 15.4945 19.9014 15.6022C19.6256 15.7593 18.7673 13.8022 17.9089 11.3253C15.576 4.3397 12.658 -0.689612 11.9114 1.14313C11.4439 2.29066 12.0113 7.32495 13.1841 12.1727C14.5905 18.0301 14.8663 17.8729 8.11442 15.7096C2.77 14.0138 1.37177 13.9254 0.887489 15.1143C0.214881 16.7654 1.62722 17.7642 6.99273 19.5264L11.9287 21.1618L10.6482 22.084C5.45071 25.6747 2.38039 28.4859 1.57998 30.4508C0.984726 31.912 1.12599 32.0851 3.11342 31.9321L3.11678 31.9239Z" fill="#C42785"/>
</svg>
