<svg width="34" height="48" viewBox="0 0 34 48" fill="none" xmlns="http://www.w3.org/2000/svg">
<g clip-path="url(#clip0_797_623)">
<path d="M17.7011 47.9703C17.382 48.0123 16.6174 48.0123 16.2922 47.9703C14.3595 47.7183 12.481 45.9483 12.0836 44.0523C10.8313 43.7043 8.13995 44.7483 7.97136 42.8943C7.83288 41.3763 8.03157 39.8283 7.84492 38.2323C7.2609 33.1983 5.32217 30.4383 2.77533 26.3523C-6.74371 11.1003 10.0606 -6.31774 25.3958 2.28026C33.9576 7.08026 36.5646 18.1263 31.2241 26.3523C28.4304 30.6603 26.7084 32.9043 26.1364 38.3343C25.9738 39.8883 26.1906 41.5683 26.022 43.0083C25.8233 44.6703 23.0477 43.7283 21.9097 44.0523C21.4642 45.9663 19.682 47.7183 17.7011 47.9703ZM24.0291 41.8983C23.8304 37.3083 24.8841 32.6043 27.172 28.6203C28.0029 27.1803 29.1649 25.9443 29.9838 24.5283C33.9756 17.6163 31.8201 8.71826 25.0767 4.47026C13.5347 -2.79574 -0.861291 7.76426 2.50439 20.8983C3.32925 24.1203 5.29207 26.0763 6.82739 28.8543C9.01298 32.8143 10.2051 37.3503 9.9703 41.8983H24.0291ZM19.8145 43.9983H14.1909C15.2566 46.5663 18.7488 46.5663 19.8145 43.9983Z" fill="#821A52"/>
<path d="M20.0683 7.53599L21.6036 8.12398C22.2117 7.67399 22.7958 6.62399 23.6869 6.90598C24.3793 7.12799 26.2638 9.60598 27.0164 10.134C27.7931 11.358 25.8845 12.012 25.9266 12.504L26.607 14.046C27.9918 14.226 28.919 13.644 29.0756 15.444C29.1478 16.272 29.1719 18.264 29.0454 19.038C28.8046 20.466 27.5824 19.968 26.5106 20.07L25.9326 21.618C26.7635 22.62 27.8352 22.992 26.7394 24.324C26.4264 24.702 24.2588 26.898 23.9698 27.054C22.6633 27.726 22.0492 25.908 21.5735 25.95L20.0683 26.496C20.0021 27.696 20.3994 28.914 18.828 29.058C18.0573 29.13 15.4442 29.166 14.7759 29.004C13.6922 28.746 14.0113 27.33 13.9511 26.496L12.3977 25.92C11.6691 26.454 11.2838 27.48 10.2061 27.132C9.5257 26.916 7.66525 24.492 6.94876 23.958C6.29248 22.686 8.12886 21.99 8.08671 21.54L7.50268 20.07C6.14196 19.992 5.0883 20.466 4.93176 18.72C4.86553 17.964 4.84145 15.042 5.16658 14.508C5.6061 13.794 6.54536 14.226 7.2197 14.1C7.64116 14.022 7.86996 12.822 8.08069 12.426C7.60504 11.748 6.54536 11.34 6.86447 10.356C7.08122 9.67199 9.66418 7.64998 10.2422 6.94798C11.35 6.46798 12.0244 8.20799 12.5843 8.12999C12.8854 8.08799 13.5597 7.60198 13.939 7.54198C14.0173 6.68398 13.7102 5.63399 14.6254 5.12999C15.6068 5.26199 18.84 4.82998 19.5264 5.21398C20.2549 5.62798 19.99 6.85199 20.0683 7.53599ZM17.9369 7.08599H16.0644C16.0283 7.66799 16.1969 8.39398 15.8296 8.89798C15.5045 9.34798 14.9144 9.32998 14.4568 9.51598C12.7469 10.23 12.0364 11.214 10.6095 9.30598C10.2964 9.71398 9.64612 10.128 9.36916 10.524C9.0922 10.92 10.0194 11.4 10.2482 11.76C10.7239 12.498 9.95319 13.17 9.67021 13.86C9.01995 15.456 9.36916 16.368 7.03305 16.08V18.066C9.30895 17.826 8.88147 18.408 9.55581 19.932C9.73644 20.334 10.4108 21.444 10.4288 21.756C10.471 22.368 9.62806 22.974 9.26078 23.382C9.67021 23.694 10.0856 24.342 10.483 24.618C10.9286 24.924 11.3801 23.826 11.8016 23.7C12.5301 23.484 13.3911 24.144 14.0655 24.432C15.5225 25.056 16.2811 24.84 16.0584 26.946H17.9309C17.7081 24.84 18.4607 25.056 19.9238 24.432C20.5981 24.144 21.4591 23.478 22.1876 23.7C22.6031 23.826 23.0607 24.918 23.5062 24.618C23.9036 24.348 24.319 23.694 24.7285 23.382C24.3612 22.974 23.5183 22.368 23.5604 21.756C23.5785 21.438 24.2588 20.346 24.4334 19.932C25.1198 18.36 24.602 17.844 26.9562 18.066V16.08C24.59 16.374 24.9874 15.444 24.319 13.86C24.012 13.134 23.2533 12.528 23.741 11.76C23.9698 11.4 24.891 10.914 24.6201 10.524C24.3491 10.134 23.6929 9.71398 23.3798 9.30598C21.9107 11.202 21.4049 10.284 19.7191 9.56398C19.2193 9.35398 18.5149 9.38399 18.1597 8.89798C17.8044 8.41198 17.961 7.66799 17.9249 7.08599H17.9369Z" fill="#821A52"/>
<path d="M16.9604 12.0359C23.3305 11.9759 23.6918 21.4679 17.5264 22.0379C10.5963 22.6799 10.0966 12.1019 16.9604 12.0359ZM16.3824 14.1239C12.9385 14.7119 13.4442 20.2319 17.1531 20.0459C21.1991 19.8419 20.7114 13.3859 16.3824 14.1239Z" fill="#821A52"/>
</g>
<defs>
<clipPath id="clip0_797_623">
<rect width="34" height="48" fill="white"/>
</clipPath>
</defs>
</svg>
