<svg width="42" height="36" viewBox="0 0 42 36" fill="none" xmlns="http://www.w3.org/2000/svg">
<g clip-path="url(#clip0_806_968)">
<path d="M42.0007 3.96665V21.3133C41.7965 22.2 41.4736 22.8666 40.8937 23.5533C39.0092 25.8 36.4394 27.8666 34.489 30.1066C34.2452 30.4266 34.0014 30.9066 33.9552 31.3133C33.7971 32.8 34.1397 34.5133 33.8762 36H24.1965V26.6666C24.3349 24.7466 25.0795 23.68 26.371 22.3933C28.5982 20.1666 31.1943 17.7266 33.5533 15.6333C34.1068 15.14 34.6735 14.5266 35.4246 14.4133L36.5185 3.93998C37.2037 0.879978 41.3089 0.919978 42.0073 3.97331L42.0007 3.96665ZM32.3211 34.34V30.98C32.3211 30.6266 32.901 29.4733 33.1448 29.1533C35.0425 26.8 37.9022 24.7066 39.7472 22.3866C40.0964 21.9533 40.36 21.4266 40.3666 20.8533V4.41998C40.2216 2.82665 38.1724 2.99998 38.0735 4.51331L37.0851 14.3866C37.0851 14.5666 37.8034 14.94 37.9813 15.1266C39.2728 16.4733 38.7456 18.1 37.5727 19.2733C35.9716 20.8733 34.0211 22.56 32.3211 24.0866C32.0905 24.2933 31.8203 24.4533 31.6226 24.7066H31.504L30.5552 23.4666L36.6371 17.9133C37.6255 16.9533 36.782 15.58 35.4971 16.0933L26.8718 24.2133C26.4567 24.7 25.8504 25.86 25.8504 26.4933V34.3333H32.3343L32.3211 34.34Z" fill="white"/>
<path d="M8.11139 35.9998C7.84123 34.5131 8.19046 32.7998 8.03232 31.3131C7.98619 30.9065 7.74898 30.4265 7.49859 30.1065C5.56134 27.8465 2.92564 25.7731 1.06087 23.5065C0.481017 22.8131 0.118607 22.0865 0 21.1798V4.0998C0.481017 1.01313 4.63226 0.793135 5.44933 3.7998L6.5695 14.4131C6.9978 14.4531 7.3668 14.7065 7.70286 14.9665C10.411 17.0665 12.8623 20.1865 15.577 22.3531C16.9081 23.5065 17.679 24.9598 17.7976 26.7465V35.9998H8.11139ZM9.67305 30.9798C9.81142 31.9931 9.57421 33.2931 9.67305 34.3398H16.1569V26.4998C16.1569 25.8598 15.5441 24.7131 15.1356 24.2198L6.5102 16.0998C5.21211 15.5798 4.38186 16.9598 5.37025 17.9198L11.4521 23.4731L10.5033 24.7198H10.3847C10.187 24.4665 9.91026 24.2998 9.68622 24.0998C7.95984 22.5531 5.96329 20.8331 4.35551 19.2065C3.1958 18.0331 2.82021 16.3865 4.06558 15.0931C4.2369 14.9198 4.92218 14.5531 4.92877 14.3998L3.94038 4.52647C3.84154 3.01313 1.79887 2.8398 1.64732 4.43313C1.71321 10.0998 1.5353 15.7931 1.73957 21.4398C1.85158 21.7931 2.03608 22.1131 2.26671 22.3998C4.1117 24.7198 6.97145 26.8065 8.86916 29.1665C9.17226 29.5531 9.62692 30.5131 9.69281 30.9931L9.67305 30.9798Z" fill="white"/>
<path d="M15.4788 0.0130313C17.5874 -0.120302 19.4851 0.966364 20.9611 2.38636C21.9429 1.59303 22.8918 0.779698 24.1108 0.359698C29.9687 -1.6403 34.3571 5.32636 30.509 9.98636L21.0204 19.5597L11.433 9.9397C8.34267 6.2997 10.6885 0.306365 15.4788 0.0130313ZM15.8149 1.66636C12.2172 1.77303 10.4051 6.07303 12.6718 8.86637L21.0336 17.2397L29.4086 8.77303C32.0245 5.19303 28.7496 0.533031 24.5127 1.91303C23.0499 2.38636 22.1077 3.78636 20.9743 4.70636C19.4588 3.18636 18.1673 1.59303 15.8215 1.66636H15.8149Z" fill="white"/>
</g>
<defs>
<clipPath id="clip0_806_968">
<rect width="42" height="36" fill="white"/>
</clipPath>
</defs>
</svg>
