<svg width="196" height="48" viewBox="0 0 196 48" fill="none" xmlns="http://www.w3.org/2000/svg">
<path d="M68.2823 0.062025C83.9195 -0.206074 99.585 0.40746 115.137 1.66031C130.711 2.97502 146.206 5.03217 161.085 8.74946C171.439 11.3273 188.642 16.8955 194.371 23.8352C199.449 30.218 191.687 35.5542 184.371 38.3899C175.037 42.035 164.648 43.9426 154.322 45.3759C113.034 50.5265 69.9608 48.0053 30.1384 38.6012C20.6131 36.1884 -9.60601 29.0373 3.04961 19.061C23.4955 5.08372 115.236 -0.582443 144.478 1.51079C139.273 1.27363 134.06 1.27878 128.855 1.37674C113.239 1.67062 97.6587 2.7327 82.1844 4.2124C61.6536 6.24892 40.9315 8.72368 21.3496 13.7041C15.3086 15.4055 5.71246 17.9989 2.83006 22.3297C1.03831 25.8511 6.12322 28.4496 9.74214 30.1819C11.8809 31.1667 14.1684 32.007 16.4984 32.7959C40.2729 40.2562 66.1507 43.8756 91.8939 45.3604C119.698 46.7267 149.846 46.1544 176.241 39.1529C188.167 35.8223 201.758 29.1817 187.579 20.5767C179.648 15.8077 170.179 12.4874 160.505 9.97137C145.852 6.16643 130.42 3.99071 115.017 2.42851C99.5212 0.948814 83.9053 0.134205 68.2823 0.062025Z" fill="#C42785"/>
</svg>
