<svg width="120" height="69" viewBox="0 0 120 69" fill="none" xmlns="http://www.w3.org/2000/svg">
<path fill-rule="evenodd" clip-rule="evenodd" d="M118.476 55.1172C118.122 54.9303 116.132 54.7068 114.027 54.636C109.446 54.3952 105.064 53.4777 98.7776 51.3352C93.3813 49.5013 91.9936 49.464 92.316 51.0659C92.5138 51.9214 93.1026 52.4566 95.3072 53.7018C96.803 54.5733 99.2927 55.6798 100.825 56.1593L103.56 57.0039L101.911 57.0623C93.1541 57.3124 79.6492 56.2834 71.5258 54.7506C51.1026 50.9365 29.3966 39.3819 16.3165 25.2999C10.8494 19.4222 6.98614 13.2329 3.46897 4.68386C1.28568 -0.576501 0.210003 -0.4189 1.44028 4.98352C5.31355 21.4949 20.8558 38.0206 43.0232 49.0567C56.8794 55.9934 69.8207 59.2233 87.7359 60.2252C91.1272 60.391 96.0287 60.4863 98.6595 60.3728L103.433 60.1922L100.913 62.2941C97.9193 64.7397 96.3615 67.5985 97.7361 68.1003C97.9746 68.186 99.8788 67.14 102.035 65.8308C104.594 64.2374 108.174 62.5736 112.383 60.9217C115.936 59.5634 119.061 58.1628 119.301 57.8633C119.769 57.1356 119.298 55.5619 118.483 55.1159L118.476 55.1172Z" fill="#882A5F"/>
</svg>
