<svg width="48" height="57" viewBox="0 0 48 57" fill="none" xmlns="http://www.w3.org/2000/svg">
<path d="M41.4692 28.3662C43.5735 26.2075 47.2669 27.3872 47.8931 30.2822V36.7109C47.4835 38.3453 46.8855 39.8448 45.8081 41.1465L38.061 48.9072L38.0317 48.9365V55.8506C38.0317 55.9017 38.0087 55.9692 37.9585 56.0508C37.9093 56.1307 37.8397 56.2151 37.7603 56.2988C37.613 56.454 37.44 56.5975 37.3218 56.6943H28.7368C28.4798 56.5467 28.3013 56.3979 28.1772 56.2178C28.05 56.0329 27.9738 55.8068 27.936 55.498V55.4971C27.8168 54.5429 27.8978 53.3661 27.9673 52.1943C28.0277 51.1755 28.079 50.1589 27.9751 49.3164L27.9214 48.9658C27.913 48.9217 27.8885 48.8695 27.8618 48.8184C27.8335 48.7642 27.7964 48.7008 27.7534 48.6318C27.6673 48.4937 27.5549 48.3264 27.439 48.1543C27.2037 47.805 26.9586 47.4406 26.8638 47.2207C25.456 43.9289 26.7116 40.017 29.8657 38.3105V38.3096C30.0991 38.1826 30.3803 38.0825 30.6606 37.9795C30.936 37.8783 31.2139 37.7739 31.4204 37.6387C31.7836 37.4032 32.1478 37.0615 32.5122 36.6768C32.8765 36.292 33.2471 35.8573 33.6196 35.4375C33.9937 35.016 34.3712 34.6066 34.7544 34.2656C35.138 33.9243 35.523 33.6553 35.9097 33.5088C37.4809 32.9137 39.1349 33.3489 40.2729 34.5771L40.4468 34.7637V30.2422C40.4468 30.2139 40.4555 30.1672 40.4761 30.1006C40.4962 30.0357 40.5257 29.9581 40.563 29.8721C40.6375 29.7003 40.7405 29.4982 40.853 29.2969C40.9655 29.0957 41.0865 28.896 41.1968 28.7295C41.3082 28.5613 41.4054 28.4317 41.4692 28.3662ZM30.272 54.4521H35.7896V49.5947H30.272V54.4521ZM44.1626 29.5264C43.4724 29.5264 42.7813 30.0019 42.6753 30.8838C42.5927 31.5716 42.6037 32.2245 42.6353 32.8506C42.667 33.4797 42.7192 34.0754 42.7192 34.6631C42.7192 35.8299 42.5147 36.942 41.5405 38.1006C41.1278 38.5909 40.2463 39.5364 39.3462 40.4463C38.4441 41.3581 37.5326 42.225 37.0581 42.5635C36.5757 42.904 36.0544 42.9378 35.6763 42.751C35.3489 42.589 35.113 42.2537 35.104 41.7715L35.1138 41.5557C35.122 41.4798 35.1633 41.3775 35.2407 41.25C35.317 41.1244 35.4241 40.9822 35.5542 40.8281C35.8144 40.5199 36.1609 40.1707 36.5269 39.8193C36.8943 39.4666 37.2736 39.1188 37.606 38.8027C37.9341 38.4906 38.2154 38.2108 38.3735 38.0068L38.3745 38.0059C38.958 37.2438 38.8701 36.4345 38.4204 35.9443C37.9991 35.485 37.2776 35.3258 36.5581 35.7295L36.4146 35.8174C35.7727 36.2453 35.1193 36.9939 34.478 37.7314C33.9115 38.383 33.354 39.0265 32.811 39.4639L32.5796 39.6377C32.3445 39.7988 32.0525 39.9016 31.7358 40.0068C31.424 40.1105 31.0884 40.2166 30.7905 40.3857C28.7827 41.5352 28.0471 44.1614 28.9233 46.2617L28.9243 46.2637C28.9626 46.3516 29.0931 46.5957 29.2222 46.8203C29.2872 46.9334 29.3531 47.0439 29.4087 47.1299C29.4364 47.1728 29.4624 47.2115 29.4849 47.2412C29.496 47.2558 29.5073 47.2695 29.5181 47.2812C29.5274 47.2914 29.5432 47.3074 29.562 47.3184L29.5854 47.332L29.6128 47.3311L36.4565 47.2959H36.5005L36.5298 47.2637C37.6272 46.06 38.8495 44.9124 40.0679 43.7588C41.285 42.6064 42.4984 41.4479 43.5737 40.2266C44.6895 38.9606 45.4702 37.6351 45.6362 35.8818C45.7503 34.6629 45.7786 32.199 45.6499 30.998C45.5979 30.5061 45.4019 30.137 45.1274 29.8906C44.8537 29.6449 44.5075 29.5264 44.1626 29.5264Z" fill="#821A52" stroke="#EFDFDF" stroke-width="0.2"/>
<path d="M2.78516 27.4531C4.08546 27.0542 5.59167 27.2971 6.62988 28.3594C6.69372 28.4248 6.79094 28.5535 6.90234 28.7217C7.01259 28.8881 7.13365 29.0879 7.24609 29.2891C7.35869 29.4905 7.46255 29.6924 7.53711 29.8643C7.57441 29.9502 7.60395 30.0279 7.62402 30.0928C7.64455 30.1592 7.65234 30.2062 7.65234 30.2344V34.7568L7.82617 34.5693C8.93668 33.3686 10.5566 32.913 12.1211 33.4668C12.505 33.6027 12.8914 33.8674 13.2803 34.209C13.6686 34.5501 14.0546 34.9629 14.4375 35.3906C14.8189 35.8166 15.1991 36.2594 15.5723 36.6514C15.8988 36.9944 16.2247 37.3039 16.5479 37.5361L16.6865 37.6309C16.893 37.7659 17.1702 37.8706 17.4453 37.9717C17.7258 38.0747 18.0077 38.1747 18.2412 38.3018V38.3027C21.388 40.0022 22.6499 43.9212 21.2422 47.2129C21.1474 47.4328 20.9022 47.7972 20.667 48.1465C20.5511 48.3186 20.4387 48.4859 20.3525 48.624C20.3096 48.693 20.2724 48.7564 20.2441 48.8105C20.2173 48.862 20.1939 48.9147 20.1855 48.959C20.0124 49.861 20.0706 51.0242 20.1396 52.1895C20.2091 53.3621 20.2891 54.5386 20.1699 55.4893V55.4902C20.1322 55.8024 20.0539 56.0299 19.9258 56.2148C19.8009 56.395 19.623 56.5422 19.3691 56.6865H10.7666C10.4224 56.4234 10.1579 56.1441 10.0742 55.7236L10.0107 48.9268V48.8916L9.98828 48.8643C9.20435 47.9018 8.22483 46.9569 7.19336 46.001C6.16006 45.0434 5.07486 44.0749 4.07324 43.0596C2.06883 41.0276 0.419543 38.8288 0.206055 36.2109C0.099755 34.9084 0.044102 32.0765 0.182617 30.6367L0.212891 30.3682C0.405731 28.8874 1.48528 27.852 2.78516 27.4531ZM12.3096 54.4521H17.8281V49.5947H12.3096V54.4521ZM5.41016 30.876C5.1975 29.076 2.64895 29.0756 2.43555 30.875C2.29235 32.0421 2.34244 34.6769 2.44922 35.873C2.60802 37.6199 3.39538 38.9461 4.51074 40.2188C5.5862 41.4402 6.80035 42.5985 8.01758 43.751C9.23597 44.9045 10.4582 46.0522 11.5557 47.2559L11.585 47.2881H11.6289L18.3799 47.3232V47.5273L18.5596 47.291C20.2039 45.1321 19.7159 41.7741 17.3018 40.3779C17.0072 40.2086 16.6711 40.1027 16.3584 39.999C16.0407 39.8937 15.7467 39.791 15.5117 39.6299C14.8998 39.2019 14.2672 38.4678 13.6201 37.7236C12.9787 36.9859 12.3223 36.2375 11.6768 35.8096C11.0144 35.3706 10.3208 35.4084 9.85156 35.7588C9.38207 36.1095 9.15803 36.7576 9.4043 37.4932C9.47923 37.7179 9.68994 37.9925 9.95605 38.2822C10.2258 38.5759 10.5656 38.8994 10.9141 39.2217C11.2638 39.5452 11.6222 39.8672 11.9336 40.1641C12.2456 40.4616 12.5042 40.7271 12.6562 40.9355C13.1208 41.5684 13.0227 42.2002 12.6719 42.5576C12.3216 42.9143 11.6922 43.0247 11.0342 42.5557C10.844 42.4203 10.4661 42.0828 9.99414 41.6338C9.52439 41.1868 8.96654 40.6345 8.41699 40.0752C7.86737 39.5158 7.32682 38.9498 6.89258 38.4746C6.45618 37.9971 6.13344 37.6182 6.0127 37.4297C5.4366 36.519 5.34446 35.4209 5.37012 34.2725C5.38299 33.6967 5.42529 33.1206 5.44824 32.5449C5.47103 31.9733 5.47497 31.4093 5.41016 30.876Z" fill="#821A52" stroke="#EFDFDF" stroke-width="0.2"/>
<path d="M22.5901 0.154297C29.8311 -0.399551 36.0919 3.35023 39.301 9.67773L39.6018 10.2988C39.6591 10.4238 39.7532 10.7131 39.8469 10.9961C39.893 11.1353 39.9386 11.2718 39.9788 11.3799C39.9988 11.4337 40.0179 11.4825 40.0354 11.5215C40.0508 11.5556 40.0698 11.5925 40.0911 11.6182V11.6191C40.1195 11.6537 40.1633 11.6759 40.1985 11.6914C40.2374 11.7085 40.2844 11.7245 40.3352 11.7393C40.4374 11.7689 40.5655 11.7981 40.6956 11.8252C40.9631 11.8809 41.2338 11.93 41.3635 11.9766C45.7293 13.5249 46.225 19.7019 42.1467 21.7969C41.9403 21.9017 41.498 22.0335 41.0735 22.1621C40.8644 22.2254 40.6612 22.2875 40.5012 22.3438C40.4215 22.3718 40.35 22.3989 40.2932 22.4248C40.2671 22.4367 40.2403 22.4494 40.2161 22.4639L40.1545 22.5107C40.1207 22.5447 40.0869 22.6009 40.0549 22.6611C40.021 22.725 39.9828 22.8059 39.9426 22.8965C39.8623 23.0777 39.7702 23.3059 39.678 23.54C39.4916 24.0132 39.3059 24.5054 39.2053 24.71C33.0718 36.9397 15.4272 37.1018 9.04712 24.998C8.94621 24.8029 8.697 24.2028 8.45337 23.6299C8.33228 23.3451 8.21345 23.0683 8.11646 22.8564C8.06806 22.7507 8.02433 22.66 7.98853 22.5918C7.97067 22.5578 7.95374 22.5276 7.93872 22.5039C7.92626 22.4843 7.90731 22.4566 7.88403 22.4385C7.85107 22.4128 7.80335 22.3908 7.75513 22.3721C7.70387 22.3521 7.64092 22.3316 7.57153 22.3105C7.4328 22.2685 7.26012 22.2232 7.08325 22.1768C6.72292 22.0822 6.35358 21.9851 6.17603 21.9014H6.17505C3.73767 20.7732 2.85737 18.3793 3.24829 16.1777C3.6395 13.9755 5.30078 11.9784 7.94165 11.6475L8.00415 11.6396L8.02466 11.5791C10.0569 5.35596 16.0212 0.648328 22.5901 0.154297ZM25.2756 2.47461C24.2843 2.38321 23.8362 2.38213 22.8684 2.4707L22.8616 2.46387L22.8147 2.46777C17.3057 2.98231 12.7152 6.22054 10.5208 11.3242C10.3836 11.6455 10.2529 12.1004 10.1165 12.5176C9.99429 12.8911 9.86877 13.2316 9.72876 13.4521L9.66821 13.5381C9.41223 13.8596 9.13659 13.956 8.82544 13.9912C8.66537 14.0093 8.49979 14.0106 8.31763 14.0176C8.13791 14.0245 7.94603 14.0365 7.74634 14.0771C6.58105 14.3132 5.80679 15.2112 5.53345 16.2451C5.26029 17.2784 5.48373 18.4601 6.32642 19.2734C6.83907 19.7678 7.28422 19.938 7.74438 20.0156C7.96991 20.0536 8.2006 20.0695 8.43677 20.0918C8.61541 20.1087 8.80055 20.1297 8.99731 20.166L9.19849 20.208C9.35457 20.245 9.51251 20.3886 9.66919 20.6279C9.82343 20.8636 9.96435 21.1729 10.094 21.5059C10.2234 21.8381 10.3396 22.1891 10.4465 22.5078C10.5527 22.8241 10.651 23.1122 10.7424 23.3115V23.3125C15.8377 34.2834 31.5428 34.4889 37.051 23.9033L37.3059 23.3906C37.4759 23.0289 37.665 22.4216 37.8547 21.8584C37.9505 21.5743 38.0474 21.299 38.1428 21.0664C38.2391 20.8318 38.3307 20.649 38.4153 20.542C38.6119 20.2923 38.9349 20.2023 39.3206 20.1592C39.5129 20.1377 39.7091 20.1288 39.9084 20.1133C40.1042 20.098 40.3002 20.077 40.4778 20.0303C41.9011 19.6542 42.6283 18.3641 42.6448 17.0859C42.6612 15.807 41.9665 14.5115 40.5208 14.1279H40.5198C40.2196 14.0467 39.911 14.0397 39.6311 14.0283C39.345 14.0167 39.0907 14.0005 38.8713 13.9121H38.8704C38.5068 13.7698 38.2704 13.3644 38.0833 12.8623C37.9911 12.615 37.9137 12.3533 37.8381 12.1016C37.7631 11.8517 37.6898 11.6095 37.6057 11.4102C35.4255 6.25627 30.8132 2.99621 25.2756 2.47461Z" fill="#821A52" stroke="#EFDFDF" stroke-width="0.2"/>
<path d="M22.9302 2.66602C23.8283 2.58522 24.2665 2.58573 25.1792 2.66797C25.216 2.92779 25.2059 3.30277 25.1812 3.73828C25.1541 4.214 25.1155 4.75291 25.1294 5.25293C25.1433 5.7505 25.2091 6.22748 25.4009 6.57422C25.4979 6.74962 25.6289 6.8946 25.8032 6.99023C25.934 7.06192 26.0853 7.10401 26.2583 7.11328L26.439 7.11133C26.8011 7.08506 27.0425 6.96669 27.2065 6.78418C27.3668 6.60563 27.443 6.37607 27.4995 6.15137C27.5581 5.91858 27.5951 5.69666 27.6733 5.49023C27.7493 5.28992 27.8598 5.1199 28.0532 5.00195C28.2709 4.86934 28.4708 4.7995 28.6636 4.79395C28.8549 4.78849 29.0498 4.84668 29.2593 4.98633H29.2603C29.6383 5.23298 29.7857 5.56434 29.8081 5.93262C29.8308 6.30758 29.7235 6.72185 29.5825 7.12012C28.7477 9.46379 25.7039 10.1146 23.9526 8.39648L23.7876 8.22266C23.1114 7.46408 22.9301 6.54313 22.9028 5.55957C22.8892 5.06717 22.9143 4.56356 22.9331 4.05859C22.9506 3.58997 22.9606 3.1207 22.9302 2.66602Z" fill="#821A52" stroke="#EFDFDF" stroke-width="0.2"/>
<path d="M17.9812 19.0146C18.3895 18.9041 18.6638 18.9495 18.8562 19.0732C19.0518 19.1991 19.1835 19.4183 19.2771 19.6982C19.3705 19.9777 19.4215 20.3031 19.4675 20.625C19.5128 20.942 19.5541 21.2603 19.6277 21.5088V21.5098C19.8174 22.1372 20.3444 22.9892 20.8025 23.4473L20.8035 23.4482C23.1306 25.7327 27.1586 24.8525 28.3328 21.877L28.4373 21.582C28.5183 21.3277 28.5643 21.0096 28.6121 20.6924C28.6605 20.3707 28.7117 20.0462 28.8025 19.7637C28.8933 19.481 29.0193 19.2532 29.2087 19.1133C29.3948 18.976 29.6584 18.9113 30.0486 18.9873C30.4917 19.0741 30.7431 19.3321 30.8689 19.6924C30.9974 20.0606 30.9945 20.5393 30.9099 21.0527C30.7622 21.9499 30.3703 22.9172 30.0593 23.5029L29.9324 23.7295C27.1845 28.254 20.5358 28.0412 17.9919 23.4805L17.8738 23.2598L17.7712 23.0459C17.5245 22.5007 17.2437 21.6548 17.1658 20.8701C17.1212 20.4216 17.1438 20.0027 17.2693 19.6738C17.3928 19.35 17.6154 19.1135 17.9812 19.0146Z" fill="#821A52" stroke="#EFDFDF" stroke-width="0.2"/>
<path d="M17.7185 10.6816C19.2921 10.4704 20.7628 11.2399 21.4119 12.6592L21.531 12.9521C21.7041 13.4369 21.7735 14.0287 21.6404 14.4863C21.5743 14.7134 21.4594 14.9035 21.2878 15.0342C21.117 15.1642 20.8803 15.2425 20.5564 15.2324C20.1765 15.2208 19.9536 15.0881 19.8025 14.9014C19.6456 14.7075 19.5588 14.4486 19.4724 14.167C19.3885 13.8936 19.3039 13.5948 19.1423 13.3633C18.9746 13.123 18.7263 12.9557 18.3298 12.9326C17.9407 12.91 17.6764 13.0183 17.4919 13.2139C17.3135 13.4032 17.2205 13.6643 17.1462 13.9199C17.0697 14.1837 17.0122 14.4407 16.9099 14.665C16.81 14.8842 16.6729 15.0556 16.447 15.1475C16.127 15.278 15.7536 15.2576 15.4451 15.1133C15.1758 14.9873 14.9615 14.7705 14.8738 14.4844L14.8445 14.3584C14.7116 13.5306 15.0196 12.6672 15.572 11.9795C16.1245 11.2918 16.912 10.7922 17.7195 10.6826L17.7185 10.6816Z" fill="#821A52" stroke="#EFDFDF" stroke-width="0.2"/>
<path d="M29.2437 10.6816C31.0814 10.4133 33.0004 11.6809 33.2368 13.5391L33.2544 13.7207C33.2918 14.2443 33.1229 14.7255 32.8247 15.0059C32.5335 15.2796 32.1056 15.3748 31.5825 15.1084C31.3703 14.9999 31.243 14.8269 31.1519 14.6162C31.0585 14.4002 31.0079 14.1595 30.939 13.9121C30.8721 13.6724 30.7877 13.4285 30.6226 13.2441C30.4524 13.0542 30.2068 12.9373 29.8413 12.9316C29.4734 12.926 29.223 13.0453 29.0454 13.2422C28.8734 13.433 28.7776 13.6893 28.6978 13.9404C28.6155 14.1989 28.55 14.4517 28.4409 14.6709C28.3475 14.8586 28.2266 15.0119 28.0454 15.1094L27.9634 15.1475C27.3131 15.4138 26.6052 15.1041 26.4126 14.4668L26.3813 14.335C26.2319 13.5195 26.5389 12.666 27.0933 11.9824C27.6463 11.3004 28.4352 10.8006 29.231 10.6826H29.2368L29.2437 10.6816Z" fill="#821A52" stroke="#EFDFDF" stroke-width="0.2"/>
</svg>
