<svg width="49" height="42" viewBox="0 0 49 42" fill="none" xmlns="http://www.w3.org/2000/svg">
<path d="M21.6214 41.1439H1V40.1854L6.95206 29.4054L7.56433 29.2549H22.1434C23.0015 29.3553 22.9865 29.8119 22.9614 30.5597C22.861 33.7465 22.319 37.0237 22.2738 40.2255C22.2136 40.7324 22.0781 40.9332 21.6114 41.149L21.6214 41.1439ZM21.5261 30.6952H7.85541L2.91711 39.7086H20.8536L21.5261 30.6952Z" fill="#821A52" stroke="#821A52" stroke-width="0.4"/>
<path d="M47.4167 41.1441H27.3724C26.7451 40.9082 26.7601 40.4465 26.6999 39.8493C26.3938 36.8281 26.1228 33.295 26.0224 30.2638C25.9973 29.531 26.2181 29.3152 26.9358 29.25L41.9263 29.3253L42.3178 29.7017L47.9988 40.3311C48.0189 40.7878 47.783 40.9584 47.4167 41.1441ZM41.2789 30.6954H27.5631L28.1402 39.7088H46.0767L41.2789 30.6954Z" fill="#821A52" stroke="#821A52" stroke-width="0.4"/>
<path d="M14.6208 19.7653C14.4351 18.6763 13.9332 17.5822 13.3912 16.6337C11.449 13.2411 8.48803 11.6603 9.28097 7.09333C10.6912 -1.07193 22.6756 -1.02175 23.9955 7.18868C24.9089 12.8748 19.6394 14.566 18.6758 19.2685C18.5353 19.946 18.741 21.4114 17.6671 21.1906C16.7135 20.9949 17.2505 19.0627 17.4312 18.4053C18.6959 13.8785 24.1561 11.4595 22.2992 6.29537C20.4423 1.13123 13.0198 1.05595 11.0224 6.14983C9.21573 10.7669 13.2406 13.0604 15.0524 16.6889C15.5291 17.6424 16.1866 19.419 16.1464 20.4729C16.0962 21.7175 13.8078 21.0049 13.0048 21.2157L10.3048 26.2794H21.8124L22.1989 21.1956C21.7823 21.1605 21.1449 21.3411 20.8689 20.9447C20.5678 20.5131 20.7384 19.8506 21.2955 19.7653C21.6167 19.7151 22.791 19.7101 23.0922 19.7804C23.8048 19.9409 23.6593 20.769 23.6392 21.3411C23.579 22.9722 23.4334 24.9897 23.2528 26.6157C23.2176 26.9168 23.1875 27.3635 22.9065 27.519L8.67874 27.5742C8.40774 27.3584 8.17688 27.0423 8.36759 26.691L11.9559 20.2069C12.0161 20.0815 12.3774 19.7603 12.4678 19.7603H14.6258L14.6208 19.7653Z" fill="#821A52" stroke="#821A52" stroke-width="0.4"/>
<path d="M25.9078 19.7853L36.6527 19.8355C36.9538 19.9559 37.1896 20.4728 37.3653 20.7539C38.5146 22.6057 39.438 24.6784 40.5973 26.5303C40.783 26.8414 40.7528 27.3885 40.3915 27.5541H26.1487C25.8075 27.3985 25.7874 26.6909 25.7422 26.3295C25.5565 24.7487 25.4009 22.6509 25.3558 21.06C25.3407 20.518 25.2905 19.971 25.9078 19.7803V19.7853ZM36.0053 21.2005H26.7961L27.3231 26.2794H38.6902L36.0053 21.2005Z" fill="#821A52" stroke="#821A52" stroke-width="0.4"/>
<path d="M16.417 5.69767C20.2261 5.20585 20.5975 10.9823 16.964 11.1378C13.3306 11.2934 13.1198 6.12425 16.417 5.69767ZM16.5124 7.13299C14.9164 7.4592 15.3631 10.0438 17.1397 9.67742C18.6202 9.37129 18.299 6.76663 16.5124 7.13299Z" fill="#821A52" stroke="#821A52" stroke-width="0.4"/>
</svg>
