<svg width="394" height="172" viewBox="0 0 394 172" fill="none" xmlns="http://www.w3.org/2000/svg">
<path fill-rule="evenodd" clip-rule="evenodd" d="M385.569 171.696C384.357 171.326 379.286 167.405 374.269 162.886C363.17 153.247 351.109 145.561 332.069 136.379C315.736 128.485 312.449 125.486 316.56 122.626C318.815 121.155 321.301 121.269 329.016 123.386C334.306 124.763 342.389 127.824 346.94 130.158L355.039 134.347L351.347 130.553C331.623 110.542 298.23 82.8381 276.224 68.2138C220.98 31.3591 146.506 8.93597 86.6696 11.3181C61.6767 12.2954 39.7383 17.5314 13.6419 28.8046C-2.45975 35.6987 -4.61617 32.9572 9.58009 23.6289C53.2298 -4.63009 123.895 -6.99803 198.346 17.6076C244.964 32.9021 281.678 54.4403 325.213 92.0022C333.404 99.1658 344.939 109.841 350.785 115.939L361.444 126.947L360.033 116.656C358.249 104.546 360.653 94.7023 364.886 96.6356C365.617 96.9742 367.823 103.54 370.059 111.252C372.628 120.495 377.413 132.163 383.674 145.2C389.036 156.126 393.322 166.196 393.248 167.398C392.801 170.062 388.405 172.529 385.583 171.715L385.569 171.696Z" fill="#C42785"/>
</svg>
