<svg width="133" height="62" viewBox="0 0 133 62" fill="none" xmlns="http://www.w3.org/2000/svg">
<path fill-rule="evenodd" clip-rule="evenodd" d="M131.205 60.9831C130.862 60.8547 129.774 60.168 128.827 59.4756C126.204 57.5567 122.232 55.2809 115.267 51.7729C111.809 50.0294 108.765 48.3237 108.527 48.0087C107.907 47.2227 107.918 46.4764 108.56 46.2926C109.499 46.0235 117.456 49.6654 123.714 53.2192L125.044 53.9646L124.324 53.2071C103.555 30.8618 93.9579 22.1517 80.9979 13.8881C66.2995 4.51458 55.0167 1.3437 43.9577 3.47865C39.8216 4.2456 35.2972 6.92349 32.6342 10.1363C31.3523 11.7285 29.7568 14.7283 29.9758 15.2461C30.0481 15.417 30.9331 16.1329 31.9311 16.7758C34.753 18.6379 38.0443 21.6252 39.9191 24.0778C43.2937 28.4519 44.567 33.9505 42.6004 35.7331C40.5719 37.6321 37.4342 36.9868 34.0035 34.0104C29.5456 30.1672 26.3519 23.0359 26.5546 17.4396C26.6058 16.525 26.4964 16.359 25.4802 15.7503C24.8411 15.3529 22.8614 14.5384 21.1123 13.9133C15.5411 11.9681 9.70701 10.8703 4.13456 10.731C0.277377 10.6111 -0.65923 10.206 0.943983 9.35776C1.42591 9.12101 2.96377 8.81394 4.38431 8.6624C9.48605 8.19932 18.0939 9.94794 24.3577 12.7571L27.0296 13.9248L28.5822 11.1636C30.4612 7.89097 33.4693 4.96827 36.8938 3.21509C41.9215 0.613634 49.6687 -0.444813 56.3049 0.585681C64.2145 1.79705 73.4901 5.8971 83.503 12.5899C95.4499 20.5922 102.724 27.0712 120.126 45.2316L126.546 51.9203L124.406 46.2579C122.206 40.5487 121.913 39.0826 122.707 38.4718C123.716 37.7648 124.048 38.3781 128.679 49.2482C132.419 57.9938 133.188 59.9969 132.936 60.4231C132.594 61.0669 132.053 61.2567 131.216 60.9797L131.205 60.9831ZM40.8033 32.7067C41.034 30.5158 39.2971 26.8278 36.5695 23.8125C34.5693 21.6512 30.6412 18.3645 29.7878 18.1562C29.084 18.0385 29.5058 21.1687 30.556 24.084C32.1701 28.5793 35.4483 32.7256 38.4733 34.0476C39.9898 34.7104 40.627 34.3304 40.8091 32.705L40.8033 32.7067Z" fill="#C42785"/>
</svg>
