<svg width="36" height="36" viewBox="0 0 36 36" fill="none" xmlns="http://www.w3.org/2000/svg">
<g clip-path="url(#clip0_806_988)">
<path d="M0.0127118 16.7432C0.509895 8.75778 6.77048 1.77378 14.6077 0.314139C27.7765 -2.13386 39.0154 10.1061 35.2669 23.0334C35.1099 23.5832 34.5735 24.6698 34.5015 25.0887C34.4492 25.3963 34.6651 26.005 34.4884 26.3978C36.0127 27.0589 36.451 28.7476 35.4043 30.0632C34.5015 31.1956 31.3156 34.3374 30.1316 35.0509C29.3858 35.5025 28.2671 35.928 27.397 36.0065H25.9251C25.5392 35.8952 25.1401 35.856 24.7476 35.7447C24.27 35.6072 23.8186 35.3978 23.3738 35.1818L21.372 35.7054L19.1804 36.0065H16.7926L15.0198 35.7774L12.5993 35.1818C12.161 35.4109 11.7031 35.6138 11.2255 35.7447C10.833 35.856 10.4339 35.9018 10.048 36.0065H8.57604C8.22932 35.8952 7.86297 35.8756 7.50971 35.7774C6.46955 35.496 5.48173 34.8872 4.67708 34.1803C3.87242 33.4734 0.575314 30.2661 0.21551 29.5134C0.130466 29.3301 0.130466 29.1338 0.0192536 28.9767V28.1323C0.202426 27.576 0.418309 27.085 0.90895 26.7381C1.08558 26.6138 1.47809 26.5025 1.49772 26.3389C1.51735 26.1883 1.41922 25.9723 1.41922 25.7825C1.41922 25.56 1.5108 25.2523 1.48464 25.0952C1.45847 24.9381 1.21642 24.5192 1.14446 24.3032C0.817364 23.3541 0.509895 22.392 0.326722 21.397L0.0127118 19.2698C0.0519631 18.4385 -0.0396233 17.568 0.0127118 16.7367V16.7432ZM33.4417 23.7665C36.1828 16.3701 33.2455 7.93959 26.5139 3.88796C14.9544 -3.06332 0.555688 6.00868 1.56314 19.3745C1.67435 20.88 2.06686 22.3527 2.54442 23.7665L2.89768 23.5767C2.6033 22.3069 3.22478 21.0501 4.50699 20.7032C4.7752 20.6312 5.09576 20.533 5.35089 20.6705C5.69761 18.9818 7.71905 18.2683 9.03397 19.4072L13.0376 23.413C13.1488 21.5869 14.7647 20.3498 16.5441 20.8865C16.8908 20.9912 17.2898 21.2072 17.4076 21.5672L17.9179 25.1672C18.0945 25.1803 18.0356 25.1869 18.0552 25.0625C18.1992 24.1069 18.2842 22.405 18.5655 21.5672C18.6898 21.2007 19.0758 20.9912 19.429 20.8865C21.2084 20.3498 22.8308 21.5869 22.9355 23.413L26.9391 19.4072C28.3456 18.288 30.2035 18.9556 30.6222 20.6705C30.8773 20.5396 31.1979 20.6312 31.4661 20.7032C32.7483 21.0436 33.3698 22.3069 33.0754 23.5767L33.4287 23.7665H33.4417ZM16.0272 22.2938C14.8759 22.1694 14.5095 22.9221 14.5488 23.9498C14.5749 24.565 15.0198 25.5141 14.6927 25.9854C14.3656 26.4567 13.8488 26.3716 13.4628 26.0181C11.7554 24.4538 10.0153 22.117 8.22932 20.7098C7.43121 20.0749 6.61347 20.4741 6.90132 21.4756L10.8919 25.4945C11.5133 26.2407 10.7741 27.1701 9.91058 26.6858L5.56023 22.3265C4.79483 21.7898 4.00326 22.608 4.51353 23.3738L8.85734 27.7461C9.35452 28.4661 8.54987 29.2974 7.81064 28.7934C6.64618 28.008 5.40323 26.1163 4.22569 25.213C3.87242 24.9381 3.55841 24.853 3.19861 25.1803C3.40795 25.632 3.40141 25.861 3.19861 26.3061L6.74431 29.8538C7.22187 30.5345 6.46955 31.3723 5.76957 30.973C4.82754 30.1614 4.00326 29.0683 3.06123 28.2698C2.97619 28.1978 2.60984 27.8836 2.55096 27.864C1.87061 27.661 1.32109 28.2043 1.60239 28.885C4.33036 31.2807 6.34526 35.3258 10.6236 34.2916C12.2918 33.8923 13.9469 32.2036 15.0721 30.9403C16.1973 29.677 16.7599 28.381 16.6487 26.6858L16.0207 22.2938H16.0272ZM19.9589 22.2938C19.8215 24.6763 18.7356 27.1243 19.8281 29.4218C20.4038 30.6327 23.0336 33.277 24.2242 33.8727C26.1018 34.8152 28.3456 34.5665 30.0007 33.2967L34.3707 28.885C34.5342 28.4596 34.4099 28.0145 33.9651 27.8509C33.5202 27.6872 33.2259 28.0014 32.9119 28.2698C31.9764 29.0683 31.1455 30.1549 30.2035 30.973C29.497 31.3723 28.7512 30.5345 29.2288 29.8538L32.7745 26.3061C32.5717 25.8545 32.5717 25.6254 32.7745 25.1803C32.4147 24.8596 32.1007 24.9447 31.7474 25.213C30.5241 26.1621 29.3923 27.792 28.1624 28.7934C27.4494 29.304 26.6055 28.4727 27.1092 27.7396L31.453 23.3672C31.9502 22.6145 31.1783 21.7767 30.4063 22.32L26.0363 26.6661C25.2055 27.1898 24.4467 26.221 25.0747 25.488L29.0652 21.469C29.4185 20.6378 28.5353 20.0487 27.8484 20.5985L22.3402 26.1163C22 26.496 21.2673 26.208 21.1626 25.7498C21.071 25.344 21.2869 24.997 21.3393 24.624C21.5093 23.4589 21.5093 22.1498 19.9524 22.2872L19.9589 22.2938ZM18.0618 28.8327C17.8786 28.813 17.9506 28.8327 17.9179 28.9374C17.2179 31.2676 15.7329 32.3476 14.1301 34.0363C16.6553 34.6254 19.3309 34.6254 21.8561 34.0363C20.4234 32.4327 18.4543 31.104 18.0618 28.8327Z" fill="white"/>
<path d="M9.89817 14.8585C9.98976 14.8454 10.0486 14.8454 10.1402 14.8585C10.5 14.9108 11.4551 15.8795 11.8542 16.1675C15.6419 18.9035 20.7512 18.7792 24.4408 15.9254C24.9772 15.513 25.7557 14.4068 26.4491 15.0548C27.1884 15.7421 26.1155 16.5341 25.6052 16.953C21.4315 20.3632 15.4653 20.5595 11.0561 17.4635C10.657 17.1821 9.47295 16.2919 9.33557 15.8861C9.19165 15.4541 9.43369 14.9435 9.89817 14.865V14.8585Z" fill="white"/>
<path d="M10.7422 9.02605C12.2664 8.84278 13.7645 9.56932 14.5168 10.9046C14.8832 11.5526 15.4719 13.4246 14.3009 13.5097C13.3916 13.5751 13.5486 12.6064 13.372 12.0435C12.744 10.021 9.74125 10.0341 9.11977 12.0435C8.94314 12.6195 9.10014 13.6341 8.1254 13.5031C7.15066 13.3722 7.52355 11.9388 7.77214 11.3301C8.24315 10.1453 9.46649 9.18314 10.7422 9.02605Z" fill="white"/>
<path d="M24.2246 9.02605C25.7488 8.84278 27.2469 9.56932 27.9992 10.9046C28.3656 11.5526 28.9544 13.4246 27.7834 13.5097C26.874 13.5751 27.031 12.6064 26.8544 12.0435C26.2264 10.021 23.2237 10.0341 22.6022 12.0435C22.4256 12.6195 22.5826 13.6341 21.6078 13.5031C20.6331 13.3722 21.006 11.9388 21.2546 11.3301C21.7256 10.1453 22.9489 9.18314 24.2246 9.02605Z" fill="white"/>
</g>
<defs>
<clipPath id="clip0_806_988">
<rect width="36" height="36" fill="white"/>
</clipPath>
</defs>
</svg>
