<svg width="34" height="34" viewBox="0 0 34 34" fill="none" xmlns="http://www.w3.org/2000/svg">
<g clip-path="url(#clip0_693_1292)">
<path d="M17.0001 33.1041C18.9326 33.1041 20.4992 25.894 20.4992 16.9998C20.4992 8.10566 18.9326 0.895508 17.0001 0.895508C15.0676 0.895508 13.501 8.10566 13.501 16.9998C13.501 25.894 15.0676 33.1041 17.0001 33.1041Z" stroke="white" stroke-width="1.5" stroke-linecap="round" stroke-linejoin="round"/>
<path d="M19.4756 19.4741C25.7648 13.185 29.7553 6.97888 28.3888 5.61239C27.0224 4.2459 20.8163 8.23648 14.5271 14.5256C8.23799 20.8147 4.24741 27.0208 5.6139 28.3873C6.98039 29.7538 13.1865 25.7632 19.4756 19.4741Z" stroke="white" stroke-width="1.5" stroke-linecap="round" stroke-linejoin="round"/>
<path d="M16.9998 20.4992C25.894 20.4992 33.1041 18.9326 33.1041 17.0001C33.1041 15.0676 25.894 13.501 16.9998 13.501C8.10566 13.501 0.895508 15.0676 0.895508 17.0001C0.895508 18.9326 8.10566 20.4992 16.9998 20.4992Z" stroke="white" stroke-width="1.5" stroke-linecap="round" stroke-linejoin="round"/>
<path d="M28.3888 28.3876C29.7553 27.0211 25.7648 20.815 19.4756 14.5259C13.1865 8.23675 6.98039 4.24617 5.6139 5.61266C4.24741 6.97915 8.23799 13.1853 14.5271 19.4744C20.8163 25.7635 27.0224 29.7541 28.3888 28.3876Z" stroke="white" stroke-width="1.5" stroke-linecap="round" stroke-linejoin="round"/>
</g>
<defs>
<clipPath id="clip0_693_1292">
<rect width="34" height="34" fill="white"/>
</clipPath>
</defs>
</svg>
