<svg width="14" height="25" viewBox="0 0 14 25" fill="none" xmlns="http://www.w3.org/2000/svg">
<path fill-rule="evenodd" clip-rule="evenodd" d="M0.435547 9.50979V13.7178H4.21883V23.8895C4.44538 24.0229 6.15957 24.1044 6.52204 24.097C7.04309 24.097 8.44767 24.0599 8.863 23.9043C8.93097 23.1116 8.8781 22.1708 8.87055 21.3633V13.7252L12.3291 13.7104L12.9937 9.50238H8.863C8.863 8.7319 8.863 7.96884 8.863 7.20577C8.863 6.39084 8.88565 5.90189 9.29343 5.30922C10.0561 4.20536 11.657 4.57578 13.1749 4.47947V0.908615C12.9181 0.797488 11.0831 0.664137 10.6905 0.64932C9.41426 0.582644 8.22867 0.671545 7.0884 1.16791C6.75613 1.31608 6.48428 1.49388 6.22753 1.67909C5.74424 2.03469 5.25339 2.61255 4.95133 3.13855C3.97719 4.82026 4.24905 7.1465 4.22639 9.169C4.22639 9.59869 4.40763 9.50238 3.19939 9.50238C2.59527 9.50238 0.903739 9.48015 0.435547 9.50979Z" fill="#821A52"/>
</svg>
