<svg width="51" height="41" viewBox="0 0 51 41" fill="none" xmlns="http://www.w3.org/2000/svg">
<path d="M42.251 32.7642C46.3486 31.5198 49.2912 31.4146 49.9629 32.4351C50.2652 32.9091 50.191 33.2382 49.667 33.7847C48.3234 35.2397 39.685 37.9791 30.7442 39.8423C22.9993 41.4487 22.0659 40.9022 27.9503 38.2358C32.9009 35.9316 37.6698 34.107 42.251 32.7573V32.7642ZM6.83306 2.38721C7.6511 1.59912 8.61654 1.52828 9.58209 2.20655C10.2525 2.67157 10.293 2.8847 9.84381 5.31983C9.58899 6.7862 8.87837 9.40237 8.2481 11.1206C6.46453 16.101 1.85083 26.6306 0.959041 27.7417L0.141658 28.7427V26.8433C0.0680465 22.5795 5.1635 3.98882 6.83306 2.38037V2.38721ZM35.0499 1.51416C36.1433 0.637605 38.0406 0.486578 38.6993 1.17139C38.9561 1.43839 39.1406 2.00659 39.1407 2.46533C39.1407 4.2869 30.3408 15.5657 23.6553 22.2837C20.0393 25.9268 18.7612 26.6122 19.2354 24.7153C19.8216 22.3255 32.7831 3.26193 35.0499 1.51416Z" fill="white"/>
</svg>
