<svg width="36" height="36" viewBox="0 0 36 36" fill="none" xmlns="http://www.w3.org/2000/svg">
<g clip-path="url(#clip0_806_972)">
<path d="M25.8101 10.0533C26.0833 10.0533 26.6964 10.5467 26.8897 10.5267C27.0563 10.5133 27.7694 10.0667 28.0159 9.96668C29.7486 9.25335 31.7879 9.43335 33.2273 10.6867C33.7338 11.1267 34.0204 11.4133 33.6205 12.06C32.9808 13.08 31.6746 14.3067 30.8815 15.2933C30.8216 15.3667 30.595 15.6467 30.6016 15.7C31.3814 16.7667 31.9878 18.0333 32.2877 19.3267C33.8271 19.1867 35.2799 19.7733 35.853 21.28L36.0063 21.7933V25.0267C35.6731 26.1467 34.7135 27.2 33.5006 27.34C33.1007 27.3867 31.7479 27.26 31.5346 27.4133C31.4413 27.48 31.0348 28.3333 30.9015 28.54C30.6016 29 30.2151 29.54 29.8552 29.9533C29.6087 30.2333 28.6157 31.08 28.5224 31.2867C28.4091 31.5333 28.4691 33.1067 28.4091 33.56C28.2359 34.8 27.1562 35.7667 25.9567 35.9933H24.9038C23.6376 35.64 22.7845 34.6733 22.5446 33.3933C20.2788 34.04 17.8264 34.0067 15.5539 33.3933C15.4539 34.7733 14.421 35.7667 13.0948 35.9933H12.1085C11.2955 35.72 10.6157 35.36 10.1559 34.6067C9.46947 33.48 9.80268 32.1933 9.70271 30.9467C7.00371 29.12 5.13107 26.2533 4.48465 23.0533C2.58535 22.7667 0.859323 21.4 0.246216 19.56C0.00630526 18.8333 -0.360226 17.1 0.899308 17.22C1.69901 17.2933 1.5524 18.26 1.68568 18.8267C1.97891 20.0467 3.12515 21.1867 4.37802 21.3733C4.2514 16.4333 7.69013 12.1267 12.0418 10.1533C12.1551 10.1 12.2551 10.0333 12.3951 10.0467C12.5283 10.36 12.9548 11.0733 13.1681 11.38C10.3625 12.5267 7.91004 14.6667 6.73715 17.5C4.9778 21.7533 6.37061 26.2333 9.82933 29.1C10.2692 29.46 11.2022 29.9133 11.2688 30.4733C11.3754 31.3867 11.0156 33.1133 11.5487 33.8467C11.9485 34.4 12.5883 34.56 13.2147 34.32C14.5809 33.8 13.6146 32.2267 14.2544 31.6333C14.7808 31.14 15.4739 31.7067 16.047 31.88C18.2862 32.5667 21.1918 32.3933 23.3243 31.42C24.5439 31.52 24.0374 32.7267 24.2173 33.48C24.5572 34.8933 26.7364 34.7067 26.8764 33.1467C26.9363 32.4667 26.7164 31.0533 27.003 30.5267C27.1762 30.2133 27.6961 29.9267 27.9693 29.6667C28.5557 29.1 29.1422 28.38 29.5754 27.6933C29.8286 27.2867 30.2151 26.3067 30.455 26.0467C30.575 25.9133 30.8016 25.82 30.9815 25.8C32.2144 25.6533 34.2403 26.34 34.4535 24.4933C34.5269 23.8867 34.5402 22.0467 34.2403 21.56C33.4273 20.2533 31.4547 21.64 30.9482 20.3533C30.535 19.3133 30.435 18.4467 29.8419 17.3867C29.6287 17.0067 28.849 16.04 28.8023 15.7467C28.769 15.5533 28.8223 15.38 28.9156 15.22C29.7486 14.1 30.8282 13.0867 31.6546 11.9867C31.7079 11.9133 31.9145 11.6667 31.8678 11.6C30.8615 11.1 29.9086 10.9533 28.829 11.3333C28.3558 11.5 27.2495 12.2467 26.8497 12.2267C26.4032 12.2067 25.5169 11.5333 25.0504 11.3867C25.2969 11.0267 25.6435 10.3867 25.8234 10.0533H25.8101Z" fill="white"/>
<path d="M25.8101 10.0535C25.6302 10.3935 25.2836 11.0268 25.0371 11.3868C24.6572 11.9468 24.0441 12.4668 23.5643 12.9335C22.2781 12.9068 20.9852 12.9335 19.699 12.9335C21.0852 12.7001 22.378 12.1001 23.3177 11.0335C27.2096 6.6268 22.538 -0.226534 17.0267 1.9268C12.5217 3.6868 12.1752 10.1735 16.5335 12.3335C17.1533 12.6401 17.8331 12.7868 18.5061 12.9268C17.1933 12.9268 15.8805 12.9001 14.5676 12.9268C14.0745 12.4268 13.5613 11.9668 13.1615 11.3801C12.9482 11.0668 12.5217 10.3601 12.3884 10.0468C10.6424 5.81347 13.4014 0.793466 17.9197 0.0867997C22.7246 -0.659867 26.8697 3.44013 26.2166 8.2468C26.1766 8.56013 25.9234 9.8268 25.8034 10.0468L25.8101 10.0535Z" fill="white"/>
<path d="M14.5616 12.9335C15.8678 12.9068 17.1873 12.9335 18.5001 12.9335C18.9 12.9335 19.2998 12.9335 19.693 12.9335C20.9792 12.9335 22.2721 12.9068 23.5583 12.9335C24.0448 12.9468 24.7912 12.8001 25.0977 13.2601C25.4442 13.7935 25.071 14.4735 24.4446 14.4868H13.5486C12.8756 14.3135 12.6956 13.4268 13.3021 13.0468C13.602 12.8601 14.1884 12.9468 14.5616 12.9401V12.9335Z" fill="white"/>
<path d="M25.4369 19.3532C26.6631 19.2466 26.5032 21.2466 25.3103 20.9199C24.4772 20.6932 24.5705 19.4266 25.4369 19.3532Z" fill="white"/>
<path d="M18.693 4.37989C22.6848 3.91323 23.1713 9.90656 19.3061 10.1932C15.4408 10.4799 15.0543 4.79989 18.693 4.37989ZM18.8329 5.91989C17.1069 6.20656 17.5001 8.94656 19.3594 8.62656C21.0121 8.34656 20.6789 5.60656 18.8329 5.91989Z" fill="white"/>
</g>
<defs>
<clipPath id="clip0_806_972">
<rect width="36" height="36" fill="white"/>
</clipPath>
</defs>
</svg>
