<svg width="74" height="73" viewBox="0 0 74 73" fill="none" xmlns="http://www.w3.org/2000/svg">
<g clip-path="url(#clip0_483_5510)">
<path d="M0 64.2999C0.65 60.2599 3.52 56.7099 7.56 55.7399C7.3 55.1399 6.87 54.6999 6.58 54.0799C3.94 48.3699 8.48 41.7799 14.86 43.2399C20.38 44.4999 21.95 51.5299 18.68 55.7399C21.23 56.2799 23.29 58.0799 24.74 60.1599L27.25 57.5299C28.37 56.7499 29.56 55.9699 30.94 55.7299C30.68 55.1299 30.25 54.6899 29.96 54.0699C27.11 47.8899 32.73 40.8999 39.3 43.5799C44.08 45.5399 45.02 51.7999 42.05 55.7199C43.43 55.9599 44.62 56.7299 45.74 57.5199L48.25 60.1499C49.7 58.0699 51.76 56.2699 54.31 55.7299L53.2 53.7699C50.66 47.7299 56.13 41.0099 62.57 43.5399C67.42 45.4499 68.42 51.7699 65.42 55.7299C68.6 56.4399 71.47 59.2099 72.47 62.2999C73.11 64.2899 73.23 69.5099 72.98 71.6399C72.89 72.3799 72.56 72.6299 71.98 72.9899H0V64.2899V64.2999ZM12.51 45.9499C7.5 46.6099 7.66 54.5699 12.22 55.2899C19.19 56.3799 19.07 45.0899 12.51 45.9499ZM35.9 45.9499C30.89 46.6099 31.05 54.5699 35.61 55.2899C42.58 56.3799 42.46 45.0899 35.9 45.9499ZM59.28 45.9499C54.27 46.6099 54.43 54.5699 58.99 55.2899C65.96 56.3799 65.84 45.0899 59.28 45.9499ZM23.38 70.1499V64.7999C23.38 61.6699 19.89 58.5599 16.9 58.3099C14.95 58.1399 9.28 58.0999 7.6 58.7199C5.37 59.5399 2.85 62.3399 2.85 64.8099V70.1599H23.38V70.1499ZM46.77 70.1499V64.7999C46.77 61.6699 43.28 58.5599 40.29 58.3099C38.34 58.1399 32.67 58.0999 30.99 58.7199C28.76 59.5399 26.24 62.3399 26.24 64.8099V70.1599H46.77V70.1499ZM70.15 70.1499V64.7999C70.15 61.6699 66.66 58.5599 63.67 58.3099C61.72 58.1399 56.05 58.0999 54.37 58.7199C52.14 59.5399 49.62 62.3399 49.62 64.8099V70.1599H70.15V70.1499Z" fill="#821A52"/>
<path d="M17.7898 0.04L54.9598 0C69.6698 1.42 74.3898 20.45 62.0398 28.61L62.0198 36.57C61.8798 37.77 60.8998 38.25 59.8198 37.76L51.6398 31.11L42.1898 31.15L37.5598 37.5C36.9398 38.16 35.9498 38.06 35.3498 37.42L30.3598 31.15L21.4498 31.08L13.1598 37.76C12.1798 38.25 11.0598 37.67 10.9698 36.57L10.9498 28.61C-1.2902 20.55 3.2398 1.63 17.7898 0.04ZM59.1698 33.36V27.3C59.1698 26.89 61.7298 25.28 62.2398 24.81C70.4598 17.17 65.3998 3.56 54.2598 2.84C42.6398 3.36 30.4498 2.17 18.8898 2.84C7.3298 3.51 2.3198 18.12 11.6298 25.51C12.0598 25.85 13.8298 26.84 13.8298 27.3V33.36C14.1398 33.34 14.4198 33.03 14.6698 32.85C16.3498 31.6 18.1298 29.69 19.8298 28.6C20.3798 28.25 20.6398 28.14 21.3098 28.08C23.7398 27.87 27.8498 27.91 30.2998 28.08C30.7898 28.11 31.3998 28.15 31.7998 28.43L36.4198 34.07L40.4098 28.65C40.7898 28.23 41.4298 28.13 41.9798 28.08C44.4698 27.87 49.1898 27.87 51.6898 28.08C52.6798 28.16 52.9298 28.4 53.6798 28.94C55.2198 30.06 56.6198 31.45 58.1098 32.64C58.2498 32.75 59.0798 33.46 59.1798 33.36H59.1698Z" fill="#821A52"/>
<path d="M33.1906 7.8797C33.8406 7.8197 34.3006 7.8797 34.9306 8.0497C35.3706 8.1597 36.2506 8.6797 36.4306 8.6897C36.7906 8.7297 37.5106 8.2097 37.9506 8.0697C40.4306 7.3097 42.9406 8.6097 44.1306 10.8197C46.1506 14.5897 43.3106 17.8997 40.6406 20.3097C40.0906 20.7997 37.5006 22.9397 36.9706 23.0597C36.7206 23.1197 36.4106 23.1197 36.1506 23.0797C35.3106 22.9397 31.5906 19.6097 30.8606 18.8097C29.9006 17.7497 28.5106 15.9597 28.2906 14.5397C27.7906 11.3997 29.9506 8.1697 33.1806 7.8697L33.1906 7.8797ZM32.8906 10.8597C31.8606 11.0897 31.0606 12.6197 31.0706 13.6097C31.0706 15.5897 35.0106 18.7997 36.5706 19.9197C38.0306 18.6397 41.6706 15.8597 41.9006 13.8797C42.1306 11.8997 40.5706 10.3897 38.6306 10.8997C37.8306 11.1097 37.4706 12.1697 36.4306 12.1297C35.6106 12.0897 35.0806 11.0897 34.3606 10.8997C33.9606 10.7997 33.2806 10.7697 32.8906 10.8597Z" fill="#821A52"/>
<path d="M59.1294 7.7404C60.1294 7.7204 61.4494 9.4904 61.9394 10.2704C63.6594 13.0104 63.9494 16.2904 62.7194 19.2904C62.1994 20.5704 60.1394 24.2104 58.4694 22.5804C57.2794 21.4104 58.5394 20.6004 59.0894 19.8004C60.8994 17.1404 61.1894 14.4604 59.4094 11.6704C59.0194 11.0704 57.8294 9.9804 57.7594 9.4704C57.6294 8.6104 58.2494 7.7604 59.1294 7.7404Z" fill="#821A52"/>
<path d="M52.6606 8.21976C51.1206 6.85976 53.5206 4.54976 54.8306 6.25976C55.9606 7.72976 53.8806 9.29976 52.6606 8.21976Z" fill="#821A52"/>
</g>
<defs>
<clipPath id="clip0_483_5510">
<rect width="73.13" height="73" fill="white"/>
</clipPath>
</defs>
</svg>
