<svg width="26" height="26" viewBox="0 0 26 26" fill="none" xmlns="http://www.w3.org/2000/svg">
<path fill-rule="evenodd" clip-rule="evenodd" d="M15.8096 23.0522C13.2648 23.0522 10.7577 23.0966 8.20527 23.0077C6.82335 22.9558 5.38857 22.7929 4.43708 22.1261C2.70024 20.9111 2.51145 19.2516 2.44349 17.2588C2.36798 15.1326 2.41329 12.5841 2.40574 10.4282C2.40574 8.82059 2.36798 6.50916 3.17598 5.1312C3.50825 4.56816 3.86317 4.23478 4.35401 3.84213C4.61832 3.6347 5.01855 3.44949 5.34326 3.33095C5.84921 3.13833 6.40802 3.03461 6.99703 2.97535C8.68856 2.80495 12.0565 2.85681 14.0501 2.86422C15.7114 2.86422 18.6339 2.76791 20.1366 3.36058C20.4009 3.4643 20.6426 3.57543 20.8767 3.7236C20.9899 3.79027 21.1108 3.87177 21.2014 3.94585C21.3146 4.04216 21.3751 4.13106 21.4732 4.21996C21.8659 4.56816 22.1302 4.84968 22.4096 5.44976C23.1497 7.05739 23.0213 9.62811 23.0288 11.3987C23.0288 13.4286 23.0741 16.792 22.9231 18.4219C22.7872 19.8739 22.3718 20.9556 21.4279 21.7853C20.854 22.2965 20.2725 22.5706 19.4721 22.778C18.4828 23.0299 16.8895 23.067 15.8096 23.067V23.0522ZM9.42106 0.656512C6.8158 0.708371 4.75424 0.738005 2.79841 2.2271C2.56431 2.4049 2.35287 2.57529 2.15654 2.78273C2.08857 2.85681 2.04326 2.90867 1.98285 2.98276C1.65814 3.35318 1.77141 3.23464 1.4618 3.6347C1.24281 3.91622 1.05402 4.27182 0.89544 4.63483C0.170498 6.2795 0.162947 8.11679 0.140292 10.0578C0.117638 12.1247 0.0345691 17.1328 0.291319 19.1035C0.60093 21.4742 1.88468 23.5633 4.19543 24.5264C5.89452 25.2376 7.72953 25.2451 9.73067 25.2673C10.7803 25.2821 11.83 25.2821 12.8796 25.2747C13.9217 25.2747 14.9865 25.2895 16.0286 25.2747C18.6716 25.2228 20.9144 25.1487 22.8551 23.5189C22.9986 23.4004 23.1572 23.267 23.2705 23.1411C25.2188 21.0519 25.2565 18.7701 25.2867 15.8808C25.3094 13.8583 25.3849 8.75391 25.1206 6.8055C24.9696 5.69424 24.524 4.29405 23.8368 3.44949C23.0741 2.50121 22.3492 1.90113 21.2014 1.38995C19.6382 0.686146 17.5162 0.671329 15.651 0.649104C13.5895 0.61947 11.4675 0.612061 9.41351 0.649104L9.42106 0.656512ZM12.5172 8.86504C13.7103 8.78355 14.7222 9.23546 15.568 9.95408C16.3307 10.5986 16.8366 11.6876 16.9046 12.7322C16.9574 13.562 16.7082 14.5177 16.2476 15.177C15.4849 16.2809 14.3975 16.9847 12.9627 17.0662C11.2636 17.1625 9.73067 16.266 8.96797 14.814C7.68422 12.3766 9.23982 9.0947 12.5096 8.86504H12.5172ZM12.3737 6.64992C10.8709 6.73882 9.43616 7.31668 8.38651 8.27977C8.03914 8.59834 7.89566 8.73169 7.60871 9.0947C6.67232 10.2652 6.18147 11.7914 6.27964 13.3397C6.36271 14.7177 6.82335 15.7697 7.58605 16.792C8.8245 18.4515 10.9993 19.4072 13.1213 19.2739C14.3899 19.1998 15.7114 18.7108 16.6478 17.9922L17.0783 17.6218C18.4828 16.3846 19.2908 14.5473 19.1776 12.5767C19.1096 11.4432 18.7471 10.4727 18.2034 9.59106C17.9391 9.16879 17.8108 9.03543 17.4936 8.70946C17.3577 8.5687 17.2519 8.42794 17.116 8.28718L16.6705 7.93158C15.4018 7.03516 14.0652 6.53139 12.3812 6.6277L12.3737 6.64992ZM19.2606 4.91635C18.8151 4.97562 18.4451 5.20528 18.2789 5.44235C18.0524 5.7535 17.8712 6.04984 17.9391 6.56843C18.0373 7.32409 18.7245 7.96121 19.6307 7.85009C20.4085 7.75378 21.0579 7.09443 20.9371 6.19801C20.8389 5.44976 20.1517 4.79782 19.2682 4.91635H19.2606Z" fill="#821A52"/>
</svg>
