<svg width="50" height="49" viewBox="0 0 50 49" fill="none" xmlns="http://www.w3.org/2000/svg">
<path d="M38.614 0.0507812C47.2544 0.6269 51.6145 10.628 46.156 17.4316L46.1365 17.4551L46.1492 17.4834C46.9868 19.351 47.2385 21.8175 46.6248 23.7803C46.3181 24.7609 45.7961 25.6136 45.0261 26.2041C44.2567 26.7942 43.2352 27.126 41.9236 27.0586C40.2895 26.9749 38.999 26.1674 38.0173 25.0225C37.0351 23.8768 36.3635 22.3944 35.9695 20.9688L35.9617 20.9404L35.9333 20.9336L35.5291 20.8223C33.513 20.2372 31.5826 19.1956 30.2498 17.5762L30.2273 17.5498L30.1951 17.5596L10.1609 24.0938C10.1098 24.0982 10.0177 24.0926 9.8894 24.0732C9.75896 24.0535 9.59585 24.022 9.41089 23.9824C9.04078 23.9032 8.58358 23.7907 8.12378 23.6689C7.4324 23.4859 6.7378 23.2831 6.32104 23.1445L6.00757 23.0303C5.66502 22.8826 5.4804 22.7046 5.39331 22.4834C5.30522 22.2595 5.31273 21.9818 5.37866 21.625V21.624C5.45645 21.1997 5.77357 20.1898 6.12085 19.1797C6.46796 18.17 6.84305 17.1675 7.03491 16.7598C7.13026 16.5585 7.19371 16.4175 7.34937 16.29L7.42261 16.2363C7.50733 16.177 7.68819 16.0951 7.92358 16.0059C8.15702 15.9174 8.43939 15.823 8.72437 15.7373C9.00944 15.6516 9.29644 15.5745 9.53882 15.5205C9.78348 15.466 9.97713 15.4368 10.0779 15.4424C10.4443 15.4629 10.8188 15.6641 11.2048 15.8818C11.5856 16.0966 11.9783 16.3278 12.3669 16.3838L12.3767 16.3848L12.3865 16.3828C12.4136 16.376 12.4417 16.3591 12.4685 16.3398C12.4959 16.3201 12.5257 16.2941 12.5574 16.2637C12.6213 16.2023 12.6958 16.1188 12.7771 16.0215C12.9399 15.8266 13.1338 15.5708 13.3298 15.3076C13.5263 15.0439 13.7261 14.7724 13.9011 14.5459C14.0771 14.3183 14.2253 14.141 14.3201 14.0605V14.0596C14.5429 13.8697 14.8259 13.8016 15.1482 13.8105C15.4713 13.8195 15.8295 13.9064 16.198 14.0195C16.382 14.0761 16.5682 14.139 16.7527 14.2021C16.9368 14.2651 17.1199 14.3283 17.2976 14.3848C17.6521 14.4974 17.9906 14.5846 18.282 14.5908L18.2996 14.5918L18.3132 14.5811C18.5079 14.4362 18.7103 14.2021 18.9158 13.9336C19.1213 13.6649 19.335 13.3556 19.5496 13.0615C19.7651 12.7661 19.9825 12.4837 20.2 12.2637C20.391 12.0704 20.5779 11.9297 20.7585 11.8662L20.8357 11.8438C20.9136 11.8267 21.0234 11.8259 21.1599 11.8408C21.2958 11.8557 21.4547 11.8854 21.6277 11.9248C21.9737 12.0036 22.3745 12.122 22.7615 12.2412C23.1472 12.36 23.5206 12.4801 23.8103 12.5625C23.9552 12.6037 24.0816 12.6364 24.1785 12.6543C24.2266 12.6632 24.2695 12.6688 24.3044 12.6699C24.3367 12.6709 24.3725 12.6679 24.3992 12.6523L24.406 12.6484L24.4119 12.6416C24.6549 12.3561 24.8774 12.0442 25.0974 11.7324C25.3179 11.4199 25.5365 11.1077 25.7732 10.8193C26.2461 10.243 26.788 9.7666 27.5544 9.58008L27.5886 9.57129L27.5925 9.53613C28.0673 5.24058 31.2459 1.46801 35.4558 0.422852H35.4568C35.9787 0.291069 36.7389 0.136787 37.322 0.0761719L37.5603 0.0556641H38.613L38.614 0.0507812ZM44.4412 19.0674C44.0922 19.2285 43.7671 19.4262 43.4451 19.623C43.193 19.7771 42.9426 19.9305 42.6804 20.0654L42.4138 20.1934C41.0924 20.77 39.7157 21.0469 38.2771 21.1553L38.2185 21.1592L38.2322 21.2168C38.8219 23.6791 40.6909 25.0673 42.3142 25.042C43.1273 25.0293 43.8765 24.661 44.365 23.8984C44.822 23.1848 45.0482 22.1306 44.8923 20.709L44.8562 20.4189C44.7954 19.9697 44.6488 19.5155 44.5476 19.0811L44.5144 19.0889L44.5046 19.042H44.4353L44.4412 19.0674ZM46.0789 13.4102C48.2403 7.04708 42.7207 0.939351 36.1824 2.34766C32.805 3.07658 30.3587 5.80357 29.7214 9.14746C29.6755 9.39221 29.6602 9.74035 29.6326 10.0664C29.6187 10.2307 29.6012 10.3904 29.5759 10.5322C29.5505 10.6747 29.5174 10.7962 29.4724 10.8848C29.3204 11.1803 28.9883 11.3128 28.615 11.4219C28.4321 11.4753 28.2373 11.5238 28.0623 11.583C27.8864 11.6425 27.7219 11.716 27.5955 11.8232C27.2907 12.0818 26.9651 12.5358 26.6433 12.999C26.3192 13.4655 25.9974 13.9424 25.696 14.2588C25.6622 14.2941 25.6247 14.3366 25.5857 14.3799C25.5465 14.4233 25.5052 14.4683 25.4636 14.5117C25.3795 14.5996 25.2969 14.6756 25.2263 14.7139C25.0265 14.8159 24.7553 14.8359 24.4392 14.8018C24.1242 14.7677 23.771 14.6803 23.4128 14.5742C23.0546 14.4681 22.6938 14.3446 22.3611 14.2373C22.0299 14.1305 21.7255 14.0398 21.4841 14.0029L21.4753 14.002L21.4675 14.0029C21.4396 14.0081 21.4113 14.0274 21.3875 14.0469C21.3617 14.068 21.3325 14.0967 21.3005 14.1309C21.2361 14.1998 21.157 14.296 21.0681 14.4092C20.8904 14.6355 20.6697 14.9365 20.4412 15.2441C20.2122 15.5524 19.9752 15.868 19.7634 16.125C19.6576 16.2535 19.5585 16.3668 19.4705 16.457C19.3817 16.548 19.306 16.6123 19.2478 16.6465V16.6475C19.0253 16.7801 18.7488 16.8125 18.4373 16.7822C18.1257 16.7519 17.7838 16.6594 17.4353 16.5469C17.2613 16.4907 17.0864 16.4293 16.9128 16.3691C16.7396 16.309 16.5678 16.2493 16.4011 16.1963C16.0684 16.0906 15.7512 16.0093 15.4783 16L15.4763 16.0498L15.4783 15.998L15.4656 16.001C15.4325 16.0086 15.3984 16.0268 15.365 16.0498C15.331 16.0733 15.2937 16.1043 15.2556 16.1406C15.1796 16.2132 15.0937 16.3115 15.0007 16.4258C14.8144 16.6549 14.5961 16.9549 14.3728 17.2607C14.1489 17.5673 13.9189 17.88 13.7068 18.1367C13.4929 18.3955 13.3031 18.5903 13.1589 18.668C12.8724 18.8217 12.5395 18.777 12.1707 18.6328C11.8011 18.4883 11.4102 18.2508 11.0105 18.0361C10.6147 17.8235 10.2106 17.6337 9.82495 17.5967C9.43394 17.5593 9.06406 17.679 8.7439 18.0771L8.73804 18.084L8.73511 18.0928L7.65405 21.3945L7.63745 21.4482L7.69214 21.459L10.1423 21.9658L10.156 21.9688L10.1677 21.9648L30.4519 15.3457C30.6339 15.3337 30.8126 15.3921 30.989 15.499C31.1663 15.6065 31.3391 15.7611 31.5076 15.9355C31.6761 16.11 31.8382 16.3021 31.9958 16.4844C32.1527 16.6657 32.3053 16.838 32.4529 16.9688H32.4539C35.5316 19.658 40.4004 19.8236 43.4871 17.0713L43.5242 17.0391L43.4919 17.002C42.6108 15.9749 41.431 15.1897 40.0916 14.873C39.3872 14.7084 38.7694 14.7502 38.1628 14.751C37.5554 14.7517 36.9527 14.7119 36.2625 14.3877V14.3867C32.7556 12.7466 33.2814 7.44429 37.0437 6.54395C40.8069 5.64361 43.7246 9.93148 41.4041 13.1475L41.3787 13.1826L41.4089 13.2119L41.4148 13.2188L41.4246 13.2285L41.4382 13.2314C42.7524 13.5661 43.8911 14.4874 44.8494 15.4336L44.8601 15.4434L44.8738 15.4473C44.9354 15.4613 44.9958 15.4252 45.0457 15.3818C45.0985 15.3358 45.1545 15.2676 45.2117 15.1865C45.3264 15.0238 45.4523 14.7987 45.571 14.5635C45.8086 14.0928 46.0236 13.5729 46.0789 13.4102ZM39.7966 9.29785C39.3271 8.66984 38.4818 8.31402 37.5105 8.51074L37.4705 8.51855V8.52637C37.2566 8.57987 37.0055 8.72165 36.782 8.89355C36.6033 9.03104 36.4375 9.19049 36.3181 9.34375L36.2156 9.49414C35.8726 10.1017 35.834 10.6941 35.9949 11.2031C36.1555 11.7111 36.5135 12.1335 36.9587 12.4043C37.404 12.6751 37.9391 12.7958 38.4548 12.6992C38.9072 12.6145 39.3415 12.3629 39.6853 11.9033L39.8269 11.6943C40.3561 10.8236 40.2666 9.92685 39.7966 9.29785Z" fill="#821A52" stroke="#EFDFDF" stroke-width="0.1"/>
<path d="M2.39648 25.5244C3.60229 25.1921 5.06235 25.2686 6.2793 25.3652C7.57643 25.4669 8.83382 26.1653 9.24805 27.4316L9.29785 27.4229L9.30469 27.459C9.72728 27.383 10.1465 27.2617 10.5645 27.1357C10.9832 27.0095 11.4009 26.8783 11.8242 26.7822L11.8232 26.7812C16.307 25.7822 20.5121 26.5416 24.2666 29.1709C24.8 29.5446 25.2481 29.9404 25.7295 30.3115C26.2089 30.6811 26.7155 31.0216 27.3555 31.2715C28.6492 31.7756 29.9122 31.8882 31.168 31.9268C32.4256 31.9653 33.672 31.9294 34.9473 32.1309C36.5601 32.3822 37.3773 33.1995 37.5195 34.166C37.6624 35.1377 37.1278 36.2835 35.9863 37.1973C34.9205 38.0505 33.4354 38.6129 31.8809 38.9297C30.3268 39.2464 28.7079 39.3167 27.3789 39.1904C26.7588 39.1305 26.1513 38.9724 25.54 38.8145C25.0066 38.6766 24.4702 38.5394 23.9248 38.4727L23.6904 38.4482H23.6855C23.6695 38.4482 23.6354 38.4446 23.5869 38.4414C23.5409 38.4384 23.4853 38.4362 23.4365 38.4395C23.4123 38.4411 23.3879 38.4443 23.3662 38.4502C23.3455 38.4558 23.3206 38.4653 23.3027 38.4844C23.2819 38.5067 23.2753 38.5364 23.2832 38.5664C23.2901 38.5925 23.3074 38.6173 23.3291 38.6406L23.3369 38.6484L23.3467 38.6533C24.2307 39.0244 25.309 39.475 26.4062 39.8184C27.5027 40.1614 28.6231 40.3986 29.5918 40.3408C31.9365 40.2047 34.3438 39.61 36.7305 38.9551C39.1189 38.2996 41.4864 37.5839 43.7588 37.2012C45.5249 36.9059 47.3194 36.9538 48.4238 38.5332C49.0727 39.4636 49.1076 40.2774 48.7686 40.9902C48.427 41.7082 47.7019 42.332 46.8125 42.8672C45.0342 43.9372 42.63 44.6366 41.4346 45.0361C36.0853 46.8251 29.111 48.5551 23.3945 48.1904L22.8457 48.1484L22.3887 48.1006C20.1186 47.8292 18.0128 47.0586 15.9453 46.1602C13.7424 45.2029 11.5782 44.0981 9.3125 43.3096L9.26367 43.293L9.24805 43.3418C8.82173 44.6502 7.61882 45.3064 6.2793 45.4141C5.08637 45.5077 3.67605 45.5879 2.49023 45.2832C1.89811 45.131 1.36431 44.8839 0.942383 44.4961C0.521623 44.1094 0.210213 43.5805 0.0625 42.8613L0.0498047 28.1162C0.151169 27.3504 0.438838 26.786 0.848633 26.3721C1.25895 25.9577 1.79458 25.6903 2.39648 25.5244ZM22.2754 30.2949C19.7669 28.7596 17.0716 28.2194 14.1377 28.4629L14.1318 28.4561L14.1084 28.458C13.5169 28.5081 12.8852 28.6201 12.2822 28.7568L11.6914 28.9004C11.5177 28.9461 10.9854 29.1085 10.4873 29.2861C10.2382 29.375 9.99603 29.4678 9.81152 29.5527C9.71953 29.5951 9.64018 29.6359 9.58105 29.6738C9.55152 29.6928 9.526 29.7126 9.50586 29.7314C9.48669 29.7494 9.46846 29.7708 9.45996 29.7959L9.45703 29.8037V40.9834L9.47363 40.998L9.69727 41.1973L9.7041 41.2041L9.71387 41.207C11.9112 41.9666 14.1029 43.1292 16.3457 44.1406C18.5854 45.1507 20.8725 46.008 23.248 46.1475C26.2817 46.3229 30.4598 45.8176 34.5566 44.9238C38.6535 44.03 42.675 42.7463 45.3965 41.3613C45.672 41.2206 46.1376 40.9941 46.4648 40.7061C46.6284 40.562 46.7622 40.3979 46.8184 40.2168C46.8754 40.0324 46.8502 39.8356 46.7061 39.6338C46.4221 39.2365 45.9954 39.1002 45.5498 39.0771C45.1057 39.0542 44.6326 39.1432 44.249 39.2031C42.7582 39.439 41.1833 39.8505 39.6035 40.2812C38.0227 40.7123 36.437 41.163 34.9209 41.4795C33.972 41.6759 32.6265 41.9813 31.292 42.1885C29.9557 42.396 28.6393 42.5035 27.7471 42.3066C27.0551 42.1562 25.8375 41.8197 24.665 41.4121C24.079 41.2084 23.5048 40.9875 23.0137 40.7627C22.5215 40.5374 22.1163 40.3098 21.8652 40.0957C21.3073 39.6178 20.9682 38.9428 20.9541 38.3057C20.9402 37.6717 21.2473 37.071 21.9922 36.7324C22.9404 36.2985 23.9026 36.3686 24.873 36.5693C25.3589 36.6698 25.8432 36.8022 26.3301 36.9199C26.8156 37.0373 27.3023 37.1397 27.7861 37.1777C28.7504 37.2535 29.9564 37.2008 31.1357 36.9941C32.3145 36.7876 33.4712 36.4267 34.3359 35.8848C34.596 35.7215 34.8811 35.5266 35.0967 35.2832C35.313 35.0389 35.4621 34.7424 35.4463 34.3789L35.4443 34.3398L35.4053 34.332C34.0729 34.0686 32.763 34.0397 31.458 33.9824C30.1515 33.9251 28.8484 33.8394 27.5205 33.4639C26.3268 33.1279 25.508 32.6367 24.7422 32.0791C24.0733 31.5921 23.4386 31.0497 22.6318 30.5205L22.2754 30.2949ZM6.59277 27.4873C6.01951 27.3989 5.3414 27.425 4.66309 27.4619C3.99998 27.498 3.33671 27.5432 2.75977 27.5068V27.458L2.68359 27.5059C2.4097 27.6777 2.14477 27.9401 2.07422 28.2744L2.05664 28.4219V28.4238L2.08105 42.5361H2.08008L2.08203 42.5469C2.11195 42.6832 2.22168 42.8559 2.35156 42.998C2.41709 43.0697 2.48929 43.136 2.5625 43.1875C2.63531 43.2387 2.7121 43.278 2.78516 43.292C2.89876 43.3141 3.17392 43.3286 3.52344 43.3379C3.8752 43.3472 4.30773 43.3515 4.73926 43.3496C5.17082 43.3477 5.6026 43.3397 5.95215 43.3271C6.2991 43.3147 6.57124 43.2972 6.68066 43.2734C6.90598 43.2244 7.08169 43.0668 7.20605 42.876C7.33047 42.685 7.40661 42.4559 7.43164 42.2529H7.43262V42.2461L7.4082 28.3447V28.3369L7.40527 28.3281C7.26593 27.9404 7.06995 27.5647 6.59375 27.4873H6.59277Z" fill="#821A52" stroke="#EFDFDF" stroke-width="0.1"/>
</svg>
