<svg width="48" height="48" viewBox="0 0 48 48" fill="none" xmlns="http://www.w3.org/2000/svg">
<path d="M13.0532 22.8892C13.2276 22.9085 13.392 22.987 13.5522 23.1069C13.7128 23.2272 13.865 23.3864 14.0161 23.561C14.0915 23.6481 14.1663 23.7382 14.2407 23.8286C14.3147 23.9185 14.3889 24.0089 14.4634 24.0952V24.0962C15.2455 24.9978 16.4239 26.6124 17.6382 28.1353C18.2433 28.8941 18.8564 29.6283 19.4292 30.2329C20.0001 30.8355 20.5385 31.3175 20.9946 31.564C21.805 32.0001 22.9093 32.2144 24.0063 32.2144C25.1034 32.2143 26.2078 32.0001 27.0181 31.564C27.4742 31.3174 28.0126 30.8356 28.5835 30.2329C29.1563 29.6282 29.7693 28.8942 30.3745 28.1353C31.437 26.8027 32.4708 25.3992 33.2368 24.4653L33.5483 24.0962C33.621 24.0126 33.6935 23.925 33.7651 23.8384C33.8369 23.7515 33.9086 23.6654 33.981 23.5815C34.1261 23.4134 34.2717 23.2589 34.4263 23.1392C34.5806 23.0196 34.74 22.9365 34.9106 22.9067C35.0375 22.8846 35.1753 22.8912 35.3276 22.938L35.4858 22.9995C35.4937 23.0034 35.5138 23.0157 35.5483 23.0425C35.5818 23.0684 35.6236 23.1035 35.6733 23.147C35.7729 23.234 35.9009 23.3518 36.0474 23.4917C36.3403 23.7715 36.7071 24.1363 37.0728 24.5093C37.4384 24.8823 37.803 25.2632 38.0923 25.5747C38.384 25.8888 38.592 26.1254 38.6528 26.2153C38.8698 26.5417 38.9542 26.8225 38.939 27.0952C38.9236 27.3694 38.8059 27.6491 38.5942 27.9741L30.605 37.8745L30.5874 37.896L30.5835 37.9243C30.3038 40.0593 30.1914 42.2354 30.1753 44.3921V44.4028L30.1772 44.4126C30.242 44.7342 30.4459 44.9586 30.7163 45.1108C30.9842 45.2617 31.3217 45.3445 31.6694 45.3872C32.3653 45.4727 33.1346 45.401 33.5532 45.356C34.4164 45.2631 35.356 44.7626 35.8198 43.8755H35.8208C36.0702 43.394 36.1969 42.7365 36.2563 41.9966C36.3159 41.2547 36.3076 40.4189 36.2798 39.5737C36.2518 38.7241 36.2048 37.8736 36.1841 37.0835C36.1634 36.2957 36.1703 35.5835 36.2495 35.0239C36.3385 34.4022 36.8292 34.0679 37.3237 34.0854C37.8121 34.103 38.3256 34.4681 38.438 35.3052C38.5494 36.1274 38.5879 37.9844 38.5356 39.8296C38.5095 40.7509 38.4608 41.6667 38.3882 42.4458C38.3243 43.1302 38.2427 43.7029 38.1431 44.0806L38.0991 44.23C37.4093 46.3558 35.5608 47.6753 33.5913 47.8696L33.5415 47.8745H31.187C30.4915 47.7188 29.9952 47.5919 29.4595 47.187L29.2261 46.9937L29.0444 46.8237C28.1797 45.9568 27.8935 44.8578 27.9233 43.519C27.9713 41.344 28.2463 39.0808 28.4556 36.9321L36.1694 27.2603L36.2192 27.1978L36.1694 27.1353L35.2407 25.978L35.1636 25.8813L35.0854 25.9761L29.7729 32.4155C28.4397 33.8265 26.469 34.5773 24.4604 34.6753C22.4531 34.7732 20.4203 34.2183 18.9624 33.0327C17.8792 31.9641 16.8952 30.7738 15.9214 29.562C14.9476 28.3502 13.9828 27.116 12.9448 25.9673L12.8706 25.8853L12.7964 25.9673L11.8628 26.9985L11.8501 27.0132L11.8442 27.0298C11.8289 27.0697 11.8307 27.1112 11.8364 27.1431C11.8424 27.1762 11.8541 27.2102 11.8677 27.2427C11.8951 27.308 11.9369 27.38 11.98 27.4478C12.0655 27.5824 12.1676 27.7151 12.2104 27.772V27.7729C13.3825 29.3662 14.6924 30.8828 15.9829 32.4106C17.2686 33.9327 18.5355 35.4676 19.6392 37.1069C19.6908 38.1653 19.799 39.2368 19.8979 40.3042C19.9979 41.3824 20.0889 42.4575 20.105 43.5181C20.1315 44.9762 19.7818 46.1666 18.7397 47.0464C18.1193 47.5725 17.6115 47.6955 16.8423 47.8735C16.4464 47.8477 16.0344 47.8681 15.6313 47.8843C15.2204 47.9008 14.8179 47.9136 14.437 47.8755H14.436C12.9838 47.731 11.8162 47.0891 10.9858 46.0864C10.2063 45.145 9.72018 43.8804 9.58154 42.3999L9.55811 42.1011C9.51804 41.4349 9.47657 39.8967 9.48193 38.3921C9.48461 37.64 9.49869 36.897 9.53076 36.2769C9.56301 35.6535 9.61281 35.164 9.68311 34.9106L9.68408 34.9097C9.83899 34.3459 10.2484 34.0848 10.6655 34.0806C11.0824 34.0765 11.5194 34.3295 11.7349 34.8286L11.7944 42.606V42.6128L11.7954 42.6206C12.0046 43.9867 12.717 44.7454 13.6411 45.1226C14.5564 45.496 15.6702 45.4915 16.687 45.3618C16.9966 45.3228 17.2344 45.2354 17.4136 45.1011C17.5937 44.966 17.7075 44.7894 17.7778 44.5854C17.8476 44.3833 17.8746 44.1531 17.8833 43.9087C17.892 43.6645 17.8825 43.3986 17.8745 43.1245C17.8503 42.272 17.7752 41.4122 17.6968 40.5552C17.6182 39.6972 17.536 38.8417 17.4985 37.9927L17.4976 37.9604L17.4771 37.9341L9.36865 27.9019C9.19571 27.6118 9.09392 27.3492 9.07666 27.0913C9.05949 26.8335 9.12585 26.57 9.30713 26.2788C9.33343 26.2366 9.39621 26.1573 9.4917 26.0454C9.58585 25.9351 9.70792 25.7975 9.84912 25.6431C10.1314 25.3343 10.4891 24.9569 10.8501 24.5854C11.2109 24.2141 11.5752 23.8496 11.8706 23.5649C12.0184 23.4226 12.1487 23.3007 12.2524 23.2085C12.3591 23.1138 12.4305 23.0562 12.4644 23.0366H12.4653C12.6871 22.9078 12.8803 22.87 13.0532 22.8892Z" fill="#821A52" stroke="#EFDFDF" stroke-width="0.2"/>
<path d="M7.49609 6.22998C7.65355 6.17029 7.8168 6.16042 7.99902 6.21924C8.18189 6.27828 8.38899 6.40781 8.62988 6.63525C9.58123 8.06754 10.6877 9.43591 11.7881 10.7974C12.8919 12.163 13.9902 13.5217 14.9287 14.936C15.3516 15.5745 15.4503 16.0381 15.3691 16.3706C15.2888 16.6993 15.0241 16.9328 14.6387 17.0913C14.2535 17.2497 13.7639 17.3264 13.2705 17.3501C12.7783 17.3737 12.2885 17.3443 11.9072 17.2954L11.7949 17.2808V19.8921C11.7938 19.8949 11.7923 19.8987 11.79 19.9038C11.7832 19.9194 11.7733 19.9415 11.7598 19.9683C11.7329 20.0216 11.6957 20.0907 11.6562 20.1616C11.6168 20.2325 11.5757 20.3047 11.54 20.3638C11.5036 20.4241 11.4761 20.464 11.4639 20.479C11.1913 20.7766 10.8396 20.8626 10.5176 20.7837C10.1929 20.704 9.89111 20.4549 9.7334 20.0688H9.73438C9.67222 19.9119 9.62065 19.5931 9.58594 19.1782C9.55161 18.7679 9.53452 18.2767 9.53418 17.7847C9.53385 17.2925 9.55079 16.8005 9.58496 16.3901C9.61953 15.9751 9.67013 15.656 9.7334 15.4995H9.73438C9.83556 15.2475 9.95353 15.0895 10.0811 14.9878C10.2084 14.8864 10.3527 14.8347 10.5156 14.8081C10.6813 14.781 10.8597 14.7801 11.0586 14.7759C11.2544 14.7717 11.4662 14.7641 11.6836 14.7202L11.8398 14.689L11.7432 14.562L7.875 9.46826L7.79688 9.36475L7.7168 9.46729L3.73535 14.561L3.61816 14.7114L3.80859 14.7222C4.0773 14.7375 4.32955 14.7417 4.57129 14.7632C4.81074 14.7845 5.02654 14.8225 5.21191 14.8989C5.39514 14.9745 5.54893 15.0886 5.66699 15.2661C5.78601 15.4451 5.87271 15.6948 5.90918 16.0483V43.9165C5.92439 44.3076 6.01781 44.711 6.11816 45.1011C6.21952 45.4951 6.32666 45.8738 6.37695 46.23C6.42707 46.585 6.41819 46.9036 6.29688 47.1782C6.17853 47.4458 5.94751 47.6855 5.52637 47.8745H5.22656C4.86685 47.6434 4.63128 47.588 4.42676 47.2749L4.33887 47.1196C4.28975 47.0175 4.22322 46.8139 4.15039 46.5503C4.07804 46.2884 4.0008 45.9749 3.93066 45.6597C3.86051 45.3444 3.79772 45.0278 3.75195 44.7612C3.70575 44.4922 3.67871 44.2807 3.67871 44.1704V17.2944H1.09473C0.896336 17.2944 0.684139 17.1514 0.495117 16.9263C0.311941 16.708 0.169293 16.433 0.0996094 16.2104V15.7446C0.215255 15.5733 0.32415 15.3962 0.431641 15.2212C0.54505 15.0366 0.656868 14.8534 0.77832 14.6792L0.779297 14.6802C2.43663 12.317 4.65028 9.29041 6.4873 7.13428V7.1333C6.67252 6.91568 6.84281 6.72063 7.00977 6.56299C7.17688 6.40524 7.33579 6.29083 7.49609 6.22998Z" fill="#821A52" stroke="#EFDFDF" stroke-width="0.2"/>
<path d="M40.043 6.21924C40.226 6.16037 40.3895 6.17031 40.5469 6.22998C40.7072 6.2908 40.8658 6.40526 41.0322 6.56299C41.1985 6.7206 41.3679 6.91569 41.5518 7.1333C42.6215 8.38941 43.6315 9.79194 44.6396 11.2065C45.6468 12.6199 46.6524 14.0464 47.709 15.3452C47.9562 15.6657 47.9479 16.1494 47.7715 16.5669C47.5932 16.9885 47.2682 17.2884 46.9395 17.2886H44.3555V44.1646C44.3555 44.2749 44.329 44.4864 44.2832 44.7554C44.2378 45.0219 44.1743 45.3386 44.1045 45.6538C44.0347 45.9689 43.9583 46.2827 43.8857 46.5444C43.8125 46.8087 43.7455 47.0123 43.6953 47.1138L43.6943 47.1147C43.4686 47.5754 43.2229 47.6109 42.8076 47.8687H42.6162C42.1622 47.6945 41.9078 47.4672 41.7734 47.2085C41.6351 46.9422 41.6151 46.6279 41.6592 46.2729C41.7034 45.917 41.8097 45.5346 41.9131 45.1333C42.0156 44.7358 42.115 44.3217 42.1357 43.9175V16.0386C42.1715 15.6885 42.2573 15.4403 42.375 15.2622C42.4928 15.084 42.6469 14.9696 42.8301 14.894C43.0153 14.8177 43.2308 14.7808 43.4697 14.7603C43.7108 14.7395 43.9625 14.7359 44.2295 14.7222L44.4219 14.7124L44.3037 14.561L40.3223 9.46729L40.2422 9.36475L40.1641 9.46826L36.2959 14.562L36.1992 14.689L36.3555 14.7202C36.5728 14.7641 36.7841 14.7712 36.9795 14.7749C37.178 14.7786 37.3562 14.7794 37.5215 14.8062C37.6839 14.8324 37.8276 14.8833 37.9551 14.9849C38.083 15.0868 38.2021 15.2458 38.3047 15.4995C38.3681 15.6577 38.4195 15.9782 38.4541 16.394C38.4883 16.805 38.5052 17.2966 38.5049 17.7886C38.5045 18.2806 38.4874 18.7716 38.4531 19.1812C38.4184 19.5956 38.3668 19.9137 38.3047 20.0688C38.1496 20.4576 37.8487 20.7067 37.5234 20.7856C37.1999 20.8641 36.8452 20.7768 36.5723 20.4771L36.5703 20.4751L36.4971 20.3657C36.4614 20.3079 36.4199 20.2371 36.3809 20.1665C36.3419 20.096 36.3057 20.0269 36.2793 19.9731C36.266 19.9461 36.2557 19.9237 36.249 19.9077C36.2465 19.9017 36.2452 19.897 36.2441 19.894V17.2798L36.1318 17.2954C35.7508 17.3457 35.2607 17.3754 34.7686 17.3521C34.2753 17.3287 33.7856 17.252 33.4004 17.0933C33.0151 16.9344 32.7503 16.7008 32.6699 16.3716C32.5887 16.0386 32.6875 15.5746 33.1104 14.936C34.0489 13.5217 35.1472 12.163 36.251 10.7974C37.3507 9.43677 38.4553 8.06851 39.4062 6.63721C39.6495 6.40835 39.8588 6.27852 40.043 6.21924Z" fill="#821A52" stroke="#EFDFDF" stroke-width="0.2"/>
<path d="M24.0256 0.0996094C24.1823 0.0996882 24.3494 0.168843 24.554 0.329102C24.7592 0.489905 24.9927 0.734506 25.2805 1.06836C26.3635 2.32421 27.3804 3.74108 28.3967 5.1709C29.4109 6.59773 30.4237 8.03869 31.4983 9.33691H31.4993C31.7328 9.65107 31.699 10.1197 31.5022 10.5273C31.4051 10.7284 31.2718 10.906 31.1233 11.0322C30.974 11.1591 30.8158 11.2285 30.6672 11.2285H28.0784V18.8604C28.0771 18.864 28.0759 18.8701 28.0725 18.8779C28.0647 18.896 28.0526 18.9208 28.0374 18.9512C28.0068 19.012 27.9649 19.0908 27.9202 19.1709C27.8754 19.251 27.8279 19.3319 27.7874 19.3975L27.7034 19.5215C27.5057 19.7299 27.2994 19.8339 27.1038 19.8623C26.9079 19.8906 26.7127 19.8446 26.5354 19.7373C26.1788 19.5213 25.8958 19.0582 25.8469 18.4902V18.4893C25.7269 17.1134 25.7639 15.6104 25.8196 14.0947C25.875 12.585 25.9493 11.0618 25.9016 9.65039C25.962 9.37383 26.0662 9.18427 26.1956 9.05176C26.3272 8.91694 26.492 8.83441 26.6799 8.78223C26.869 8.72977 27.0786 8.70895 27.2981 8.69629C27.5136 8.68386 27.7447 8.67907 27.9583 8.65625L28.134 8.6377L28.0266 8.49609L24.1584 3.39648L24.0803 3.29297L24.0002 3.39551L20.0188 8.49512L19.9094 8.63574L20.0872 8.65625C20.3011 8.6806 20.531 8.6865 20.7463 8.69922C20.9655 8.71217 21.1748 8.73208 21.3635 8.78418C21.551 8.83597 21.7151 8.91853 21.8469 9.05273C21.9768 9.18507 22.0812 9.37496 22.1428 9.65234C22.0953 11.0631 22.1704 12.5845 22.2258 14.0928C22.2815 15.6076 22.3185 17.1105 22.1985 18.4893V18.4902C22.1519 19.0306 21.9196 19.4829 21.6018 19.7148C21.4442 19.8299 21.2655 19.8909 21.0745 19.8848C20.8831 19.8786 20.6711 19.805 20.4485 19.6367C20.4167 19.6127 20.369 19.5641 20.3137 19.4961C20.2597 19.4296 20.2025 19.3489 20.1497 19.2666C20.0967 19.1842 20.0491 19.1017 20.0159 19.0293C19.9807 18.9528 19.967 18.9007 19.967 18.876V11.2285H17.3831C17.2345 11.2284 17.0761 11.1595 16.927 11.0332C16.7785 10.9074 16.6451 10.7299 16.5481 10.5293C16.3761 10.1735 16.3283 9.76978 16.4758 9.46191L16.552 9.33594C17.6238 8.0378 18.6365 6.59761 19.6506 5.1709C20.6669 3.7412 21.6852 2.32411 22.7708 1.06836C23.0585 0.734643 23.2912 0.489863 23.4963 0.329102C23.7012 0.168601 23.8688 0.0996094 24.0256 0.0996094Z" fill="#821A52" stroke="#EFDFDF" stroke-width="0.2"/>
<path d="M23.3169 22.0415C24.8061 21.799 25.9395 22.2397 26.7202 23.0308C27.504 23.8251 27.9402 24.9805 28.0132 26.1753C28.0861 27.37 27.7952 28.5926 27.1392 29.5181C26.4852 30.4405 25.4658 31.0713 24.0669 31.0874C22.8254 31.1019 21.8678 30.595 21.1987 29.814C20.5278 29.0306 20.1448 27.9684 20.0669 26.8755C19.9106 24.683 20.9771 22.4231 23.3169 22.0415ZM25.1206 24.8618C24.7317 24.5378 24.1881 24.3928 23.5044 24.5503C22.9785 24.6721 22.6211 25.0132 22.4194 25.4438C22.2189 25.8722 22.1713 26.3902 22.2563 26.8774C22.3414 27.3643 22.5607 27.8306 22.9048 28.1538C23.2517 28.4796 23.7225 28.6566 24.2935 28.563C25.447 28.3737 25.9288 27.1968 25.7964 26.1831C25.7296 25.6717 25.5065 25.1832 25.1206 24.8618Z" fill="#821A52" stroke="#EFDFDF" stroke-width="0.2"/>
</svg>
