<svg width="73" height="72" viewBox="0 0 73 72" fill="none" xmlns="http://www.w3.org/2000/svg">
<g clip-path="url(#clip0_483_5501)">
<path d="M35.1207 71.9797C33.1807 71.7297 31.3007 70.1297 30.3807 68.4597H1.59073C0.750732 68.4397 0.220732 67.9597 0.120732 67.1297C-0.0292685 65.8997 -0.0492685 61.7197 0.130732 60.5297C0.310732 59.3397 1.50073 59.3797 1.54073 59.2397C1.77073 57.8797 0.830732 54.1397 2.51073 53.6297C3.12073 53.4397 4.03073 53.6297 4.70073 53.5697C10.9207 53.0397 13.9507 50.4697 19.3907 48.8597C26.1707 46.8497 32.1107 48.8497 35.9707 54.7397L36.2607 54.8297C39.0207 50.3197 43.7407 47.6897 49.1207 48.0897C53.9407 48.4497 57.9607 51.4397 62.5207 52.6897C64.9507 53.3597 67.3107 53.5497 69.8207 53.6797C70.0007 53.7497 70.3807 54.1097 70.4807 54.2797C71.0407 55.1797 70.5207 58.0697 70.6907 59.2497C71.3907 59.4797 71.7507 59.6497 72.1007 60.3197V67.4897C71.7507 68.0597 71.4907 68.3897 70.7707 68.4797H41.8407C40.8007 70.3197 39.1807 71.5397 37.1007 71.9897C36.4707 71.9297 35.7407 72.0697 35.1307 71.9897L35.1207 71.9797ZM34.7007 60.0297V57.8497C34.7007 57.0997 31.1907 53.4597 30.3907 52.8797C23.3607 47.8497 17.0307 53.6697 10.2707 55.4897C8.34073 56.0097 6.33073 56.3097 4.34073 56.3697V59.3197H32.5307C33.0507 59.3197 34.1707 59.8397 34.7107 60.0197L34.7007 60.0297ZM67.8807 56.3797C65.8807 56.3197 63.8707 56.0197 61.9507 55.4997C55.1907 53.6797 48.8607 47.8597 41.8307 52.8897C41.0307 53.4597 37.5207 57.1097 37.5207 57.8597V60.0397C38.0607 59.8597 39.1807 59.3397 39.7007 59.3397H67.8907V56.3897L67.8807 56.3797ZM69.2907 62.1397H40.2607C39.7007 62.1397 38.3707 62.7797 37.9407 63.1997C37.3907 63.7397 37.0907 64.8197 36.0607 64.7697C35.0307 64.7197 34.8307 63.7397 34.2807 63.1997C33.8607 62.7797 32.5307 62.1397 31.9607 62.1397H2.93073V65.6497H31.8207C32.4407 65.6497 32.8107 66.9997 33.0407 67.3797C34.1907 69.3097 36.9107 69.7597 38.5707 68.1697C39.1207 67.6397 39.7307 65.6397 40.4007 65.6397H69.2907V62.1297V62.1397Z" fill="#821A52"/>
<path d="M34.5307 0.0703396C47.2307 -1.05966 55.9307 12.4503 49.3807 23.4903C47.8807 26.0203 44.7707 28.6803 44.5407 31.7203C44.3107 34.7603 44.7907 38.1203 44.4807 41.2103C44.3807 41.4703 44.2307 41.6903 44.0607 41.9103C43.6307 42.4603 42.0107 44.0803 41.4607 44.5103C41.1807 44.7203 40.8907 44.9303 40.5307 44.9903C37.9207 45.3903 34.3007 44.7303 31.5707 44.9703C31.2607 44.8803 31.0107 44.7103 30.7607 44.5103C30.2807 44.1403 28.3407 42.2203 28.0307 41.7603C27.8307 41.4703 27.7107 41.2203 27.6707 40.8603C27.3307 38.0603 27.9107 34.6003 27.6707 31.7203C27.4307 28.6703 24.1707 25.8303 22.6707 23.2303C17.1507 13.5803 23.4507 1.05034 34.5307 0.0703396ZM37.5107 30.9403H41.6607C41.9307 30.4403 41.9707 29.8203 42.1907 29.2203C43.3207 26.1003 46.2807 23.7103 47.6207 20.7303C50.6407 14.0103 47.2707 5.88034 40.2607 3.53034C30.1807 0.150339 20.7307 9.70034 24.1907 19.7303C25.5807 23.7403 29.6807 26.4003 30.3707 30.7003L30.5607 30.9403H34.7107V18.9203C33.9107 17.8603 30.8407 16.0403 32.2607 14.5003C33.8107 12.8103 35.6507 16.2603 36.1707 16.1703C37.0907 15.3903 38.6507 13.0603 39.9807 14.5003C41.4007 16.0403 38.3407 17.8503 37.5307 18.9203V30.9403H37.5107ZM41.7307 33.7503H30.4807V36.5603H41.7307V33.7503ZM41.7307 39.3703H30.4807C30.4607 39.7203 30.4307 39.9703 30.6107 40.2903C30.6707 40.4003 32.2607 41.9803 32.3707 42.0503C33.2707 42.5703 38.3107 41.9603 39.6607 42.1503C40.0807 41.7503 42.3007 39.9503 41.7307 39.3703Z" fill="#821A52"/>
<path d="M15.9706 2.43969C16.3806 2.39969 19.2306 3.95969 19.5306 4.29969C20.4006 5.28969 19.5806 6.97969 18.1506 6.66969C17.6806 6.56969 15.1406 5.08969 14.8806 4.71969C14.1906 3.73969 14.8206 2.53969 15.9706 2.42969V2.43969Z" fill="#821A52"/>
<path d="M18.3603 24.2201C19.6403 24.1001 20.3303 25.7401 19.5303 26.6601C19.3303 26.8901 16.6003 28.4401 16.3003 28.5001C15.1203 28.7401 14.1003 27.3501 14.8903 26.2301C15.1603 25.8401 17.9003 24.2701 18.3703 24.2201H18.3603Z" fill="#821A52"/>
<path d="M53.6395 24.22C54.1995 24.17 56.8995 25.72 57.2695 26.15C58.1795 27.26 57.1395 28.74 55.9295 28.49C55.6595 28.43 52.8695 26.85 52.6995 26.65C51.9495 25.79 52.4695 24.33 53.6495 24.21L53.6395 24.22Z" fill="#821A52"/>
<path d="M56.0293 2.44009C57.1993 2.32009 58.0793 3.67009 57.3293 4.73009C57.0693 5.09009 54.5293 6.57009 54.0593 6.68009C52.6293 6.99009 51.8093 5.30009 52.6793 4.31009C52.8793 4.09009 55.7493 2.47009 56.0193 2.45009L56.0293 2.44009Z" fill="#821A52"/>
<path d="M12.5893 14.1103C13.1593 14.0003 15.5993 14.0003 16.1493 14.1403C17.5293 14.5003 17.4393 16.6403 15.9293 16.8703C15.3293 16.9603 13.0493 16.9603 12.4893 16.8103C11.1493 16.4603 11.2093 14.3803 12.5993 14.1003L12.5893 14.1103Z" fill="#821A52"/>
<path d="M56.1693 14.1103C56.7393 14.0003 59.1794 14.0003 59.7294 14.1403C61.1094 14.5003 61.0194 16.6403 59.5093 16.8703C58.9093 16.9603 56.6294 16.9603 56.0694 16.8103C54.7294 16.4603 54.7894 14.3803 56.1794 14.1003L56.1693 14.1103Z" fill="#821A52"/>
</g>
<defs>
<clipPath id="clip0_483_5501">
<rect width="72.1" height="72" fill="white"/>
</clipPath>
</defs>
</svg>
