<svg width="90" height="126" viewBox="0 0 90 126" fill="none" xmlns="http://www.w3.org/2000/svg">
<path fill-rule="evenodd" clip-rule="evenodd" d="M0.56013 122.528C0.803523 122.138 2.65319 120.729 4.70692 119.395C9.12535 116.412 12.9499 112.908 17.9537 107.099C22.2518 102.118 23.6111 101.248 24.2273 102.957C24.5308 103.885 24.2578 104.745 22.7921 107.249C21.8131 108.973 19.9823 111.517 18.7375 112.893L16.5098 115.337L18.1856 114.4C27.0471 109.368 39.8864 100.269 47.075 93.932C65.1709 78.0372 80.0158 54.051 84.7968 32.8649C86.8 24.0174 87.0245 15.8403 85.5243 5.63994C84.6202 -0.647972 85.783 -1.14615 87.7187 4.70269C93.5222 22.6466 87.72 47.6249 72.1127 71.3984C62.3795 86.2948 51.3884 97.1355 34.1436 108.862C30.8653 111.059 26.0427 114.099 23.3578 115.574L18.5013 118.275L22.2389 118.747C26.649 119.258 29.8717 121.024 28.7972 122.326C28.6099 122.55 26.1028 122.707 23.191 122.766C19.712 122.799 15.175 123.38 10.0203 124.35C5.68948 125.203 1.75918 125.76 1.3451 125.621C0.45378 125.214 0.0019145 123.443 0.552304 122.53L0.56013 122.528Z" fill="#C42785"/>
</svg>
