<svg width="24" height="24" viewBox="0 0 24 24" fill="none" xmlns="http://www.w3.org/2000/svg">
<path fill-rule="evenodd" clip-rule="evenodd" d="M13.3071 9.14593C13.2467 8.98295 13.2694 8.4125 13.2845 8.19766H8.77623V23.2071C9.1538 23.2071 9.53138 23.2071 9.91651 23.1997C10.1582 23.1997 10.8529 23.1627 11.0417 23.1997C11.2305 23.2367 12.9597 23.1997 13.2996 23.1997C13.3222 22.6663 13.2769 22.044 13.2693 21.5032C13.2542 19.7622 13.292 18.0138 13.2996 16.2728C13.2996 14.3096 13.4053 12.05 16.0332 11.9537C16.592 11.9315 17.1131 12.0278 17.5208 12.2501C17.8606 12.4279 18.1854 12.7909 18.3742 13.1687C18.797 14.0429 18.797 15.1912 18.797 16.2506C18.797 17.9916 18.8423 19.74 18.8272 21.4809C18.8272 22.0218 18.7668 22.6811 18.797 23.2071L23.4941 23.2219C23.5318 22.896 23.5016 16.7544 23.5016 16.2506V13.6651C23.5016 13.3687 23.5318 13.065 23.5167 12.7761C23.4563 11.6278 22.7767 9.909 21.9007 9.12371C21.6137 8.86441 21.2211 8.57548 20.8586 8.39027C20.043 7.96799 19.0764 7.70129 17.989 7.70129C16.6977 7.70129 15.2554 8.19766 14.387 8.97554C13.9716 9.34596 13.7602 9.5608 13.4279 10.0053L13.3071 10.1238V9.13852V9.14593ZM0.91513 23.2367H5.6499C5.60459 22.5848 5.6499 21.7847 5.6499 21.1179C5.6499 20.4141 5.6499 19.7029 5.6499 18.9991C5.6499 18.5102 5.61215 14.8875 5.68011 14.7541C5.6348 14.5393 5.67255 11.9315 5.67255 11.4722C5.67255 10.9314 5.67255 10.3905 5.67255 9.84232C5.67255 9.33114 5.71031 8.69402 5.67255 8.19766L0.922689 8.18284V23.2293L0.91513 23.2367ZM2.96913 0.663294C2.12337 0.781828 1.48149 1.15966 1.10392 1.61898C0.703689 2.10053 0.363882 2.89323 0.477154 3.73779C0.65839 5.14539 1.93458 6.38259 3.60346 6.18257C5.02313 6.01217 6.27669 4.73052 6.06525 3.10066C5.89156 1.73011 4.60025 0.433633 2.96913 0.663294Z" fill="#821A52"/>
</svg>
