<svg width="29" height="35" viewBox="0 0 29 35" fill="none" xmlns="http://www.w3.org/2000/svg">
<path d="M18.1648 12.384C18.1648 14.6293 16.335 16.4496 14.0779 16.4496C11.8208 16.4496 9.99097 14.6293 9.99097 12.384C9.99097 10.1386 11.8208 8.31836 14.0779 8.31836C16.335 8.31836 18.1648 10.1386 18.1648 12.384Z" stroke="#821A52" stroke-width="2"/>
<path d="M24.2499 25.394C26.5296 28.6278 27.6202 30.35 26.9707 31.7362C26.9054 31.8753 26.8291 32.0094 26.7425 32.1376C25.8033 33.5253 23.3758 33.5253 18.5211 33.5253H9.63519C4.7804 33.5253 2.35301 33.5253 1.41377 32.1376C1.32703 32.0094 1.25075 31.8753 1.18562 31.7362C0.536034 30.35 1.62654 28.6278 3.90625 25.394" stroke="#821A52" stroke-width="2" stroke-linecap="round" stroke-linejoin="round"/>
<path d="M16.1344 26.1964C15.583 26.7246 14.8461 27.0199 14.0792 27.0199C13.3122 27.0199 12.5752 26.7246 12.0238 26.1964C6.97466 21.3294 0.208179 15.8923 3.50799 7.99892C5.29216 3.73098 9.57499 1 14.0792 1C18.5833 1 22.8661 3.731 24.6503 7.99892C27.9459 15.8824 21.196 21.3461 16.1344 26.1964Z" stroke="#821A52" stroke-width="2"/>
</svg>
