<svg width="40" height="36" viewBox="0 0 40 36" fill="none" xmlns="http://www.w3.org/2000/svg">
<g clip-path="url(#clip0_806_978)">
<path d="M0.0283014 18.6986C-0.0078062 18.353 -0.0078062 17.6402 0.0283014 17.2946C0.16551 16.0418 1.00321 14.6162 1.942 13.7954C2.15143 13.6154 2.6786 13.3418 2.79414 13.169C3.00357 12.8522 3.29965 11.5346 3.48019 11.0522C4.32511 8.79864 6.44101 5.15544 8.3836 3.71544C11.1856 1.64904 14.8469 5.26344 12.6587 8.13624C11.8788 9.15144 11.0483 9.87144 10.3479 11.045C10.0518 11.5346 9.23574 13.0394 9.17797 13.5434C9.13464 13.8962 9.57515 14.1122 9.78458 14.3786C11.4166 16.409 11.6261 19.0586 10.0879 21.2114C9.90734 21.4634 9.2574 22.0826 9.19963 22.205C9.09131 22.4498 9.55349 23.4362 9.69792 23.7314C10.5139 25.4954 11.46 26.3306 12.601 27.7706C14.6591 30.3698 11.9221 33.8834 8.93244 32.5946C7.17039 31.8386 4.59952 27.605 3.84126 25.8338C3.54518 25.1426 3.07578 23.2418 2.79414 22.8242C2.6786 22.6514 2.11532 22.3418 1.89868 22.1618C0.988764 21.3698 0.158289 19.901 0.0283014 18.6986ZM4.63563 12.5498C5.11947 12.4706 5.66831 12.4274 6.15937 12.4706C6.44101 12.4994 7.69756 12.8738 7.76255 12.8234C8.32583 11.2898 9.13464 9.86424 10.1457 8.58264C10.5717 8.04264 11.6188 7.12824 11.7199 6.49464C11.9077 5.34984 10.8173 4.44264 9.71236 4.80264C8.99743 5.03304 7.73366 6.68904 7.26427 7.34424C6.11604 8.92104 5.25668 10.6994 4.64285 12.5498H4.63563ZM5.1628 14.0474C-0.31111 14.6018 0.988764 23.105 6.50601 21.8522C11.1928 20.7938 10.0879 13.5434 5.1628 14.0474ZM4.63563 23.4506C5.3289 25.5674 6.37602 27.5834 7.76255 29.3258C8.1814 29.8514 9.10575 30.9962 9.71236 31.1978C10.8173 31.5578 11.9077 30.6434 11.7199 29.5058C11.6116 28.8506 10.5862 27.9722 10.1457 27.4178C9.12742 26.1434 8.32583 24.7034 7.76255 23.177C7.23538 23.2058 6.71543 23.4794 6.15937 23.5298C5.66831 23.573 5.11947 23.5298 4.63563 23.4506Z" fill="white"/>
<path d="M29.5218 3.14612C31.0599 3.00212 31.9121 3.86612 32.8581 4.91012C34.4541 6.68132 35.7323 8.87012 36.57 11.1021C36.7505 11.5773 37.0321 12.8517 37.2343 13.1613C37.3499 13.3341 37.8771 13.6077 38.0865 13.7877C40.6501 16.0269 40.6429 19.9581 38.0865 22.1901C37.8771 22.3701 37.3499 22.6437 37.2343 22.8165C36.9527 23.2413 36.4905 25.1277 36.1872 25.8261C35.3351 27.8133 33.4286 30.8517 31.7243 32.1981C28.8863 34.4373 25.0805 30.6789 27.4347 27.7629C28.583 26.3373 29.5218 25.4733 30.3378 23.7237C30.475 23.4285 30.9444 22.4349 30.8361 22.1973C30.7783 22.0749 30.1284 21.4557 29.9478 21.2037C28.4096 19.0437 28.6118 16.4013 30.2511 14.3709C30.4678 14.1045 30.9083 13.8885 30.8577 13.5357C30.7927 13.0317 29.9839 11.5269 29.6878 11.0373C28.9946 9.89252 28.2219 9.20852 27.442 8.21492C25.8966 6.26372 27.052 3.36932 29.529 3.13892L29.5218 3.14612ZM35.3928 12.5493C34.6996 10.4325 33.6525 8.41652 32.2659 6.67412C31.8471 6.14852 30.9227 5.00372 30.3161 4.80212C29.2112 4.44212 28.1208 5.35652 28.3085 6.49412C28.4096 7.12772 29.4495 8.04212 29.8828 8.58212C30.8938 9.86372 31.7027 11.2965 32.2659 12.8229C32.7859 12.7725 33.3203 12.5205 33.8691 12.4701C34.3602 12.4269 34.909 12.4701 35.3928 12.5493ZM34.0496 14.0469C28.5685 14.6013 29.8756 23.1045 35.3928 21.8517C40.0796 20.7933 38.9747 13.5429 34.0496 14.0469ZM35.3928 23.4501C34.909 23.5293 34.3602 23.5725 33.8691 23.5293C33.3131 23.4789 32.7931 23.2053 32.2659 23.1765C31.6954 24.7029 30.8938 26.1429 29.8828 27.4173C29.4423 27.9717 28.4169 28.8501 28.3085 29.5053C28.1208 30.6501 29.2112 31.5573 30.3161 31.1973C30.9227 31.0029 31.8471 29.8581 32.2659 29.3253C33.6525 27.5757 34.6924 25.5669 35.3928 23.4501Z" fill="white"/>
<path d="M13.6417 12.8882C15.541 11.0306 18.2418 11.3978 19.9894 13.2482C20.5094 12.9242 20.9354 12.4706 21.477 12.1754C25.8316 9.82098 29.9262 15.617 26.3371 19.5914C25.2683 20.7794 21.9826 23.3642 20.5888 24.1346C20.2855 24.3002 20.0544 24.3722 19.7006 24.2714C19.3467 24.1706 17.8663 23.0042 17.4474 22.7018C16.0465 21.6722 13.7861 20.0378 12.9484 18.5474C11.9085 16.697 12.0891 14.4002 13.6417 12.8882ZM16.1692 13.2698C15.2738 13.3994 14.4072 14.1842 14.0894 15.0122C13.1506 17.4674 15.3026 19.0298 16.978 20.369C17.9529 21.1466 18.9856 21.845 19.9894 22.5866C20.2638 22.6298 24.0118 19.6274 24.4668 19.2098C25.9327 17.8634 26.9798 15.9122 25.4056 14.1482C24.2284 12.8306 22.6542 13.061 21.4193 14.1482C20.8777 14.6234 20.5455 15.509 19.7006 15.2426C19.455 15.1634 18.7979 14.285 18.4946 14.033C17.7941 13.4354 17.1225 13.1402 16.1692 13.277V13.2698Z" fill="white"/>
<path d="M19.7585 0.0288629C20.2063 -0.0719371 20.7118 0.115263 20.7912 0.597663C20.8273 0.835263 20.8273 1.58406 20.7623 1.80726C20.5457 2.52006 19.3614 2.44086 19.2386 1.68486C19.1591 1.18086 19.1303 0.172863 19.7585 0.0288629Z" fill="white"/>
<path d="M19.9892 33.6744C20.2347 33.66 20.6464 33.912 20.7403 34.1424C20.8341 34.3728 20.8414 35.28 20.7619 35.5248C20.5525 36.2016 19.3321 36.18 19.231 35.3304C19.1587 34.7184 19.1515 33.7176 19.9892 33.6744Z" fill="white"/>
<path d="M15.5409 2.04467C15.9814 1.97267 16.7974 2.75747 16.7974 3.16067C16.7974 3.43427 16.5663 3.80147 16.3064 3.90227C15.2087 4.34147 14.1616 2.26787 15.5409 2.04467Z" fill="white"/>
<path d="M24.2855 2.05192C24.7983 2.00152 25.2243 2.49112 25.1521 2.98792C25.1016 3.32632 24.5094 3.91672 24.17 3.96712C23.6645 4.03912 23.1806 3.61432 23.2312 3.10312C23.2601 2.78632 23.975 2.08072 24.2855 2.05192Z" fill="white"/>
<path d="M15.859 32.0329C16.5306 31.9321 17.0361 32.6593 16.6606 33.2281C16.314 33.7465 15.5918 34.2793 15.0575 33.6601C14.5519 33.0769 15.2885 32.1193 15.8663 32.0329H15.859Z" fill="white"/>
<path d="M23.8954 32.033C24.6754 31.9178 25.7008 33.2354 24.7981 33.797C24.2348 34.1498 23.686 33.7034 23.3683 33.2282C23.0505 32.753 23.361 32.1122 23.8954 32.033Z" fill="white"/>
</g>
<defs>
<clipPath id="clip0_806_978">
<rect width="40" height="36" fill="white"/>
</clipPath>
</defs>
</svg>
