<svg width="72" height="60" viewBox="0 0 72 60" fill="none" xmlns="http://www.w3.org/2000/svg">
<g clip-path="url(#clip0_57_387)">
<path d="M56.423 34.5215C54.3246 34.5215 52.4072 35.2251 50.9424 36.4265C50.5803 36.7228 50.0495 36.7228 49.6875 36.4265C48.2227 35.2251 46.3053 34.5215 44.2068 34.5215C39.6026 34.5215 35.9941 37.7514 35.9941 42.3598C35.9941 50.0252 46.297 56.0202 49.4282 57.6619C49.9878 57.954 50.6544 57.954 51.2099 57.6619C54.341 56.016 64.644 50.0252 64.644 42.3598C64.644 37.7555 61.0355 34.5215 56.4313 34.5215H56.423Z" stroke="#EFDFDF" stroke-width="3" stroke-linecap="round" stroke-linejoin="round"/>
<path d="M56.0538 28.082L68.953 15.1828C70.9157 13.2201 70.9157 10.0313 68.953 8.06867C66.9904 6.10602 63.8016 6.10602 61.8389 8.06867L51.067 18.8406C47.7547 22.1529 43.2616 24.0127 38.5751 24.0127H33.0863C28.3998 24.0127 23.9066 22.1529 20.5944 18.8406L9.82243 8.06867C7.85977 6.10602 4.67097 6.10602 2.70832 8.06867C0.745665 10.0313 0.745665 13.2201 2.70832 15.1828L20.3681 32.8426C23.8285 36.3029 25.7705 40.9935 25.7705 45.8817V46.7005" stroke="#EFDFDF" stroke-width="3" stroke-linecap="round" stroke-linejoin="round"/>
<path d="M43.5265 10.956C44.5298 6.70518 41.8971 2.44591 37.6464 1.44263C33.3956 0.439351 29.1363 3.07198 28.133 7.32278C27.1297 11.5736 29.7624 15.8328 34.0132 16.8361C38.264 17.8394 42.5232 15.2068 43.5265 10.956Z" stroke="#EFDFDF" stroke-width="3" stroke-linecap="round" stroke-linejoin="round"/>
</g>
<defs>
<clipPath id="clip0_57_387">
<rect width="71.6595" height="59.1183" fill="white"/>
</clipPath>
</defs>
</svg>
