<svg width="32" height="26" viewBox="0 0 32 26" fill="none" xmlns="http://www.w3.org/2000/svg">
<g clip-path="url(#clip0_107_1658)">
<path d="M10.2402 12.6661C12.8145 12.6661 14.9013 10.5959 14.9013 8.04205C14.9013 5.48824 12.8145 3.41797 10.2402 3.41797C7.66595 3.41797 5.5791 5.48824 5.5791 8.04205C5.5791 10.5959 7.66595 12.6661 10.2402 12.6661Z" stroke="white" stroke-width="2" stroke-linecap="round" stroke-linejoin="round"/>
<path d="M0.87207 24.6761C0.87207 19.5447 5.06822 15.3818 10.2408 15.3818C15.4133 15.3818 19.6094 19.5447 19.6094 24.6761" stroke="white" stroke-width="2" stroke-linecap="round" stroke-linejoin="round"/>
<path d="M24.113 8.33611C26.0421 8.33611 27.606 6.7847 27.606 4.87094C27.606 2.95717 26.0421 1.40576 24.113 1.40576C22.184 1.40576 20.6201 2.95717 20.6201 4.87094C20.6201 6.7847 22.184 8.33611 24.113 8.33611Z" stroke="white" stroke-width="2" stroke-linecap="round" stroke-linejoin="round"/>
<path d="M17.0928 17.8322C17.0928 13.9865 20.2312 10.873 24.1077 10.873C27.9842 10.873 31.1226 13.9865 31.1226 17.8322" stroke="white" stroke-width="2" stroke-linecap="round" stroke-linejoin="round"/>
</g>
<defs>
<clipPath id="clip0_107_1658">
<rect width="32" height="25" fill="white" transform="translate(0 0.541016)"/>
</clipPath>
</defs>
</svg>
