<svg width="48" height="37" viewBox="0 0 48 37" fill="none" xmlns="http://www.w3.org/2000/svg">
<path d="M40.5217 29.5066C44.2938 28.3379 47.003 28.2386 47.6213 29.197C47.8995 29.6422 47.8311 29.9515 47.3489 30.4646C46.1121 31.8312 38.1595 34.4041 29.929 36.1541C22.7997 37.6628 21.9402 37.1495 27.3567 34.6453C31.914 32.481 36.3045 30.7674 40.5217 29.4998V29.5066ZM7.05688 0.981224C7.81118 0.226924 8.70172 0.158416 9.59204 0.807396C10.2104 1.2526 10.2475 1.45694 9.83325 3.78786C9.59827 5.19157 8.94284 7.69671 8.36157 9.34158C6.71661 14.1094 2.4623 24.1882 1.63989 25.2517L0.885984 26.2107V24.3924C0.817991 20.311 5.51714 2.51413 7.05688 0.974388V0.981224ZM33.7024 0.696068C34.7289 -0.095447 36.5098 -0.230897 37.1282 0.387474C37.3692 0.628651 37.5421 1.14128 37.5422 1.55544C37.5422 3.20027 29.2815 13.3847 23.0051 19.451C19.6103 22.7407 18.4105 23.3591 18.8557 21.6463C19.4075 19.4864 31.5753 2.27284 33.7024 0.696068Z" fill="#C42785"/>
</svg>
