<svg width="53" height="49" viewBox="0 0 53 49" fill="none" xmlns="http://www.w3.org/2000/svg">
<path fill-rule="evenodd" clip-rule="evenodd" d="M24.754 0.510517C23.5612 1.73008 25.3341 18.7644 26.9245 21.2035C27.1787 21.6101 27.3221 21.548 27.7197 20.9212C28.8733 19.075 28.404 2.3568 27.1396 0.696839C26.4878 -0.150078 25.4384 -0.240416 24.754 0.510517Z" fill="#821A52"/>
<path fill-rule="evenodd" clip-rule="evenodd" d="M0.435114 24.9923C-0.0732898 25.4609 -0.10588 25.7432 0.180912 26.2118C0.937 27.4314 3.1466 27.6233 12.1089 27.2451C16.1565 27.0587 19.6241 26.8047 19.8066 26.6522C20.4584 26.0876 19.0505 25.6529 14.892 25.0261C12.0697 24.6196 8.99977 24.3994 5.85809 24.3994C1.59532 24.3994 0.976108 24.4615 0.435114 24.9923Z" fill="#821A52"/>
<path fill-rule="evenodd" clip-rule="evenodd" d="M36.8971 25.0549C33.2471 25.3655 31.5133 25.8398 32.3802 26.2745C32.6669 26.3987 34.8049 26.681 37.0796 26.9012C39.3544 27.0876 42.9328 27.432 44.9925 27.686C49.7246 28.2789 51.315 28.2789 51.8951 27.7199C52.5794 26.969 52.1818 25.8736 50.9891 25.3711C49.6529 24.8065 41.74 24.6202 36.8906 25.0606L36.8971 25.0549Z" fill="#821A52"/>
<path fill-rule="evenodd" clip-rule="evenodd" d="M27.7584 31.1918C27.0023 32.4114 25.5162 39.582 25.3011 43.2463C25.0469 46.6566 25.086 46.8768 25.8421 47.5373C26.7481 48.3222 26.9632 48.3504 27.9018 47.7575C28.5536 47.351 28.5862 46.8203 28.697 39.6779C28.7687 35.4829 28.6579 31.7282 28.4819 31.2878C28.2646 30.7872 28.0235 30.7552 27.7584 31.1918Z" fill="#821A52"/>
</svg>
