<svg width="47" height="37" viewBox="0 0 47 37" fill="none" xmlns="http://www.w3.org/2000/svg">
<path d="M39.5718 29.3015C43.3171 28.141 46.0061 28.0424 46.6206 28.9938C46.8969 29.4359 46.8298 29.7431 46.3511 30.2526C45.1229 31.6097 37.2256 34.1642 29.0522 35.902C21.9721 37.4003 21.1185 36.8909 26.4975 34.404C31.0233 32.2547 35.3838 30.5535 39.5718 29.2946V29.3015ZM6.33934 0.974308C7.08851 0.225138 7.97265 0.156679 8.85692 0.801456C9.47096 1.24356 9.50755 1.44667 9.09618 3.76142C8.86283 5.15537 8.2115 7.64263 7.63427 9.27607C6.0009 14.0104 1.77648 24.0188 0.959461 25.0759L0.210437 26.028V24.2224C0.143137 20.1689 4.81034 2.49648 6.33934 0.967472V0.974308ZM32.7993 0.691105C33.8187 -0.0949101 35.5876 -0.22961 36.2016 0.384464C36.4409 0.624107 36.6128 1.1334 36.6128 1.54462C36.6128 3.17808 28.4091 13.292 22.1763 19.3161C18.805 22.583 17.613 23.1968 18.0552 21.4958C18.6017 19.3527 30.6866 2.25739 32.7993 0.691105Z" fill="#821A52"/>
</svg>
