<svg width="73" height="73" viewBox="0 0 73 73" fill="none" xmlns="http://www.w3.org/2000/svg">
<path d="M32.8808 1.07023C44.4308 0.350234 55.5908 5.62023 62.4108 14.8702C71.4515 27.1391 71.0863 43.9495 61.9004 55.8742C61.2628 56.7019 61.2997 57.8819 62.0366 58.6224L71.6167 68.2494C72.3853 69.0218 72.3942 70.2674 71.6366 71.0506L71.1543 71.5492C70.3813 72.3484 69.1048 72.3636 68.3129 71.5832L58.5924 62.0032C57.8595 61.2809 56.7015 61.2373 55.8813 61.8587C51.429 65.2313 46.2299 67.6479 40.6808 68.5502C15.7108 72.5902 -4.85923 49.3202 2.52077 25.0202C6.59077 11.6302 18.8808 1.94023 32.8808 1.07023ZM33.2008 6.12023C9.90077 7.65023 -2.19923 34.9702 12.4808 53.2602C26.2108 70.3602 53.4008 66.4902 61.8808 46.3302C70.3608 26.1702 54.6008 4.71023 33.2008 6.12023Z" fill="#821A52" stroke="white"/>
<path d="M34.042 16.8779C37.2794 16.5492 39.7585 17.5148 41.4863 19.1318C43.2239 20.7581 44.234 23.0738 44.4551 25.4844C44.6762 27.8953 44.1052 30.3654 42.7295 32.291C41.3616 34.2056 39.1793 35.6095 36.1074 35.8818C33.0327 36.1544 30.6327 35.1754 28.9336 33.5566C27.2252 31.929 26.2018 29.6306 25.9463 27.2422C25.6909 24.8535 26.207 22.4105 27.5312 20.498C28.8476 18.5971 30.983 17.1886 34.042 16.8779ZM38.8271 22.0469C37.7602 21.0835 36.2639 20.5554 34.4033 20.7734C32.625 20.9825 31.3247 21.8429 30.5176 23.0195C29.7177 24.1858 29.4187 25.6364 29.5742 27.0186C29.7298 28.4011 30.3444 29.7491 31.415 30.7002C32.4275 31.5996 33.8183 32.1173 35.5322 31.999L35.8789 31.9668C37.6284 31.765 38.9081 30.9054 39.7031 29.7305C40.4908 28.5663 40.7873 27.1164 40.6367 25.7344C40.4861 24.3521 39.8842 23.0014 38.8271 22.0469Z" fill="#821A52" stroke="white"/>
<path d="M29.0771 39.5684C32.0043 39.3599 36.3868 39.3415 39.6797 39.4932L41.0176 39.5684C43.7234 39.7494 46.1337 41.0461 47.2783 43.4922L47.2812 43.4971C47.3325 43.6038 47.4859 44.0017 47.6338 44.4199C47.7058 44.6237 47.7722 44.8216 47.8203 44.9766C47.8445 45.0545 47.8626 45.1172 47.874 45.1621C47.8773 45.1749 47.8793 45.1846 47.8809 45.1914V49.7803H44.9336C44.4188 49.7801 44.0012 49.3624 44.001 48.8477V45.7803C44.001 45.6085 43.9436 45.4513 43.8877 45.334C43.8283 45.2095 43.7497 45.0855 43.6631 44.9688C43.4894 44.7345 43.2579 44.4919 43.0107 44.2754C42.7638 44.0592 42.485 43.8545 42.209 43.708C41.9639 43.5779 41.6439 43.4529 41.3262 43.4814V43.4805C39.4017 43.5792 37.3919 43.503 35.3574 43.4365C33.5859 43.3786 31.7965 43.3281 30.0635 43.415L29.3242 43.4609C28.5868 43.5137 27.8321 43.6566 27.1689 44.2461L27.166 44.249C27.0124 44.388 26.7985 44.6673 26.6357 44.9121C26.5502 45.0408 26.4661 45.1784 26.4014 45.3057C26.3691 45.3691 26.338 45.438 26.3135 45.5068C26.2921 45.567 26.2617 45.6674 26.2617 45.7803V49.7803H24.8613C23.4808 49.7803 22.3616 48.6608 22.3613 47.2803V45.3096C22.3619 45.3042 22.365 45.2772 22.377 45.2207C22.3903 45.1575 22.4107 45.0769 22.4385 44.9814C22.494 44.7907 22.5717 44.5593 22.6582 44.3223C22.8345 43.8392 23.03 43.3776 23.1221 43.2061L23.124 43.2021C24.2691 41.0229 26.5858 39.7388 29.0752 39.5684H29.0771Z" fill="#821A52" stroke="white"/>
</svg>
