<svg width="48" height="48" viewBox="0 0 48 48" fill="none" xmlns="http://www.w3.org/2000/svg">
<g clip-path="url(#clip0_797_618)">
<path d="M11.636 48.0002C10.2558 47.6342 9.16364 46.7162 9.01362 45.2222C9.30766 41.1302 8.61157 36.4622 9.01362 32.4362C9.16364 30.9542 10.2918 29.7902 11.786 29.6522C13.1661 29.5262 14.7143 29.5982 15.6865 30.6962C16.0525 30.7622 17.9787 28.4822 18.2848 28.0802C20.133 25.6322 20.4391 23.9702 21.3572 21.1922C22.3593 18.1502 25.8097 19.0022 27.3279 21.1562C29.3142 23.9882 27.5199 26.4182 26.8899 29.2382C26.8599 29.3822 26.8239 29.5142 26.8419 29.6642H33.4967C34.7328 29.6642 36.251 31.4102 36.4371 32.5922C36.7131 34.3622 36.5991 39.0242 36.221 40.7762C35.5789 43.7942 33.7307 46.8842 30.5863 47.7242L29.2482 48.0122H21.1771L18.6388 47.5622L15.9985 46.5542C15.4524 47.3822 14.6843 47.7842 13.7362 48.0122H11.642L11.636 48.0002ZM24.6756 31.3982C24.3815 31.1042 24.3935 30.7442 24.4536 30.3602C24.8496 27.7322 27.688 23.7722 24.9996 21.6902C23.0914 20.2082 23.1814 22.0022 22.7493 23.3162C21.4592 27.2342 19.3529 30.0782 16.3765 32.8742V44.6282C17.1686 44.9762 17.9487 45.3662 18.7888 45.6182C21.1531 46.3142 25.8277 46.2722 28.36 46.1162C34.5168 45.7382 34.7568 39.2162 34.4868 34.4222C34.4688 34.0502 34.4268 33.3002 34.3608 32.9762C34.2048 32.1902 33.3947 31.7162 32.6506 31.6442C30.3223 31.4102 27.4839 31.9262 25.2036 31.6442C25.0056 31.6202 24.8076 31.5302 24.6696 31.3922L24.6756 31.3982ZM11.822 31.5662C11.4319 31.6442 11.0059 31.9982 11.0119 32.4302V45.2162C11.1619 46.2062 12.8301 46.1222 13.5742 46.0022C13.9822 45.9362 14.3543 45.5402 14.3663 45.1202V32.3342C14.2103 31.3862 12.5301 31.4222 11.822 31.5662Z" fill="#821A52"/>
<path d="M0 14.244V13.404C0.690086 11.388 2.98837 12.024 4.60858 11.46C5.49669 10.176 5.82073 7.75798 7.81298 7.84198C9.66721 7.91998 9.93124 10.236 10.8074 11.46C12.0375 11.952 14.3598 11.52 15.1219 12.804C16.328 14.832 13.6997 15.966 12.7036 17.358C12.6856 18.846 13.8797 20.868 12.5836 22.056C11.0534 23.454 9.17515 21.492 7.70496 20.994C6.26478 21.51 4.47656 23.346 2.94037 22.152C1.40418 20.958 2.72434 18.858 2.70634 17.358C1.85423 16.278 0.552069 15.522 0 14.244ZM13.3157 13.932C13.1896 13.758 10.1473 13.56 9.5952 13.2C9.04313 12.84 7.92099 9.84598 7.71096 9.84598C7.09289 10.536 6.51081 12.75 5.82673 13.2C5.14264 13.65 3.00038 13.596 2.10626 13.83C2.05826 14.01 2.18427 14.04 2.26228 14.142C2.71234 14.73 4.63258 16.266 4.7826 16.758C5.04663 17.604 4.21853 19.578 4.20053 20.538C4.33254 20.676 7.07488 18.912 7.71096 18.912C8.30504 18.912 11.0834 20.682 11.2214 20.538C11.2034 19.518 10.4593 17.574 10.7473 16.656C10.8854 16.212 13.4297 14.088 13.3217 13.938L13.3157 13.932Z" fill="#821A52"/>
<path d="M27.4892 4.47608C28.8634 4.84808 31.5157 4.60208 32.4518 5.75408C34.234 7.93808 30.8976 9.69608 29.7935 11.1781C29.8055 12.8821 31.1437 15.5941 29.4574 16.8061C27.7712 18.0181 25.647 15.8221 23.9788 15.3181C22.2865 15.8881 20.0483 18.2281 18.302 16.6561C16.8679 15.3661 18.194 12.8161 18.23 11.1721C17.1259 9.66608 13.9215 8.07608 15.4757 5.86208C16.4478 4.47608 18.9621 4.88408 20.4503 4.44008C21.2844 3.29408 21.8245 0.696076 23.2047 0.168076C25.863 -0.845924 26.5591 2.80808 27.4952 4.47008L27.4892 4.47608ZM31.2157 6.93008C30.1055 6.51008 27.5432 6.69008 26.6311 6.11408C25.869 5.63408 25.0409 2.89208 24.3748 2.08208L24.0148 1.98008C23.4027 3.09008 22.8326 4.69808 22.1425 5.71808C22.0405 5.86208 21.9565 6.01208 21.8065 6.11408C21.1704 6.51608 18.6021 6.56408 17.666 6.79808C17.528 6.83408 17.3959 6.78608 17.2999 6.95408C17.2819 7.34408 20.4083 9.83408 20.6063 10.4581C20.8944 11.3821 19.9523 14.0881 19.9162 15.1801L20.3003 15.2101L23.9247 13.2721C24.2068 13.1221 24.4288 13.1821 24.7048 13.2721C25.917 13.6561 27.3332 14.8021 28.5633 15.2821L28.7253 14.8201L28.0293 10.6681L28.4613 9.93608L31.2937 7.21208L31.2097 6.91808L31.2157 6.93008Z" fill="#821A52"/>
<path d="M43.3193 11.5018C44.6635 11.9038 46.8537 11.5078 47.6878 12.8518C48.9 14.8078 46.2777 16.0318 45.3116 17.3638C45.2515 18.9238 46.6017 21.1498 44.9515 22.2418C43.4153 23.2558 41.7291 21.4918 40.3129 20.9998C38.8607 21.4978 37.1805 23.3038 35.6143 22.1998C34.0481 21.0958 35.2843 18.8998 35.3203 17.3638C34.3722 16.0018 31.9839 15.0538 32.77 13.0978C33.4181 11.4718 35.8724 11.9878 37.2225 11.4658C38.2007 10.0018 38.5547 7.26579 40.955 7.95579C42.2032 8.31579 42.8032 10.4278 43.3313 11.5078L43.3193 11.5018ZM45.9236 13.9318C45.7976 13.7578 42.7552 13.5598 42.2032 13.1998C41.5911 12.7978 40.517 9.73779 40.3189 9.73779C39.7969 10.4518 39.0828 12.7738 38.4347 13.1998C37.7326 13.6618 35.5123 13.6198 34.6062 13.8298C35.0263 14.5798 37.1745 16.0978 37.3906 16.7578C37.6066 17.4178 36.6645 20.3458 36.8085 20.5378C37.6846 20.2678 39.4968 18.9118 40.3189 18.9118C41.051 18.9118 43.0313 20.3338 43.8294 20.6398C43.9554 20.4838 43.1033 17.4538 43.3553 16.6498C43.4933 16.2058 46.0376 14.0818 45.9296 13.9318H45.9236Z" fill="#821A52"/>
</g>
<defs>
<clipPath id="clip0_797_618">
<rect width="48" height="48" fill="white"/>
</clipPath>
</defs>
</svg>
