<svg width="70" height="91" viewBox="0 0 70 91" fill="none" xmlns="http://www.w3.org/2000/svg">
<path fill-rule="evenodd" clip-rule="evenodd" d="M8.66765 25.2167C8.5038 25.9339 8.64044 26.2848 9.47711 27.3172C10.5313 28.618 11.769 29.4399 12.0996 29.0553C12.4775 28.6419 12.0708 26.6024 11.3762 25.4836C10.8808 24.6109 10.5794 24.3657 9.97497 24.2381C9.03019 24.0392 8.85899 24.1767 8.66765 25.2167Z" fill="#821A52"/>
<path fill-rule="evenodd" clip-rule="evenodd" d="M-26.6067 54.8121C-26.4459 55.9774 -25.0893 56.51 -15.4997 59.197C-1.98917 62.9493 9.22565 65.7552 9.67744 65.4805C10.1766 65.177 9.52006 64.8028 5.59128 63.0301C2.03708 61.458 1.02485 61.0887 -6.239 58.8068C-17.7324 55.2133 -23.9363 53.4943 -25.114 53.6263C-26.0756 53.7158 -26.7019 54.219 -26.611 54.8147L-26.6067 54.8121Z" fill="#821A52"/>
<path fill-rule="evenodd" clip-rule="evenodd" d="M-5.06629 42.5483C-5.26504 43.5316 -3.48794 45.2885 1.31101 48.8801C6.18283 52.5219 14.0611 57.7574 14.6101 57.7295C14.782 57.7196 14.9498 57.6176 14.9931 57.4966C15.1213 56.8623 5.05322 48.0845 -0.539433 43.9574C-3.50459 41.7489 -4.80243 41.3363 -5.06931 42.5446L-5.06629 42.5483Z" fill="#821A52"/>
<path fill-rule="evenodd" clip-rule="evenodd" d="M12.7355 32.5588C12.4572 34.4584 16.3682 43.1523 20.2867 49.438C22.3655 52.7085 23.0809 53.631 23.4854 53.3851C23.963 53.0946 22.2452 48.4307 17.4965 37.2528C15.6011 32.758 13.0877 30.2748 12.7312 32.5614L12.7355 32.5588Z" fill="#821A52"/>
<path fill-rule="evenodd" clip-rule="evenodd" d="M35.144 27.6895C34.766 29.9892 34.8613 38.1991 35.306 43.9711C35.4217 45.5643 36.2522 50.6788 36.4032 50.8652C36.7717 51.3199 37.2198 50.3352 37.4216 48.5156C37.9867 43.7598 38.0906 31.0165 37.5605 27.9449C37.0377 24.93 35.621 24.8067 35.141 27.6858L35.144 27.6895Z" fill="#821A52"/>
<path fill-rule="evenodd" clip-rule="evenodd" d="M60.0509 27.9729C58.3773 30.7821 59.8051 31.6721 62.0922 29.2632C63.045 28.2832 62.9034 27.2287 61.7717 27.0211C60.8451 26.8445 60.6558 26.9597 60.0509 27.9729Z" fill="#821A52"/>
<path fill-rule="evenodd" clip-rule="evenodd" d="M55.3936 35.1838C52.9591 38.6393 47.501 49.1747 47.9028 49.6704C48.2199 50.0617 49.1178 49.1485 51.583 45.8579C54.727 41.6927 58.0556 36.614 58.5592 35.2618C59.1137 33.7506 58.0172 32.6592 56.7488 33.4639C56.5992 33.5883 55.9896 34.3261 55.3979 35.1811L55.3936 35.1838Z" fill="#821A52"/>
<path fill-rule="evenodd" clip-rule="evenodd" d="M-16.4896 78.6778C-16.632 79.3819 -15.904 80.0187 -14.9082 80.0585C-12.7934 80.1635 3.09663 76.6992 6.2576 75.4558C7.08224 75.1101 7.23192 74.9857 6.95301 74.8159C6.41671 74.4633 2.88088 74.7606 -5.00406 75.7941C-13.5767 76.9065 -16.2691 77.5867 -16.4853 78.6752L-16.4896 78.6778Z" fill="#821A52"/>
</svg>
