<svg width="82" height="72" viewBox="0 0 82 72" fill="none" xmlns="http://www.w3.org/2000/svg">
<g clip-path="url(#clip0_483_5496)">
<path d="M8.85061 24.074C9.83698 29.7293 13.2958 33.8268 17.9778 36.8769C23.9092 40.7388 30.2482 44.0508 36.1927 47.8995C37.4684 47.5068 38.731 46.8653 40.0724 46.4857C42.0978 45.9228 43.7154 45.53 45.6881 46.5511C48.3448 47.9388 49.1996 51.1722 48.0423 53.8559C47.9239 53.9475 47.5425 54.3664 47.6346 54.4973C47.8976 54.8639 50.1334 55.8326 50.7646 56.4086C52.3297 57.8486 52.8557 60.2835 52.2508 62.2733C51.8168 63.7002 46.9507 70.1279 45.7013 71.0442C42.1241 73.6231 37.7577 70.4551 34.6277 68.426C32.1552 66.8289 30.0509 64.8784 28.578 62.2995C19.6612 56.2515 4.66841 52.8871 0.972823 41.7206L0.0522133 38.0944C0.157426 36.7199 -0.0924539 35.1359 0.0522133 33.7875C0.420457 30.554 2.80089 26.2864 5.32599 24.2311C6.628 23.1708 7.43024 22.6995 8.85061 24.074ZM6.44387 28.3679C6.2466 28.1584 5.77314 28.97 5.68108 29.114C1.26216 35.6333 4.28702 44.3649 10.5603 48.41C16.8336 52.4551 24.4747 55.5446 30.9189 59.5242C32.4971 61.8675 33.8123 63.6479 36.219 65.2319C37.2448 65.9126 40.7169 68.0464 41.7164 68.3606C42.5055 68.6093 43.2551 68.5177 43.8995 67.9679C44.6886 67.274 47.7661 62.9933 48.4105 61.946C50.3175 58.7911 46.0695 58.0842 44.2283 56.6442C41.5059 54.5235 46.5956 52.2588 44.465 50.0333C43.3866 48.9075 40.3881 50.1119 39.0992 50.5962C38.1128 50.9759 36.9424 51.9708 35.8508 51.7613C29.2355 47.6246 22.0942 43.8937 15.5842 39.5999C11.7966 37.0995 9.1531 34.2719 7.1146 30.1875C6.94363 29.8602 6.52278 28.4464 6.44387 28.3809V28.3679Z" fill="#821A52"/>
<path d="M42.9263 8.9415C45.1226 9.9626 45.846 12.188 46.3326 14.3873C46.4773 15.0419 46.7929 17.8433 47.0296 18.0266L70.5446 30.2535L70.9918 30.1226C71.6888 29.0491 72.2806 26.1822 72.9908 25.3444C74.0692 24.0746 75.4239 24.991 76.3445 25.8288C81.9602 30.8819 84.7089 42.4804 78.2646 47.887C73.0697 52.2462 67.8486 49.5626 62.9036 46.6957C61.8383 46.0804 60.773 45.4128 59.7077 44.7844C52.4086 40.4644 45.3068 35.791 37.863 31.7328C33.3652 31.8113 28.6832 29.2717 25.0139 26.8499C22.7518 25.3575 21.726 23.4855 22.16 20.684C22.3441 19.4666 24.764 14.1255 25.4479 12.8164C26.8025 10.2244 29.4986 8.91532 32.3919 9.77932C33.1547 10.015 35.1669 11.4288 35.6141 11.3371C35.7061 11.324 36.3637 10.1328 36.6925 9.83169C37.2054 9.34732 38.0866 8.82369 38.7573 8.61423C40.204 8.16914 41.5586 8.30005 42.9132 8.92841L42.9263 8.9415ZM74.9109 29.8084C74.4769 30.8819 73.5695 34.2855 72.399 34.5473C72.0176 34.639 71.5836 34.5997 71.189 34.5473C62.9956 30.188 54.6049 26.1691 46.4378 21.7706C45.7408 21.391 43.9259 20.5531 43.5839 19.9902C43.0842 19.1786 43.2157 17.1888 43.0316 16.076C42.8343 14.8979 42.3214 12.2011 40.9141 11.9786C38.2707 11.5597 38.4285 15.343 36.6004 15.631C34.1411 16.0237 30.7611 10.8135 28.7358 14.335C28.2229 15.2251 25.7504 20.8542 25.6583 21.6266C25.5663 22.399 25.9082 23.1059 26.5263 23.6033C27.4338 24.3233 29.8537 25.5931 30.9716 26.1822C33.7465 27.6222 36.1796 28.3422 39.3491 28.3553C49.318 34.1546 59.037 40.399 69.1111 46.028C79.4877 49.4055 80.553 35.7386 75.3581 30.0833C75.2134 29.9262 75.2134 29.743 74.9109 29.8215V29.8084Z" fill="#821A52"/>
<path d="M76.3584 25.8288C75.4246 24.991 74.0831 24.0877 73.0047 25.3444C74.3725 18.9037 72.334 12.1619 67.3232 7.82879C60.2345 1.70225 49.3714 2.16043 42.9271 8.94152C41.5593 8.31316 40.2179 8.18225 38.7712 8.62734C33.8788 3.71825 26.6455 2.29134 20.1354 4.6477C12.2576 7.50152 7.43102 15.8404 8.86454 24.0877C7.45732 22.7132 6.65508 23.1844 5.33992 24.2448C3.01209 8.62734 17.9917 -3.82212 33.1292 1.08697C36.1409 2.06879 38.6002 3.80988 41.0464 5.73425C55.6315 -7.64466 79.0939 4.03243 76.8055 23.8128C76.7266 24.4673 76.5819 25.2004 76.3452 25.8288H76.3584Z" fill="#821A52"/>
<path d="M62.9174 46.6949C59.2876 50.3996 54.9213 53.3189 50.7654 56.4083C50.1472 55.8323 47.9115 54.8636 47.6353 54.4971C47.5432 54.3661 47.9246 53.9472 48.043 53.8556C51.3177 51.2374 55.3553 49.1167 58.4459 46.132L59.7216 44.7705C60.7868 45.3989 61.8521 46.0665 62.9174 46.6818V46.6949Z" fill="#821A52"/>
</g>
<defs>
<clipPath id="clip0_483_5496">
<rect width="82" height="72" fill="white"/>
</clipPath>
</defs>
</svg>
