<svg width="49" height="55" viewBox="0 0 49 55" fill="none" xmlns="http://www.w3.org/2000/svg">
<path d="M24.4157 0C24.6769 0.213045 24.8899 0.343621 24.9449 0.700987C25.0617 1.44321 25.0411 3.99975 24.9518 4.77633C24.8281 5.86905 23.3574 5.86905 23.2268 4.77633C23.1375 3.99975 23.1168 1.44321 23.2337 0.700987C23.2886 0.336749 23.5086 0.213045 23.7628 0H24.4089L24.4157 0Z" fill="#821A52"/>
<path d="M7.2419 47.9972C7.11132 47.3374 7.10445 46.6914 6.8914 46.0386C6.16292 43.8394 3.4277 42.3962 1.98449 40.6368C0.706222 39.0768 0.458815 37.4549 0.369474 35.4894C0.183918 31.4965 0.238898 27.4555 0.163301 23.4558C0.128939 21.7789 -0.331513 18.7688 0.465687 17.3256C1.57215 15.3051 4.34173 14.9752 5.96362 16.5902C7.23502 17.8548 6.87766 19.5248 7.03572 21.1604C7.98412 21.181 9.00124 21.5452 9.66786 22.2325C11.3653 23.9712 10.3207 26.6515 10.843 28.7888L17.0214 34.3142C20.7737 38.1903 19.5779 42.1625 19.9078 46.9938C19.9284 47.3374 20.0658 47.6605 20.0177 48.0109H21.5709C22.0451 48.0109 22.6224 48.7669 22.7323 49.2136C22.8973 49.894 22.9041 52.8972 22.7804 53.6257C22.6911 54.1618 22.32 54.7116 21.7908 54.8902L5.8949 55.0002C5.00149 54.9109 4.52042 54.313 4.44482 53.4402C4.36922 52.5674 4.32799 50.0727 4.47231 49.2755C4.55478 48.815 5.2214 48.0178 5.68186 48.0178H7.23502L7.2419 47.9972ZM18.1897 47.9972C18.1759 45.2345 18.1484 42.4512 17.9491 39.7022C17.6536 38.1903 16.9389 36.7677 15.8874 35.6475C14.0868 33.7301 11.0286 31.0773 8.96687 29.3661C8.71259 29.1599 8.17654 28.6857 7.89477 28.6101C6.38284 28.2115 5.22828 29.3867 5.72309 30.8917C5.85367 31.2835 6.50655 31.847 6.82268 32.1563C8.49955 33.7919 10.4651 35.2695 12.1419 36.9257C12.7879 37.7985 11.867 38.7607 10.9049 38.1628C9.1593 36.4378 7.17317 34.9465 5.4207 33.2284C3.48955 31.3316 3.09782 29.2286 5.36572 27.3731L5.20766 18.8375C4.95338 16.8102 1.99136 16.8033 1.77145 18.8375C1.64087 20.0402 1.86079 21.2978 1.88141 22.4868C1.96388 26.7133 1.98449 30.9398 2.20441 35.1595C2.2319 35.7231 2.1563 36.3003 2.21128 36.8708C2.56865 40.3138 6.56153 41.6333 8.08033 44.4235C8.67136 45.5025 8.92564 46.7739 8.96 47.9972H18.1897ZM8.96 27.1669C8.89128 25.5794 9.39984 22.8235 7.02885 22.9816L7.14568 26.7339L8.96687 27.1669H8.96ZM20.9799 49.7153H6.1698V53.2615H20.9318C21.083 53.1653 21.083 53.0484 21.0967 52.8904C21.2135 51.8664 20.9592 50.7393 20.9867 49.7153H20.9799Z" fill="#821A52"/>
<path d="M28.1756 47.997C28.1481 47.6877 28.265 47.3922 28.2856 47.0898C28.4643 44.2584 28.0107 40.8978 28.8216 38.1832C30.0037 34.2384 34.5464 31.675 37.3022 28.8435C37.8864 26.9193 37.0067 24.7407 38.0307 22.9126C38.6698 21.7718 39.8725 21.2014 41.1576 21.1602C41.3157 19.4971 40.9515 17.8064 42.2778 16.5419C43.8722 15.0162 46.47 15.3255 47.6383 17.2017C48.5524 18.6655 48.0507 21.8337 48.0163 23.5793C47.9407 27.579 48.0163 31.7368 47.8101 35.7228C47.7483 36.9461 47.5765 38.245 47.0404 39.3584C45.4873 42.5609 40.7041 43.8667 41.0408 48.0176C42.0373 47.9489 43.3156 47.942 43.6523 49.1103C43.8379 49.7426 43.7966 52.6771 43.7279 53.4468C43.6523 54.2715 43.2194 54.8557 42.3809 55L26.4575 54.9244C25.8802 54.732 25.4885 54.2234 25.3923 53.6324C25.2686 52.9108 25.2755 49.9006 25.4404 49.2203C25.5504 48.7736 26.1276 48.0176 26.6018 48.0176H28.155L28.1756 47.997ZM39.2265 47.997C39.2608 46.7737 39.5151 45.5023 40.1062 44.4233C41.625 41.6469 45.6178 40.3136 45.9752 36.8705C46.0302 36.3414 45.9546 35.7984 45.9821 35.2693C46.2157 31.0565 46.2226 26.8299 46.3051 22.5965C46.3257 21.3526 46.5731 19.9919 46.4219 18.7342C46.1951 16.8718 43.2331 16.7962 42.9788 18.8442L42.7658 27.2217C43.3912 27.8402 43.9616 28.3968 44.2159 29.3109C44.7175 31.1183 43.8654 32.1767 42.6558 33.3381C40.9308 34.9944 38.9928 36.4788 37.2816 38.1625C36.3607 38.7398 35.4879 37.9014 35.9964 36.9805C37.6939 35.3036 39.6663 33.8123 41.3707 32.1561C41.6868 31.8468 42.3397 31.2833 42.4703 30.8915C42.9651 29.3865 41.8105 28.2113 40.2986 28.6099C40.0168 28.6855 39.4739 29.1528 39.2265 29.3658C36.8486 31.3589 34.7044 33.668 32.2991 35.6472C30.9521 37.1042 30.2305 38.8704 30.0999 40.8497L29.9968 47.997H39.2265ZM41.1645 22.9745C39.522 22.8783 39.3158 24.0535 39.2334 25.3936C39.199 25.9777 39.254 26.5756 39.2334 27.1667L41.0546 26.7337L41.1645 22.9745ZM42.0167 49.7151H27.2066C27.1448 50.691 26.9798 51.9211 27.0967 52.8901C27.1173 53.0482 27.1104 53.165 27.2616 53.2613H42.0236V49.7151H42.0167Z" fill="#821A52"/>
<path d="M16.6638 10.7694C19.9076 10.4189 21.9762 11.7521 24.0517 14.0612C25.3918 12.8929 26.3883 11.6696 28.1407 11.0855C35.0544 8.7901 40.6623 16.8033 36.2021 22.4731C33.4944 25.9162 29.1716 29.0225 26.2921 32.4244C24.9794 33.5583 23.2888 33.5514 21.9418 32.4793C19.0073 29.0981 14.9388 26.0536 12.1211 22.6518C8.5406 18.3359 11.0078 11.3741 16.6638 10.7625V10.7694ZM31.1784 25.0159C32.9446 23.1054 35.7004 21.4216 35.9959 18.6108C36.532 13.5115 30.7454 10.5288 26.8281 13.8413C26.3127 14.2743 24.8626 16.0199 24.4228 16.1573C24.2991 16.1986 24.1754 16.2192 24.0448 16.2123C23.4056 16.1848 21.9075 14.288 21.3096 13.7864C17.3648 10.5219 11.5988 13.5939 12.2173 18.7001C12.5541 21.4628 15.2824 23.071 16.9662 25.009C17.1243 24.9265 16.9456 24.7479 16.8906 24.6585C16.3958 23.7651 14.6708 21.2223 14.5608 20.4389C14.2447 18.1984 16.2721 16.4803 18.3819 17.4768C19.3028 17.9098 19.7358 18.9132 20.1894 19.7516C21.0278 17.6555 22.5672 16.5628 24.8832 16.8789C25.8041 17.0026 26.8419 17.7174 27.371 18.4665C27.481 18.6177 27.9758 19.8203 28.072 19.7447C28.4363 18.8926 28.9448 17.8892 29.8245 17.47C32.223 16.336 34.4909 18.762 33.3913 21.1467C32.8002 22.425 31.7213 23.6689 31.1852 25.009L31.1784 25.0159ZM23.6324 18.6039C20.9659 19.0575 21.447 23.2772 24.2372 23.0779C27.3229 22.8648 26.8487 18.0541 23.6324 18.6039ZM16.87 19.03C16.3683 19.1468 16.1277 19.7172 16.3064 20.1914L20.6086 27.593C20.8972 27.9779 20.7735 28.6308 20.9247 28.995C20.9866 29.1462 23.0483 31.1873 23.2338 31.3042C23.763 31.634 24.4159 31.634 24.9451 31.3042C25.1306 31.1873 27.1924 29.1462 27.2542 28.995C27.3848 28.6858 27.3298 28.1772 27.5016 27.7442C28.34 25.655 30.4224 23.0435 31.5151 20.9131C31.6594 20.6382 31.9206 20.2258 31.9343 19.9234C31.9756 19.0644 30.9928 18.7345 30.3674 19.2224L27.3985 24.1981C27.0961 24.6035 26.6769 24.7616 26.1821 24.8097C25.1719 24.9059 22.8765 24.9197 21.8868 24.8097C21.4745 24.7616 21.1034 24.5761 20.8216 24.2668L17.8115 19.2224C17.6053 18.9475 17.1724 18.9613 16.8631 19.0369L16.87 19.03Z" fill="#821A52"/>
<path d="M13.4407 2.8113C13.8256 2.76319 14.0386 2.94874 14.2654 3.23051C14.609 3.64973 16.0385 6.1238 16.2309 6.63236C16.6089 7.63574 15.5505 8.31611 14.8633 7.67697C14.6021 7.43644 13.0352 4.67372 12.8428 4.22702C12.5679 3.58788 12.6091 2.92126 13.4476 2.8113H13.4407Z" fill="#821A52"/>
<path d="M34.477 2.81107C34.9993 2.71486 35.4941 3.12033 35.5216 3.64264C35.5628 4.37111 33.6866 6.87267 33.3293 7.68362C32.6489 8.31588 31.618 7.63551 31.9273 6.71461C32.0785 6.27477 33.611 3.61515 33.9272 3.23716C34.0646 3.07223 34.2639 2.85918 34.4838 2.81795L34.477 2.81107Z" fill="#821A52"/>
<path d="M5.70922 10.5428C5.90852 10.5222 6.01848 10.5909 6.19029 10.6596C6.69197 10.8452 9.26913 12.3296 9.65399 12.6664C10.4718 13.3811 9.79831 14.4669 8.82242 14.1508C8.45131 14.034 5.44806 12.3159 5.20753 12.0685C4.65086 11.5049 4.93951 10.6184 5.70922 10.5428Z" fill="#821A52"/>
<path d="M42.3123 10.542C43.1232 10.4595 43.6043 11.4354 42.9789 12.0677C42.7246 12.3288 39.8588 13.9645 39.4396 14.1157C38.4225 14.4868 37.7146 13.4353 38.4706 12.7137L42.3123 10.542Z" fill="#821A52"/>
</svg>
