<svg width="43" height="48" viewBox="0 0 43 48" fill="none" xmlns="http://www.w3.org/2000/svg">
<path d="M2.72021 25.4229C3.13961 29.9808 5.5459 34.1493 9.24072 36.7988C9.56969 37.0355 9.9177 37.2426 10.2554 37.4453C10.5667 37.6322 10.869 37.8173 11.1548 38.0234V45.3867H31.229V38.0371C35.907 35.4636 39.1749 30.8172 39.6577 25.4219L39.6772 25.2041H36.4702L36.4517 25.3838C35.9795 30.0283 32.6477 34.2357 28.2681 35.7881C26.7318 36.3314 24.0655 36.6182 21.3735 36.6377C18.6819 36.6572 16.008 36.409 14.4585 35.9062C9.89591 34.4306 6.43399 30.165 5.93213 25.3838L5.91357 25.2041H2.69971L2.72021 25.4229ZM24.1255 26.2725C23.3198 25.5195 22.1881 25.087 20.772 25.2354C19.321 25.3866 18.2743 26.0554 17.6235 26.9717C16.9757 27.8841 16.729 29.0304 16.8491 30.1289C16.9693 31.2273 17.4575 32.2918 18.2974 33.0391C19.1411 33.7897 20.3267 34.2079 21.812 34.0322C23.1922 33.8695 24.1846 33.2003 24.7974 32.29C25.407 31.3844 25.6346 30.2518 25.5151 29.165C25.3956 28.0781 24.9272 27.0217 24.1255 26.2725ZM8.64502 39.2598L8.54834 39.2012C3.82979 36.3438 0.631283 30.9618 0.311035 25.4346L0.309082 25.4004L0.29541 25.3691L0.215332 25.1777V22.7959H8.34131V25.2666C8.34135 25.3731 8.3657 25.5217 8.39795 25.6768C8.43123 25.8368 8.47644 26.0206 8.5249 26.2031C8.62186 26.5682 8.73395 26.9383 8.79443 27.1318V27.1328C9.70695 30.0172 12.1416 32.5649 15.0396 33.4736L15.4839 33.6123L15.2788 33.1943C14.9948 32.6158 14.7239 32.0444 14.5601 31.4385L14.4966 31.1768C13.4404 26.1929 17.7328 21.8625 22.7251 22.9414C26.5423 23.7679 28.9051 27.8509 27.7681 31.5967L27.1401 33.21L26.9858 33.6084L27.3911 33.4717C30.3707 32.4661 32.8054 29.8709 33.6812 26.8457C33.7268 26.6875 33.8146 26.3684 33.8911 26.0557C33.9293 25.8993 33.9653 25.7423 33.9917 25.6074C34.017 25.4783 34.0366 25.3529 34.0366 25.2666V22.7959H42.1724C42.5289 29.4401 39.3223 35.7027 33.8228 39.3496L33.7329 39.4092V47.7998H8.64502V39.2598Z" fill="#821A52" stroke="#F5F5F5" stroke-width="0.4"/>
<path d="M21.8193 0.200195C23.4865 0.548815 24.6912 1.7135 25.1797 3.3457L25.2129 3.45605L25.3252 3.48242C29.9752 4.56781 33.9712 7.52298 36.5732 11.5029L36.6035 11.5488L36.6514 11.5732C36.7709 11.633 36.9177 11.6354 37.042 11.627C37.1737 11.618 37.3204 11.5924 37.4609 11.5645C37.6079 11.5352 37.7415 11.5049 37.874 11.4805C38.0054 11.4562 38.1125 11.4432 38.1904 11.4443H38.1914C40.1158 11.4645 41.4869 12.791 41.9639 14.3965C42.4405 16.001 42.0139 17.8488 40.3711 18.9053C37.0716 21.0268 33.1792 17.9641 34.2627 14.3125V14.3115C34.2989 14.1876 34.3965 14.0014 34.499 13.7842C34.547 13.6825 34.595 13.5762 34.6289 13.4795C34.6596 13.3919 34.6917 13.2767 34.6768 13.1719V13.1689L34.6445 13.0605C34.6296 13.0241 34.6119 12.9884 34.5947 12.9561C34.5565 12.8839 34.5051 12.7999 34.4473 12.71C34.3313 12.5296 34.18 12.3136 34.0234 12.0996C33.8671 11.886 33.7038 11.6711 33.5635 11.4902L33.2402 11.085C31.7261 9.26705 29.6003 7.68234 27.4238 6.74609H27.4229C27.222 6.6609 26.6862 6.44298 26.1631 6.26758C25.9021 6.18006 25.6382 6.10047 25.4189 6.05469C25.3099 6.03193 25.2052 6.01598 25.1143 6.0127C25.0536 6.01052 24.9766 6.01278 24.9043 6.03711L24.8418 6.06543H24.8408C24.8386 6.06675 24.8362 6.06796 24.834 6.06934L24.835 6.07031C24.8006 6.09139 24.7771 6.11882 24.7734 6.12305C24.7623 6.13583 24.7507 6.15006 24.7402 6.16406C24.7188 6.19268 24.693 6.23032 24.665 6.27148C24.6089 6.35406 24.5376 6.46304 24.4648 6.57324C24.3913 6.68462 24.316 6.79856 24.249 6.89453C24.1803 6.99302 24.1287 7.06025 24.1006 7.08984C22.5924 8.62662 19.8641 8.67528 18.3369 7.13672L18.2461 7.0293C18.2131 6.98582 18.1767 6.93466 18.1377 6.87695C18.0651 6.76945 17.9778 6.63334 17.8945 6.51465C17.8098 6.39391 17.7151 6.27038 17.6133 6.17578C17.5153 6.08487 17.3803 5.99219 17.2168 5.99219C17.1539 5.99224 17.078 6.00489 17.0039 6.02148C16.926 6.03894 16.8354 6.0638 16.7383 6.09277C16.5438 6.15078 16.3132 6.2289 16.083 6.31152C15.6226 6.47682 15.1534 6.66319 14.96 6.74609C12.7138 7.71526 10.5936 9.33519 9.03027 11.2314L8.72461 11.6143C8.61675 11.7551 8.35754 12.0926 8.13086 12.4307C8.01787 12.5992 7.91004 12.7731 7.83203 12.9248C7.79319 13.0004 7.7592 13.0753 7.73633 13.1445C7.71535 13.2081 7.69452 13.2917 7.70703 13.374L7.70801 13.375C7.72006 13.4519 7.75193 13.5329 7.78418 13.6025C7.81785 13.6753 7.85996 13.7538 7.90039 13.8291C7.98556 13.9877 8.06242 14.1293 8.09766 14.2412V14.2422C9.1764 17.7825 5.60214 20.8423 2.2998 19.0654H2.29883C1.12133 18.4282 0.540108 17.4005 0.216797 16.1094C0.231797 15.908 0.220615 15.6961 0.210938 15.5039C0.20032 15.293 0.192534 15.1039 0.213867 14.9355V14.9346C0.329373 14.02 0.876207 13.1404 1.63867 12.4893C2.40124 11.838 3.35888 11.4331 4.27246 11.4443H4.27539C4.34493 11.4444 4.4407 11.4584 4.56152 11.4834C4.68889 11.5098 4.80033 11.5377 4.94336 11.5684C5.07465 11.5965 5.21393 11.6226 5.3418 11.6309C5.4645 11.6388 5.60631 11.6333 5.72656 11.5732L5.77539 11.5488L5.80469 11.5029C8.40061 7.52301 12.3966 4.56786 17.0527 3.48242L17.1641 3.45703L17.1982 3.34766C17.5844 2.1086 18.3088 1.16657 19.4531 0.569336L20.5654 0.200195H21.8193ZM4.36426 13.918C3.96102 13.8776 3.53758 14.002 3.16797 14.3428C2.78007 14.7004 2.62199 15.1253 2.6416 15.54C2.66094 15.9487 2.85167 16.3301 3.12793 16.6172C3.40414 16.9042 3.7776 17.1091 4.17969 17.1494C4.58769 17.1902 5.01243 17.0598 5.37109 16.7012L5.37012 16.7002C5.73745 16.3342 5.88873 15.9121 5.87012 15.5029C5.8516 15.0982 5.66844 14.722 5.39844 14.4395C5.12858 14.157 4.76261 13.9579 4.36426 13.918ZM39.6279 15.0195C39.3872 14.3246 38.6855 13.7807 37.7031 13.9824C37.1852 14.0887 36.8461 14.3988 36.6768 14.79C36.5108 15.174 36.5119 15.6243 36.6406 16.0215C36.7695 16.419 37.0331 16.7847 37.416 16.9844C37.8058 17.1876 38.2925 17.205 38.8301 16.9512C39.6547 16.5613 39.866 15.7072 39.6279 15.0195ZM20.9502 2.63379C19.9615 2.77626 19.5374 3.65891 19.625 4.43359C19.6692 4.82377 19.8423 5.20595 20.1523 5.47363C20.4661 5.74443 20.9033 5.88382 21.4424 5.81445C21.947 5.7501 22.3103 5.49849 22.5273 5.1543C22.741 4.81539 22.8053 4.39975 22.7461 4.00977C22.6868 3.61945 22.5008 3.23887 22.1943 2.97266C21.8837 2.70287 21.4595 2.55959 20.9502 2.63379Z" fill="#821A52" stroke="#F5F5F5" stroke-width="0.4"/>
</svg>
