<svg width="22" height="24" viewBox="0 0 22 24" fill="none" xmlns="http://www.w3.org/2000/svg">
<path fill-rule="evenodd" clip-rule="evenodd" d="M7.14325 23.3782C7.48417 23.0971 8.51877 21.2177 9.46715 19.2067C10.3775 17.1702 11.1868 15.5163 11.2716 15.4997C11.3298 15.4883 12.7924 16.7254 14.456 18.2311C17.1571 20.6556 17.6129 20.9623 18.3756 20.8132C19.1382 20.6641 19.2319 20.5248 19.1614 19.6863C19.0656 18.5778 17.9923 17.1381 15.6536 14.8517C14.6028 13.8365 14.142 13.1953 14.3637 13.0915C14.527 12.9991 16.1602 12.4652 17.9796 11.928C19.7673 11.3969 21.4093 10.7679 21.5817 10.5527C22.1242 9.89679 21.7522 8.78185 20.981 8.71822C20.3262 8.63182 15.9348 9.73804 14.1179 10.4288L13.1777 10.7666L14.9458 6.39588C16.6556 2.03656 16.8917 0.76971 15.9178 0.597274C14.7513 0.396501 13.6255 1.80984 12.0125 5.56738C11.1286 7.59875 10.3218 9.40609 10.2281 9.54538C10.1406 9.71646 9.05671 9.01016 7.80039 8.04066C4.30176 5.27726 1.15577 3.69856 1.38569 4.87428C1.52966 5.61042 3.48698 7.97143 5.68898 10.0372C8.3442 12.5366 8.43172 12.3655 4.29515 13.5099C1.02633 14.4241 0.289007 14.8432 0.438146 15.6058C0.645283 16.665 1.6918 16.7023 4.99332 15.8147L8.03521 15.0054L7.69273 15.8972C6.25204 19.4395 5.6299 21.8816 5.87639 23.1421C6.05971 24.0795 6.18865 24.1202 7.14428 23.3835L7.14325 23.3782Z" fill="#C42785"/>
</svg>
