<svg width="47" height="43" viewBox="0 0 47 43" fill="none" xmlns="http://www.w3.org/2000/svg">
<path fill-rule="evenodd" clip-rule="evenodd" d="M23.5314 42.3022C23.716 41.9145 23.8897 40.9299 23.8897 40.0227C23.8897 37.7432 26.1159 32.4167 28.2227 29.579C31.0571 25.7566 34.3041 23.9035 39.419 23.0429C41.7647 22.6552 44.2407 22.3529 44.838 22.3529C45.5005 22.3529 46.3475 22.097 46.7059 21.7481C47.6724 20.934 46.2281 20.1587 42.7964 19.7245C41.2869 19.5074 38.2245 18.7321 36.0526 17.9645C32.4363 16.6774 31.839 16.2898 30.3295 14.1421C29.2435 12.5914 28.1033 9.7537 27.2562 6.31897C25.6924 0.387671 25.5078 2.18712e-06 23.944 2.0687e-06C22.1956 1.93629e-06 21.6526 0.814104 20.3278 4.94663C17.3739 14.5763 14.7893 16.941 5.27625 18.6623C3.10431 19.0034 0.997527 19.6082 0.58486 19.9106C-0.740022 20.81 0.280791 21.8877 2.69164 22.1435C15.3975 23.6089 18.2861 26.2295 19.3721 37.1927C19.9151 42.6511 20.0345 43 21.7178 43C22.4997 43 23.3467 42.6976 23.5205 42.31L23.5314 42.3022ZM19.611 24.6789C18.9486 23.8648 16.9612 22.6165 15.3323 21.973L12.259 20.7247L14.0074 20.0811C16.8961 19.0034 19.4916 16.7317 21.7178 13.328C23.2273 11.0485 23.8246 10.405 23.8897 11.1803C23.9549 14.018 28.8852 19.2205 32.3168 19.9959C33.8263 20.337 33.8806 20.9418 32.3168 21.2829C30.3947 21.7093 25.877 25.6248 24.4327 28.2066L23.0427 30.5714L21.9567 28.3772C21.4137 27.1754 20.3277 25.493 19.611 24.6789Z" fill="#C42785"/>
</svg>
