<svg width="46" height="42" viewBox="0 0 46 42" fill="none" xmlns="http://www.w3.org/2000/svg">
<path fill-rule="evenodd" clip-rule="evenodd" d="M23.0307 41.3184C23.2114 40.9398 23.3814 39.978 23.3814 39.092C23.3814 36.8655 25.5603 31.6628 27.6222 28.8911C30.3963 25.1576 33.5743 23.3476 38.5803 22.507C40.8761 22.1284 43.2995 21.833 43.884 21.833C44.5324 21.833 45.3614 21.5831 45.7121 21.2423C46.6581 20.4472 45.2445 19.6899 41.8858 19.2658C40.4085 19.0537 37.4112 18.2964 35.2855 17.5467C31.7462 16.2896 31.1616 15.9109 29.6842 13.8132C28.6213 12.2986 27.5053 9.52687 26.6763 6.17202C25.1458 0.378653 24.9651 2.22175e-06 23.4346 2.10585e-06C21.7234 1.97626e-06 21.1919 0.795168 19.8953 4.83159C17.0043 14.2373 14.4747 16.5471 5.16399 18.2283C3.03826 18.5615 0.976305 19.1522 0.572417 19.4475C-0.724275 20.326 0.274821 21.3786 2.63437 21.6286C15.0699 23.0599 17.8971 25.6195 18.9599 36.3278C19.4914 41.6592 19.6083 42 21.2557 42C22.021 42 22.85 41.7047 23.02 41.326L23.0307 41.3184ZM19.1938 24.1049C18.5454 23.3098 16.6004 22.0905 15.0061 21.462L11.9982 20.2427L13.7094 19.6141C16.5366 18.5615 19.0768 16.3426 21.2557 13.018C22.7331 10.7916 23.3177 10.163 23.3814 10.9203C23.4452 13.692 28.2706 18.7735 31.6292 19.5308C33.1066 19.864 33.1598 20.4547 31.6292 20.788C29.748 21.2045 25.3265 25.0288 23.9129 27.5507L22.5524 29.8604L21.4895 27.7173C20.9581 26.5435 19.8952 24.9001 19.1938 24.1049Z" fill="white"/>
</svg>
