<svg width="216" height="65" viewBox="0 0 216 65" fill="none" xmlns="http://www.w3.org/2000/svg">
<path fill-rule="evenodd" clip-rule="evenodd" d="M3.96043 0.630099C4.62033 0.707989 7.60193 2.25832 10.6112 4.12171C17.2355 8.05985 24.1739 10.9009 34.8521 13.8636C44.0135 16.4137 45.989 17.6545 44.1347 19.5133C43.1083 20.4821 41.8152 20.6553 37.638 20.2821C34.7806 20.0645 30.3256 19.2389 27.7598 18.459L23.1915 17.0526L25.4495 18.6661C37.49 27.1512 57.2989 38.3311 70.0148 43.8246C101.949 57.689 142.459 62.3161 173.106 55.5107C185.908 52.6773 196.738 47.9315 209.15 39.6836C216.815 34.6264 218.183 35.8398 211.728 41.9752C191.843 60.6217 155.609 68.429 114.907 62.6739C89.432 59.1282 68.4844 51.4386 42.5246 36.1181C37.6313 33.1859 30.6855 28.7535 27.1016 26.1524L20.5769 21.4673L22.264 26.6447C24.313 32.7259 23.9901 38.028 21.6262 37.4252C21.2171 37.3187 19.4673 34.1372 17.5953 30.3666C15.4083 25.8381 11.8526 20.2642 7.40756 14.1223C3.62293 8.9857 0.473432 4.18973 0.399779 3.56277C0.382033 2.14683 2.41973 0.464301 3.9517 0.621708L3.96043 0.630099Z" fill="#882A5F"/>
</svg>
