<svg width="66" height="73" viewBox="0 0 66 73" fill="none" xmlns="http://www.w3.org/2000/svg">
<g clip-path="url(#clip0_57_303)">
<path d="M21.3189 17.9767C25.6997 17.9767 29.2511 14.4003 29.2511 9.98861C29.2511 5.57689 25.6997 2.00049 21.3189 2.00049C16.9381 2.00049 13.3867 5.57689 13.3867 9.98861C13.3867 14.4003 16.9381 17.9767 21.3189 17.9767Z" stroke="#EFDFDF" stroke-width="3" stroke-linecap="round" stroke-linejoin="round"/>
<path d="M7.98512 24.0845C9.26964 21.9641 11.9578 21.1773 14.1693 22.2841L41.8194 36.0467C43.5939 36.8868 44.4944 38.9005 43.9514 40.8075C43.2761 43.1813 40.6408 44.3815 38.4161 43.3413L21.9691 35.6199L20.7375 66.2922C20.6581 68.3459 18.9763 69.9729 16.937 69.9729H5.80013C3.69459 69.9729 1.98633 68.2525 1.98633 66.1321V50.0092C1.98633 41.7144 2.33063 35.9533 5.9458 27.4451L7.98512 24.0845Z" stroke="#EFDFDF" stroke-width="3" stroke-linecap="round" stroke-linejoin="round"/>
<path d="M51.6065 27.4451C51.6065 27.4451 37.8212 18.4168 38.8541 10.442C39.887 2.45389 48.1635 3.33405 51.2622 8.36163C51.2622 8.36163 56.0824 2.46722 61.2602 6.10789C66.438 9.74855 63.8425 17.91 51.6065 27.4451Z" stroke="#EFDFDF" stroke-width="3" stroke-linecap="round" stroke-linejoin="round"/>
<path d="M35.4375 56.4904L36.7882 43.2346" stroke="#EFDFDF" stroke-width="3" stroke-linecap="round" stroke-linejoin="round"/>
<path d="M43.5137 36.3H50.3997C53.5382 36.3 56.2793 38.4604 57.0209 41.541L64.0261 70.493" stroke="#EFDFDF" stroke-width="3" stroke-linecap="round" stroke-linejoin="round"/>
<path d="M45.5801 57.2905H60.5705" stroke="#EFDFDF" stroke-width="3" stroke-linecap="round" stroke-linejoin="round"/>
<path d="M34.6149 70.9996C38.279 70.9996 41.2493 68.0084 41.2493 64.3184C41.2493 60.6285 38.279 57.6372 34.6149 57.6372C30.9508 57.6372 27.9805 60.6285 27.9805 64.3184C27.9805 68.0084 30.9508 70.9996 34.6149 70.9996Z" stroke="#EFDFDF" stroke-width="3" stroke-linecap="round" stroke-linejoin="round"/>
</g>
<defs>
<clipPath id="clip0_57_303">
<rect width="66" height="73" fill="white"/>
</clipPath>
</defs>
</svg>
