<svg width="27" height="26" viewBox="0 0 27 26" fill="none" xmlns="http://www.w3.org/2000/svg">
<g clip-path="url(#clip0_80_416)">
<path d="M14.1592 2.04571C14.4683 2.04571 14.7821 2.0588 15.092 2.08452C15.843 2.147 16.5868 2.28505 17.3026 2.49468C17.9993 2.69883 18.6786 2.97344 19.3213 3.31091C19.9529 3.64243 20.5558 4.03801 21.1134 4.4866C21.6661 4.9313 22.1791 5.43197 22.6381 5.97461C23.097 6.51724 23.5057 7.1063 23.8527 7.72534C24.2027 8.34986 24.4929 9.01031 24.7155 9.68849C24.9419 10.3787 25.1004 11.0946 25.1865 11.8161C25.275 12.5574 25.2883 13.3144 25.2259 14.0662C25.1082 15.4843 24.7298 16.8423 24.1013 18.1025C23.7989 18.7092 23.4376 19.2917 23.0278 19.8342C22.6219 20.3713 22.164 20.8749 21.6668 21.3307C21.1704 21.7858 20.6298 22.1979 20.0601 22.5557C19.4869 22.9157 18.8782 23.2243 18.2509 23.4731C17.6146 23.7255 16.9518 23.919 16.2809 24.0485C15.5947 24.1809 14.8905 24.2481 14.188 24.2481C13.8789 24.2481 13.5651 24.235 13.2552 24.2093C12.211 24.1224 11.1905 23.8913 10.2218 23.5222C9.28393 23.1649 8.39786 22.6798 7.58813 22.0805L6.89193 21.5651L6.06106 21.8094L3.85262 22.4587L3.52798 22.5541L3.67286 22.248L4.60827 20.2713L4.99793 19.448L4.54529 18.6575C3.42679 16.7042 2.93437 14.4809 3.12145 12.2276C3.23915 10.8095 3.61749 9.45147 4.24598 8.19129C4.54854 7.5846 4.90972 7.00204 5.3195 6.45959C5.72538 5.92243 6.1833 5.41888 6.68055 4.96305C7.17696 4.50796 7.71752 4.09585 8.28721 3.73805C8.86042 3.37803 9.46916 3.06944 10.0964 2.82063C10.7327 2.5683 11.3955 2.37473 12.0664 2.24522C12.7526 2.11284 13.4568 2.04562 14.1593 2.04562M14.1592 0.301758C7.55289 0.301758 1.94191 5.37534 1.38493 12.0831C1.16131 14.7765 1.78507 17.3447 3.03343 19.5247L2.09802 21.5014L0.289062 25.3239L4.34356 24.1318L6.552 23.4825C8.4038 24.8532 10.6469 25.7423 13.1108 25.9472C13.4721 25.9772 13.8318 25.992 14.1879 25.992C20.7942 25.992 26.4051 20.9184 26.9621 14.2106C27.549 7.1412 22.2992 0.934075 15.2362 0.346598C14.875 0.316519 14.5153 0.301758 14.1592 0.301758Z" fill="#821A52"/>
<path d="M10.7197 7.15638C11.2871 7.7666 11.7057 8.68968 12.11 9.22016C12.11 9.22016 12.779 10.0981 11.8632 11.2604L11.1045 12.0926C11.1045 12.0926 10.7605 12.7766 11.5056 13.3112L14.189 15.7764C14.189 15.7764 14.9566 16.7541 15.7782 15.7464C16.1185 15.3289 16.5986 14.9352 17.094 14.7208C17.8905 14.3762 19.0072 15.1638 19.6364 15.5691C20.4631 16.1017 21.912 16.8731 20.9586 18.0586C20.6326 18.4162 20.358 18.8309 19.976 19.1339C19.6011 19.4312 19.1271 19.5566 18.6686 19.6632C17.9718 19.8251 17.2234 19.7314 16.5436 19.537C15.2188 19.1582 13.8136 18.4291 12.7403 17.5566C12.1958 17.1142 11.6679 16.6494 11.152 16.174C9.26684 14.4364 7.53524 12.3803 7.41846 9.71452C7.41846 9.71452 7.22229 8.60752 7.95327 7.68945C7.95327 7.68945 8.44199 6.80332 9.15822 6.60251C9.79701 6.42352 10.2993 6.70389 10.7198 7.15619L10.7197 7.15638Z" fill="#821A52"/>
</g>
<defs>
<clipPath id="clip0_80_416">
<rect width="26.7178" height="25.6902" fill="white" transform="translate(0.289062 0.301758)"/>
</clipPath>
</defs>
</svg>
