<svg width="23" height="21" viewBox="0 0 23 21" fill="none" xmlns="http://www.w3.org/2000/svg">
<path fill-rule="evenodd" clip-rule="evenodd" d="M15.8128 18.4006C15.6467 18.1709 5.30869 4.23566 4.37986 2.954H7.21166C7.98192 4.01341 16.213 15.1334 18.5842 18.4006H15.8128ZM0 20.4675H2.94508C4.42517 18.9414 7.80823 15.4742 9.56773 13.674C10.3757 14.8075 12.8828 18.0079 14.6197 20.4675H22.6695C21.4764 18.8228 15.6014 11.2662 14.0307 9.10299C16.4169 6.65821 19.4526 3.53927 22.0654 0.857422C21.8313 0.857422 19.1279 0.857422 19.1203 0.857422C18.7352 1.25748 14.0911 6.01368 12.8979 7.23607C12.324 6.44337 8.33684 0.983365 8.25377 0.857422H0.385126C1.08741 1.82792 7.49107 10.6514 8.38214 11.8737C7.72517 12.5627 1.027 19.3933 0 20.4675Z" fill="#821A52"/>
</svg>
