<svg width="29" height="20" viewBox="0 0 29 20" fill="none" xmlns="http://www.w3.org/2000/svg">
<path fill-rule="evenodd" clip-rule="evenodd" d="M11.8256 14.0958C11.8256 11.4584 11.8029 8.75433 11.818 6.12434V6.02803L19.0222 10.0434C18.9618 10.1619 18.3199 10.4805 18.1537 10.5768C17.6402 10.8731 11.9011 14.0958 11.8332 14.0958H11.8256ZM12.5052 0.575434C10.1869 0.605067 6.49426 0.701377 4.19861 1.07921C3.57938 1.18292 3.09609 1.35332 2.59769 1.65706C1.88786 2.10157 1.3517 2.88686 1.15536 3.86477C0.664513 6.28732 0.596549 9.53962 0.694718 11.9844C0.75513 13.5031 0.898602 15.7405 1.41965 17.0295C2.04643 18.5853 3.451 19.015 5.08967 19.2002C6.0034 19.3039 6.93224 19.3335 7.85352 19.378C11.7878 19.5928 21.2423 19.6966 24.8292 19.0594C25.4107 18.9557 25.9393 18.7631 26.4075 18.4594C27.1023 18.0149 27.6308 17.1925 27.8196 16.222C27.9782 15.3923 28.099 14.5403 28.1746 13.6809C28.3331 11.8585 28.3935 9.96931 28.3105 8.13202C28.2425 6.71701 28.0688 4.27223 27.5629 3.10911C27.291 2.48681 26.8002 1.89413 26.2187 1.54594C25.0029 0.812503 22.6167 0.805095 21.1517 0.731011C18.3123 0.597659 15.337 0.538392 12.5052 0.568025V0.575434Z" fill="#821A52"/>
</svg>
