<svg width="141" height="107" viewBox="0 0 141 107" fill="none" xmlns="http://www.w3.org/2000/svg">
<path fill-rule="evenodd" clip-rule="evenodd" d="M138.066 1.01398C137.706 1.28143 136.652 2.46094 135.768 3.59931C133.318 6.75383 129.397 10.7861 122.357 17.2872C118.862 20.5171 115.844 23.5619 115.669 24.0145C115.203 25.1529 115.469 26.0307 116.289 26.0307C117.489 26.0307 125.656 19.0359 131.846 12.72L133.164 11.3896L132.57 12.528C115.599 45.9521 107.21 59.4891 94.697 73.6364C80.5065 89.6833 68.2516 97.2473 54.4656 98.4679C49.3203 98.9617 43.0695 97.3295 38.8365 94.4356C36.7834 92.9887 33.8835 89.985 33.967 89.2992C33.9946 89.0729 34.7977 87.9277 35.759 86.8305C38.4622 83.676 41.3392 79.0334 42.7238 75.5017C45.2297 69.1926 44.873 62.2664 41.9467 60.8263C38.9078 59.2696 35.4198 61.0938 32.3746 65.7707C28.4092 71.8191 27.05 81.3238 29.1833 87.866C29.5534 88.9289 29.4802 89.1621 28.4858 90.225C27.8654 90.9108 25.8025 92.5429 23.9479 93.8733C18.0251 98.0564 11.5051 101.328 4.96973 103.378C0.453954 104.825 -0.515331 105.62 1.66555 106.08C2.31495 106.196 4.23549 106.039 5.96481 105.737C12.148 104.557 21.7243 99.5788 28.1728 94.1407L30.9339 91.8571L33.7024 94.5933C37.0295 97.8233 41.572 100.258 46.2105 101.17C53.0298 102.541 62.5395 101.17 70.0299 97.7067C78.9633 93.599 88.5327 85.6167 98.0955 74.3222C109.5 60.8263 115.899 50.7113 130.31 23.3699L135.631 13.296L135.018 20.7091C134.352 28.1977 134.502 30.0287 135.647 30.4813C137.078 30.975 137.262 30.1384 139.055 15.7305C140.512 4.13421 140.743 1.50773 140.301 1.08942C139.679 0.444797 138.976 0.403651 138.081 1.01398H138.066ZM40.8481 65.0095C41.862 67.5194 41.0584 72.4637 38.8567 76.9486C37.2255 80.1786 33.6976 85.3904 32.7601 85.9253C31.9685 86.3025 31.4074 82.4622 31.6614 78.663C32.0468 72.8066 34.5159 66.7993 37.6419 64.214C39.209 62.9179 40.0902 63.1511 40.8555 65.0095H40.8481Z" fill="#C42785"/>
</svg>
