<svg width="125" height="109" viewBox="0 0 125 109" fill="none" xmlns="http://www.w3.org/2000/svg">
<g clip-path="url(#clip0_676_620)">
<path fill-rule="evenodd" clip-rule="evenodd" d="M122.834 73.8987C122.556 73.7891 121.674 73.1802 120.908 72.5618C118.786 70.8478 115.568 68.841 109.92 65.7732C107.115 64.2484 104.648 62.7464 104.457 62.4592C103.958 61.7434 103.975 61.0454 104.5 60.8542C105.268 60.5742 111.724 63.737 116.796 66.8689L117.873 67.5254L117.293 66.8391C100.56 46.5827 92.8125 38.7324 82.3183 31.4014C70.4163 23.0856 61.2429 20.4639 52.2032 22.7948C48.8226 23.6371 45.1076 26.2773 42.9059 29.361C41.8456 30.8881 40.5166 33.7404 40.6905 34.2178C40.7479 34.3753 41.4631 35.0177 42.2712 35.5883C44.5555 37.2432 47.2125 39.9356 48.719 42.1713C51.431 46.1575 52.4188 51.2584 50.7983 52.9842C49.1263 54.8207 46.573 54.3126 43.8024 51.6346C40.2018 48.1776 37.6628 41.6088 37.8797 36.3718C37.93 35.5154 37.8422 35.3635 37.019 34.8254C36.5015 34.4733 34.8943 33.772 33.4734 33.2407C28.9473 31.5915 24.199 30.7423 19.6552 30.7811C16.5103 30.786 15.7501 30.4357 17.0656 29.5942C17.4608 29.3583 18.718 29.0247 19.878 28.84C24.0434 28.2524 31.0481 29.6259 36.1311 32.0616L38.2997 33.0721L39.5915 30.4441C41.1543 27.3282 43.6348 24.5052 46.4441 22.7626C50.5688 20.1786 56.8975 18.9544 62.3006 19.7163C68.7408 20.6088 76.2684 24.1598 84.3735 30.112C94.0438 37.2295 99.9166 43.0649 113.943 59.5118L119.118 65.569L117.424 60.3413C115.683 55.0715 115.457 53.7101 116.111 53.1151C116.94 52.4237 117.205 52.9869 120.882 63.0067C123.851 71.0679 124.46 72.9169 124.251 73.3228C123.966 73.935 123.523 74.1288 122.843 73.8953L122.834 73.8987ZM49.3605 50.2099C49.5689 48.1551 48.1863 44.7605 45.9894 42.0249C44.378 40.0654 41.2044 37.1124 40.5103 36.9435C39.9373 36.8549 40.2524 39.7679 41.0821 42.461C42.3571 46.6138 44.9926 50.39 47.4477 51.5339C48.6785 52.1074 49.2017 51.733 49.3653 50.2081L49.3605 50.2099Z" fill="#B74172"/>
<path fill-rule="evenodd" clip-rule="evenodd" d="M2.55626 39.8268C2.07458 38.5046 3.53277 36.081 6.00681 34.0713C7.60369 32.7704 8.8781 32.2467 9.53328 32.6352C10.5197 33.2058 10.1924 33.8657 8.05717 35.5735C6.89844 36.5039 5.49908 37.8571 4.93138 38.5992C3.72702 40.1464 2.8497 40.6174 2.56104 39.825L2.55626 39.8268Z" fill="#B74172"/>
</g>
<defs>
<clipPath id="clip0_676_620">
<rect width="103.243" height="78.2796" fill="white" transform="matrix(0.939591 -0.342301 -0.342301 -0.939591 27.7168 108.891)"/>
</clipPath>
</defs>
</svg>
