<svg width="37" height="39" viewBox="0 0 37 39" fill="none" xmlns="http://www.w3.org/2000/svg">
<path fill-rule="evenodd" clip-rule="evenodd" d="M18.0198 0.460586C17.8808 0.731159 17.6077 1.93152 17.4141 3.13188C16.5603 8.67124 14.5795 13.1431 11.9087 15.652C9.92797 17.5362 7.61461 18.6234 4.42258 19.2531C2.44182 19.6368 2 19.7992 2 20.2075C2 20.7535 2.87868 21.0536 5.77286 21.5702C10.5882 22.4163 12.986 24.0545 14.6937 27.6802C15.4383 29.2643 16.044 32.2357 16.4808 36.3533C16.6447 38.0702 17.0865 39 17.6921 39C18.1885 39 18.7396 37.7455 19.1764 35.5908C19.9757 31.7978 21.2664 28.1426 22.4231 26.4257C24.2102 23.8086 26.3052 22.6869 31.8652 21.4866C34.4516 20.9405 35.221 20.5027 34.948 19.7942C34.8024 19.4302 33.5447 19.0662 31.1751 18.7021C23.962 17.61 22.0905 15.101 20.4423 4.46507C20.1395 2.39395 19.7275 0.539298 19.5637 0.347438C19.1516 -0.169111 18.2978 -0.0903978 18.0198 0.455667V0.460586ZM19.3154 10.3094C20.4969 15.7357 22.9741 18.7907 27.159 20.0501L28.2065 20.3502L26.5832 20.9503C25.7045 21.2799 24.379 21.9342 23.6393 22.3967C21.604 23.7348 19.3998 26.9816 18.5212 29.9235C18.1091 31.3157 17.8311 31.2321 17.5829 29.6775C17.0617 26.1601 13.8944 22.2835 10.3996 20.8962L8.88547 20.2665L10.345 19.6122C13.5916 18.1413 16.4858 14.2647 17.9701 9.43869C18.3275 8.26784 18.6602 7.42169 18.7148 7.52992C18.7445 7.66766 19.0176 8.92214 19.3204 10.3144L19.3154 10.3094Z" fill="#C42785"/>
<path fill-rule="evenodd" clip-rule="evenodd" d="M4.19762 0.402115C4.01818 0.626355 3.94457 1.11051 4.04579 1.47745C4.27584 2.49672 5.95983 5.26405 8.15453 8.11802C10.041 10.6305 10.6805 11.2523 10.9842 10.9159C11.2925 10.605 7.00427 1.93103 5.90922 0.600873C5.29728 -0.133005 4.65773 -0.189064 4.19762 0.402115Z" fill="#C42785"/>
<path fill-rule="evenodd" clip-rule="evenodd" d="M34.6042 0.990303C33.0021 2.5304 28.5728 10.43 29.0334 10.9224C29.3323 11.2734 30.1211 10.4876 32.5121 7.46501C35.3637 3.86097 37.1031 1.16317 36.9953 0.550274C36.8336 -0.319306 35.7704 -0.146439 34.6042 0.985063V0.990303Z" fill="#C42785"/>
<path fill-rule="evenodd" clip-rule="evenodd" d="M5.79145 30.935C1.36661 34.5216 -0.34498 36.5352 0.0567768 37.5838C0.392492 38.4484 1.58125 37.9575 3.23231 36.1893C5.4007 33.9303 9 29.6297 9 29.2616C9 28.6146 7.93232 29.1668 5.79695 30.9294L5.79145 30.935Z" fill="#C42785"/>
<path fill-rule="evenodd" clip-rule="evenodd" d="M27.0853 30.3612C28.6007 32.8136 33.1824 38.1018 34.2518 38.6178C35.1489 39.0798 35.3465 39.1093 35.8534 38.78C36.7504 38.2345 33.4105 34.3667 29.138 31.0395C27.8709 30.0565 26.6647 29.6486 27.0853 30.3563V30.3612Z" fill="#C42785"/>
</svg>
