<svg width="190" height="123" viewBox="0 0 190 123" fill="none" xmlns="http://www.w3.org/2000/svg">
<path fill-rule="evenodd" clip-rule="evenodd" d="M42.6524 11.87C39.4324 18.43 36.1524 25.55 35.4124 27.66C34.3024 30.69 33.8624 31.37 33.0624 30.94C31.3924 30.07 23.0924 28.53 13.3124 27.23C1.61238 25.68 1.05238 25.68 0.252379 27.17C-0.247621 28.16 -0.0576208 28.78 1.30238 30.33C2.97238 32.31 20.9224 46.92 22.3524 47.48C22.8524 47.67 21.4824 49.65 18.6424 52.93C12.7024 59.74 4.15238 70.7 2.98238 72.99C2.24238 74.48 2.18238 75.16 2.73238 76.21C4.09238 78.62 7.87238 77.51 21.9824 70.51L34.9224 64.07L36.9624 68.4C38.1424 70.75 41.1124 76.08 43.5824 80.16C51.0724 92.48 52.6224 94.03 54.9124 91.74C56.1524 90.44 56.1524 90.25 55.4124 74.28C54.9824 65.37 54.5424 57.75 54.3624 57.32C54.0524 56.58 56.5924 54.84 70.5224 46.18C80.3624 40.05 81.0424 39.56 81.5424 38.26C82.3424 36.09 80.4324 35.29 73.7424 35.16C66.0624 34.97 55.5424 35.22 53.6824 35.59L52.2624 35.9V18.94C52.2624 9.59 52.0724 1.54 51.8924 0.99C51.7024 0.43 50.8424 0 49.9724 0C48.6724 0 47.8724 1.3 42.6724 11.89L42.6524 11.87ZM48.6524 20.53C48.4624 34.33 48.9624 37.99 51.2524 38.61C51.9324 38.8 57.5624 38.98 63.6924 38.98H74.8324L69.8824 41.83C60.5324 47.22 55.8324 50.31 53.4124 52.6L51.0024 54.89L51.0624 61.33C51.0624 64.86 51.3124 71.54 51.5624 76.13C51.8724 80.71 51.9924 84.55 51.9324 84.67C51.8724 84.79 49.3324 80.89 46.3624 76C43.3324 71.11 40.0524 65.91 38.9924 64.36C37.9424 62.81 37.0724 61.26 37.0724 60.96C37.0724 60.59 36.2024 60.28 35.1524 60.16C33.7924 60.04 30.2024 61.52 21.9624 65.61C15.7124 68.71 10.4524 71.12 10.3224 70.93C10.1324 70.74 12.4924 67.53 15.4624 63.69C18.4924 59.85 22.2724 54.78 23.8224 52.36C26.6124 48.09 26.6724 47.9 25.7424 46.36C25.2424 45.43 20.7924 41.59 15.9024 37.76C11.0124 33.93 7.11238 30.7 7.23238 30.52C7.42238 30.4 10.8824 30.89 15.0924 31.57C19.2424 32.31 25.4924 33.12 28.9624 33.43C34.4124 33.86 35.3424 33.8 36.0824 32.93C36.5124 32.31 39.5524 26.49 42.7724 19.93C45.9324 13.43 48.6524 8.04 48.7124 8.04C48.7724 8.04 48.7724 13.67 48.6524 20.54V20.53Z" fill="#C42785"/>
<path fill-rule="evenodd" clip-rule="evenodd" d="M90.753 53.8996C90.943 54.4596 94.963 55.6296 101.523 57.1196C122.383 61.8196 144.483 67.5196 158.603 71.7296C179.463 77.9796 182.253 78.4196 182.253 75.3196C182.253 73.4596 179.773 72.2896 169.063 69.0696C148.633 62.8796 121.333 56.6896 106.103 54.8296C91.303 53.0296 90.443 52.9696 90.753 53.8996Z" fill="#C42785"/>
<path fill-rule="evenodd" clip-rule="evenodd" d="M87.2228 58.7893C87.0328 59.0993 87.7828 59.7793 88.8928 60.2093C103.253 66.2793 111.423 70.0493 133.033 80.5793C164.483 95.9893 183.673 105.089 185.653 105.589C187.453 106.019 189.053 104.969 189.053 103.299C189.053 101.809 184.103 98.5293 176.733 95.1293C171.163 92.5893 113.653 67.8293 107.893 65.5393C99.1028 62.0693 87.5228 58.2993 87.2128 58.7893H87.2228Z" fill="#C42785"/>
<path fill-rule="evenodd" clip-rule="evenodd" d="M84.7418 66.9004C84.9918 67.2104 97.4918 75.6904 112.472 85.6604C127.512 95.6904 145.402 108.01 152.212 113.08C159.022 118.22 165.212 122.55 165.892 122.8C167.442 123.23 169.232 121.87 169.232 120.2C169.232 117.48 157.282 108.87 132.712 93.7704C96.8718 71.7304 82.9418 63.9304 84.7318 66.9004H84.7418Z" fill="#C42785"/>
</svg>
